{"glyphs":{"0":{"ha":798,"x_min":47,"x_max":749,"o":"m 313 -15 q 190 5 243 -15 q 103 68 136 24 q 59 181 70 112 q 62 351 47 251 l 72 422 q 126 645 90 549 q 212 805 161 741 q 329 901 263 869 q 472 932 394 932 q 605 912 549 932 q 695 848 661 892 q 739 734 728 804 q 735 566 749 665 l 725 496 q 670 266 705 362 q 584 107 635 170 q 465 15 533 45 q 313 -15 397 -15 m 598 530 q 607 700 612 635 q 580 802 601 766 q 526 852 559 839 q 453 865 493 865 q 366 845 404 865 q 297 778 327 824 q 247 660 268 732 q 212 483 226 587 l 199 388 q 190 230 186 294 q 214 126 195 166 q 266 70 233 87 q 342 52 298 52 q 426 71 388 52 q 495 134 465 90 q 548 252 525 178 q 585 435 570 326 l 598 530 z "},"1":{"ha":498,"x_min":62,"x_max":406,"o":"m 371 0 l 68 0 l 62 58 l 158 71 l 264 825 l 124 825 l 124 865 l 331 918 l 406 918 l 287 71 l 382 58 l 371 0 z "},"2":{"ha":672,"x_min":-5,"x_max":647,"o":"m 508 701 q 481 825 519 785 q 370 865 444 865 q 312 860 340 865 q 264 849 285 855 q 218 833 239 842 l 160 684 l 101 684 l 125 861 q 203 897 160 881 q 289 921 239 910 q 398 932 338 932 q 508 920 460 932 q 588 880 557 907 q 633 811 620 852 q 639 712 647 770 q 610 616 632 665 q 553 517 587 567 q 474 417 519 468 q 377 315 429 367 q 268 210 325 263 q 151 102 210 157 l 153 95 l 463 95 l 537 239 l 592 231 l 544 0 l -5 0 l -5 78 q 191 264 100 178 q 349 426 281 350 q 458 569 417 501 q 508 701 500 637 z "},"3":{"ha":675,"x_min":1,"x_max":631,"o":"m 236 -15 q 144 -5 186 -15 q 69 17 101 5 q 1 49 32 31 l 26 224 l 85 224 l 102 81 q 146 66 122 73 q 193 57 166 61 q 249 52 219 52 q 325 63 290 52 q 386 98 359 74 q 430 159 412 121 q 454 250 448 197 q 453 343 461 304 q 423 407 444 382 q 369 444 401 432 q 295 456 336 456 l 233 456 l 245 523 l 309 523 q 371 534 341 523 q 424 569 400 546 q 463 628 447 593 q 486 709 479 663 q 483 782 491 752 q 456 831 474 812 q 411 857 437 849 q 353 865 385 865 q 304 862 328 865 q 262 854 281 859 q 222 844 241 850 l 168 701 l 111 701 l 136 882 q 210 907 170 896 q 289 925 243 917 q 385 932 334 932 q 572 876 513 932 q 615 713 631 820 q 592 633 609 668 q 552 571 575 597 q 504 526 530 545 q 454 497 478 508 q 511 468 484 488 q 556 420 538 449 q 583 352 574 391 q 584 264 591 313 q 546 143 574 195 q 472 56 517 91 q 367 3 427 21 q 236 -15 307 -15 z "},"4":{"ha":682,"x_min":8,"x_max":608,"o":"m 572 0 l 269 0 l 264 58 l 358 71 l 380 239 l 16 239 l 8 277 l 490 918 l 608 918 l 145 313 l 148 306 l 393 306 l 430 574 l 559 574 l 521 306 l 601 306 l 606 248 l 511 235 l 488 71 l 584 58 l 572 0 z "},"5":{"ha":709,"x_min":19,"x_max":662,"o":"m 271 -15 q 168 -6 214 -15 q 88 15 121 3 q 19 45 50 28 l 43 219 l 109 219 l 132 73 q 172 62 150 66 q 218 55 192 58 q 277 52 245 52 q 354 65 317 52 q 420 105 391 79 q 470 171 450 132 q 497 264 490 211 q 495 359 505 319 q 462 425 485 399 q 405 463 439 450 q 328 475 370 475 q 255 469 287 475 q 200 456 223 463 q 152 439 173 449 l 92 479 l 178 918 l 662 918 l 652 823 l 256 823 l 193 517 q 222 528 205 522 q 261 537 240 533 q 306 545 283 542 q 353 547 330 547 q 476 533 421 547 q 569 486 532 518 q 622 401 606 453 q 628 277 638 350 q 587 151 618 205 q 508 60 555 96 q 400 4 460 23 q 271 -15 340 -15 z "},"6":{"ha":711,"x_min":45,"x_max":672,"o":"m 62 388 q 128 617 80 516 q 244 789 176 719 q 395 896 313 859 q 564 932 478 932 q 607 930 587 932 q 642 925 627 928 q 672 918 659 922 l 667 859 q 635 862 652 861 q 602 864 621 863 q 564 865 583 865 q 443 837 502 865 q 336 756 385 809 q 253 630 288 704 q 204 464 218 555 l 210 461 q 249 484 227 473 q 297 504 271 495 q 354 518 323 513 q 420 524 385 524 q 525 506 479 524 q 599 455 570 488 q 638 374 628 422 q 640 267 649 326 q 606 153 632 205 q 539 64 581 101 q 440 6 497 26 q 311 -15 382 -15 q 175 12 229 -15 q 91 87 121 39 q 53 201 60 135 q 56 345 45 267 l 62 388 m 511 256 q 511 342 518 304 q 484 405 504 379 q 434 443 465 430 q 364 456 404 456 q 300 450 330 456 q 247 435 270 443 q 197 414 220 425 l 189 353 q 207 129 170 205 q 328 52 245 52 q 453 103 410 52 q 511 256 495 155 z "},"7":{"ha":618,"x_min":54,"x_max":676,"o":"m 118 670 l 54 670 l 90 918 l 676 918 l 676 875 l 213 0 l 98 0 l 548 816 l 545 823 l 174 823 l 118 670 z "},"8":{"ha":699,"x_min":22,"x_max":660,"o":"m 133 690 q 164 783 140 739 q 227 860 188 827 q 320 913 267 893 q 440 932 374 932 q 539 920 496 932 q 610 884 583 908 q 649 822 637 859 q 653 736 660 785 q 628 660 647 695 q 581 596 608 625 q 519 544 553 567 q 451 506 486 522 q 530 460 496 486 q 587 404 565 435 q 617 333 608 372 q 618 245 625 294 q 584 142 610 190 q 512 59 557 94 q 407 5 468 24 q 271 -15 346 -15 q 160 -1 208 -15 q 80 40 112 13 q 35 110 49 68 q 30 206 22 151 q 57 291 37 252 q 107 361 77 330 q 175 417 138 393 q 253 457 212 441 q 195 498 220 475 q 154 548 170 520 q 133 611 138 576 q 133 690 127 646 m 163 235 q 186 100 151 148 q 294 52 221 52 q 369 65 336 52 q 427 99 402 77 q 466 149 451 120 q 486 212 481 178 q 485 277 490 248 q 461 332 479 307 q 413 378 444 357 q 338 418 383 399 l 307 431 q 259 400 283 418 q 216 357 235 382 q 182 302 196 333 q 163 235 168 272 m 522 720 q 504 830 532 795 q 418 865 475 865 q 358 853 385 865 q 312 819 332 840 q 279 771 292 798 q 264 716 267 745 q 262 654 259 682 q 281 604 266 627 q 323 564 296 582 q 395 529 351 545 q 441 559 420 542 q 479 600 463 576 q 506 653 495 623 q 522 720 517 682 z "},"9":{"ha":715,"x_min":33,"x_max":672,"o":"m 217 657 q 217 566 210 605 q 243 499 224 526 q 291 459 262 473 q 355 446 319 446 q 415 451 386 446 q 467 464 444 456 q 519 482 494 471 l 526 541 q 535 679 536 618 q 520 781 534 739 q 477 844 506 822 q 402 865 448 865 q 326 851 358 865 q 272 810 294 837 q 237 744 250 783 q 217 657 223 706 m 154 -15 q 109 -13 130 -15 q 70 -7 87 -11 q 33 1 50 -4 l 37 59 q 69 56 52 57 q 103 53 84 54 q 142 52 122 52 q 277 81 214 52 q 388 160 340 109 q 469 280 437 210 q 511 432 500 349 l 505 435 q 468 415 490 425 q 421 397 447 406 q 366 384 395 389 q 303 378 336 378 q 204 398 248 378 q 130 452 159 417 q 89 537 101 488 q 87 648 77 587 q 123 765 97 713 q 191 855 149 818 q 290 912 233 892 q 419 932 347 932 q 549 909 497 932 q 630 840 601 886 q 665 727 659 794 q 660 572 672 660 l 652 519 q 587 280 633 381 q 476 114 541 180 q 328 17 410 49 q 154 -15 245 -15 z "}," ":{"ha":373,"x_min":0,"x_max":0,"o":""},"m":{"ha":1311,"x_min":98,"x_max":1216,"o":"m 762 0 l 606 -15 l 551 38 l 614 496 q 614 636 628 595 q 550 677 600 677 q 426 629 493 677 q 292 484 358 580 l 222 -15 l 102 0 l 194 665 l 98 678 l 110 736 l 267 751 l 321 698 l 303 569 q 440 700 362 650 q 596 751 517 751 q 723 703 689 751 q 745 568 756 655 q 886 703 809 654 q 1039 751 963 751 q 1166 702 1131 751 q 1187 555 1201 654 l 1120 71 l 1216 58 l 1204 0 l 1048 -15 l 994 38 l 1057 496 q 1057 634 1070 591 q 993 677 1044 677 q 861 623 930 677 q 734 484 791 568 l 677 71 l 773 58 l 762 0 z "},"b":{"ha":758,"x_min":68,"x_max":715,"o":"m 114 1044 l 270 1059 l 325 1006 l 264 569 q 388 702 319 653 q 524 751 456 751 q 675 688 635 751 q 695 483 715 626 l 677 355 q 559 85 653 186 q 326 -15 465 -15 q 201 -1 270 -15 q 68 38 133 14 l 198 973 l 102 987 l 114 1044 m 565 423 q 567 618 584 559 q 484 677 549 677 q 367 624 429 677 q 252 483 304 570 l 193 64 q 255 48 218 55 q 329 42 292 42 q 403 52 364 42 q 473 76 441 61 q 522 192 503 128 q 553 334 541 255 l 565 423 z "},"h":{"ha":857,"x_min":90,"x_max":762,"o":"m 750 0 l 594 -15 l 538 38 l 602 496 q 602 635 615 593 q 538 677 588 677 q 411 627 478 677 q 279 484 343 576 l 210 -15 l 90 0 l 225 973 l 130 987 l 141 1044 l 297 1059 l 352 1006 l 291 568 q 429 701 352 652 q 584 751 507 751 q 710 703 675 751 q 732 555 746 656 l 665 71 l 762 58 l 750 0 z "},"l":{"ha":420,"x_min":96,"x_max":354,"o":"m 142 1044 l 299 1059 l 354 1006 l 223 71 l 319 58 l 307 0 l 151 -15 l 96 38 l 227 973 l 131 987 l 142 1044 z "},"d":{"ha":787,"x_min":43,"x_max":733,"o":"m 522 1044 l 678 1059 l 733 1006 l 602 71 l 699 58 l 687 0 l 531 -15 l 476 38 l 494 167 q 372 35 439 84 q 235 -15 304 -15 q 82 51 120 -15 q 62 253 43 116 l 80 380 q 199 653 105 555 q 433 751 294 751 q 502 746 466 751 q 573 733 537 741 l 606 973 l 511 987 l 522 1044 m 193 313 q 192 113 172 168 q 274 58 212 58 q 393 114 331 58 q 506 254 455 169 l 564 671 q 502 687 538 681 q 429 694 465 694 q 355 684 392 694 q 291 660 319 675 q 240 545 264 616 q 205 401 216 475 l 193 313 z "},"c":{"ha":628,"x_min":40,"x_max":627,"o":"m 589 555 l 530 548 l 530 671 q 481 685 509 680 q 422 690 453 690 q 355 680 388 690 q 297 656 321 671 q 235 535 260 604 q 196 381 210 467 l 184 300 q 210 112 168 177 q 326 46 252 46 q 421 63 370 46 q 518 107 473 79 l 518 49 q 414 2 475 20 q 290 -15 354 -15 q 99 60 157 -15 q 61 291 40 136 l 71 354 q 198 646 98 542 q 437 751 298 751 q 541 742 492 751 q 627 715 591 733 l 589 555 z "},"e":{"ha":635,"x_min":39,"x_max":625,"o":"m 612 566 q 518 396 597 458 q 321 334 439 334 q 245 336 280 334 q 189 340 211 338 l 184 300 q 208 112 167 177 q 319 46 248 46 q 408 64 360 46 q 490 107 455 82 l 490 49 q 398 3 453 21 q 282 -15 344 -15 q 96 61 153 -15 q 60 291 39 137 l 69 354 q 187 643 94 536 q 416 751 279 751 q 575 701 526 751 q 612 566 625 652 m 294 656 q 236 541 262 610 q 197 395 210 472 q 272 392 235 393 q 345 391 309 391 q 401 398 374 391 q 450 418 429 405 q 472 475 464 446 q 486 544 481 505 q 473 651 496 612 q 395 690 450 690 q 344 681 370 690 q 294 656 317 672 z "},"a":{"ha":785,"x_min":43,"x_max":699,"o":"m 687 0 l 531 -15 l 476 38 l 494 167 q 372 35 441 84 q 233 -15 304 -15 q 82 50 121 -15 q 62 253 43 114 l 80 380 q 200 651 105 551 q 433 751 296 751 q 554 737 488 751 q 690 698 621 723 l 602 71 l 699 58 l 687 0 m 193 313 q 191 120 174 182 q 274 58 207 58 q 393 113 331 58 q 506 253 454 168 l 564 671 q 496 688 532 682 q 429 694 460 694 q 355 684 391 694 q 291 660 319 675 q 242 552 264 615 q 205 401 220 488 l 193 313 z "},"q":{"ha":745,"x_min":43,"x_max":690,"o":"m 344 -237 l 439 -224 l 493 166 q 367 31 434 77 q 235 -15 300 -15 q 82 49 122 -15 q 62 253 43 113 l 80 380 q 199 649 104 548 q 433 751 293 751 q 562 735 492 751 q 690 698 633 720 l 561 -224 l 657 -237 l 646 -295 l 349 -295 l 344 -237 m 193 313 q 192 114 172 170 q 274 58 212 58 q 386 106 326 58 q 505 252 445 155 l 564 671 q 496 688 532 682 q 429 694 461 694 q 359 685 396 694 q 291 660 323 676 q 240 548 263 614 q 205 401 218 481 l 193 313 z "},"p":{"ha":781,"x_min":-39,"x_max":740,"o":"m 96 736 l 252 751 l 307 698 l 288 568 q 412 702 344 653 q 549 751 481 751 q 702 685 665 751 q 720 483 740 619 l 703 355 q 583 84 678 184 q 351 -15 488 -15 q 280 -10 317 -15 q 210 3 243 -5 l 178 -224 l 274 -237 l 262 -295 l -34 -295 l -39 -237 l 56 -224 l 180 665 l 84 678 l 96 736 m 590 423 q 592 616 609 555 q 509 677 576 677 q 392 624 454 677 q 277 482 330 570 l 218 64 q 281 48 245 55 q 354 42 317 42 q 425 51 385 41 q 498 76 465 60 q 544 184 522 116 q 578 334 566 252 l 590 423 z "},"u":{"ha":857,"x_min":83,"x_max":757,"o":"m 537 736 l 694 751 l 749 698 l 661 71 l 757 58 l 745 0 l 589 -15 l 534 38 l 552 165 q 414 34 490 82 q 260 -15 337 -15 q 134 33 170 -15 q 113 180 98 80 l 178 665 l 83 678 l 94 736 l 251 751 l 306 698 l 243 240 q 244 99 229 140 q 307 58 258 58 q 435 110 367 58 q 564 250 503 161 l 621 665 l 526 678 l 537 736 z "},"r":{"ha":627,"x_min":26,"x_max":634,"o":"m 119 736 l 276 751 l 331 698 l 311 556 q 411 700 354 648 q 531 751 469 751 q 587 741 559 751 q 634 715 614 731 l 596 555 l 524 547 l 524 664 q 511 669 519 667 q 492 671 502 671 q 400 612 451 671 q 295 441 349 553 l 243 71 l 340 58 l 328 0 l 31 0 l 26 58 l 121 71 l 203 665 l 108 678 l 119 736 z "},"g":{"ha":755,"x_min":4,"x_max":690,"o":"m 26 -168 q 187 -215 107 -197 q 321 -233 267 -233 q 424 -121 382 -198 q 479 60 465 -45 l 494 166 q 371 33 437 81 q 235 -15 304 -15 q 81 53 117 -15 q 63 253 44 121 l 81 380 q 199 649 104 547 q 433 751 294 751 q 560 736 491 751 q 690 698 629 721 l 605 87 q 480 -209 578 -108 q 237 -310 383 -310 q 110 -296 174 -310 q 4 -262 47 -281 l 26 -168 m 193 313 q 193 114 173 170 q 275 58 212 58 q 390 110 329 58 q 506 252 451 162 l 564 671 q 500 687 537 681 q 429 694 464 694 q 355 684 391 694 q 292 660 318 675 q 239 543 262 613 q 206 401 216 472 l 193 313 z "},"j":{"ha":393,"x_min":-182,"x_max":355,"o":"m 109 736 l 265 751 l 320 698 l 217 -32 q 138 -244 196 -178 q -26 -310 80 -310 q -111 -300 -68 -310 q -182 -278 -153 -291 l -151 -203 q -52 -228 -100 -219 q 35 -237 -3 -237 q 69 -163 54 -208 q 93 -58 84 -119 l 193 665 l 97 678 l 109 736 m 219 956 q 233 1018 219 991 q 267 1044 247 1044 q 328 1030 301 1044 q 355 997 355 1017 q 340 934 355 960 q 307 909 326 909 q 244 923 270 909 q 219 956 219 937 z "},"t":{"ha":519,"x_min":60,"x_max":517,"o":"m 67 736 l 186 736 l 206 876 l 337 932 l 309 736 l 517 736 l 510 679 l 301 679 l 239 236 q 245 95 227 143 q 316 46 263 46 q 381 61 345 46 q 447 94 418 75 l 447 35 q 365 -1 410 12 q 275 -15 321 -15 q 135 45 170 -15 q 116 227 99 106 l 178 679 l 60 679 l 67 736 z "},"s":{"ha":626,"x_min":56,"x_max":574,"o":"m 366 429 q 522 303 486 355 q 547 184 557 252 q 452 37 534 90 q 250 -15 370 -15 q 142 -2 193 -15 q 56 33 90 12 l 72 195 l 127 195 l 149 62 q 202 50 171 54 q 267 46 233 46 q 332 52 300 46 q 385 65 363 58 q 407 100 397 79 q 420 149 416 121 q 401 235 427 197 q 263 343 374 273 q 127 455 158 408 q 104 562 96 501 q 192 697 117 644 q 386 751 267 751 q 490 739 440 751 q 574 705 541 726 l 557 541 l 503 541 l 480 676 q 433 686 461 682 q 375 690 404 690 q 315 684 345 690 q 267 671 286 678 q 244 637 253 656 q 231 598 235 619 q 251 514 223 547 q 366 429 278 482 z "},"v":{"ha":646,"x_min":21,"x_max":634,"o":"m 208 0 l 114 665 l 21 678 l 33 736 l 171 751 l 226 698 l 311 92 q 394 234 356 159 q 461 383 432 309 q 508 530 490 458 q 534 665 527 602 l 439 678 l 450 736 l 579 751 l 634 698 q 621 580 634 642 q 585 454 608 518 q 532 327 562 391 q 467 203 501 264 q 396 87 433 143 q 326 -15 360 32 l 208 0 z "},"w":{"ha":1061,"x_min":21,"x_max":1049,"o":"m 33 736 l 171 751 l 226 698 l 304 137 l 564 751 l 635 736 l 726 92 q 809 234 771 159 q 876 383 847 309 q 923 530 905 458 q 949 665 942 602 l 854 678 l 865 736 l 994 751 l 1049 698 q 1036 580 1049 642 q 1000 454 1023 518 q 947 327 977 391 q 882 203 916 264 q 811 87 848 143 q 741 -15 775 32 l 623 0 l 549 526 l 326 -15 l 208 0 l 114 665 l 21 678 l 33 736 z "},"k":{"ha":753,"x_min":90,"x_max":738,"o":"m 706 0 l 562 -15 l 507 38 l 350 353 q 304 331 328 342 q 256 310 280 319 l 210 -15 l 90 0 l 225 973 l 130 987 l 141 1044 l 298 1059 l 353 1006 l 268 398 q 369 452 320 421 q 461 518 418 483 q 544 592 505 553 q 612 670 582 631 l 555 678 l 567 736 l 667 751 l 738 684 q 690 622 718 656 q 625 553 661 589 q 545 483 589 518 q 452 414 502 447 l 622 71 l 718 58 l 706 0 z "},"y":{"ha":817,"x_min":64,"x_max":750,"o":"m 96 736 l 252 751 l 307 698 l 244 240 q 244 103 231 148 q 308 58 257 58 q 434 108 368 59 q 565 250 500 157 l 623 665 l 527 678 l 538 736 l 695 751 l 750 698 l 665 87 q 540 -209 637 -107 q 296 -310 444 -310 q 174 -297 236 -310 q 64 -262 113 -283 l 86 -168 q 241 -214 159 -195 q 380 -233 322 -233 q 481 -125 437 -201 q 539 60 524 -49 l 553 166 q 414 33 490 80 q 262 -15 338 -15 q 136 32 172 -15 q 114 180 100 79 l 180 665 l 84 678 l 96 736 z "},"x":{"ha":691,"x_min":12,"x_max":680,"o":"m 648 0 l 505 -15 l 450 38 l 323 306 q 214 182 264 242 q 128 66 164 121 l 195 58 l 183 0 l 83 -15 l 12 52 q 35 95 19 71 q 72 146 50 119 q 120 203 94 174 q 175 262 146 233 q 233 320 203 292 q 291 374 262 348 l 153 665 l 59 678 l 71 736 l 214 751 l 269 698 l 388 445 q 566 669 500 564 l 498 678 l 509 736 l 610 751 l 680 684 q 644 618 670 656 q 581 539 617 581 q 504 454 545 497 q 421 374 462 412 l 565 71 l 660 58 l 648 0 z "},"z":{"ha":646,"x_min":15,"x_max":641,"o":"m 496 682 l 212 682 l 157 564 l 87 581 l 121 736 l 641 736 l 634 680 l 153 54 l 444 54 l 499 172 l 569 155 l 535 0 l 15 0 l 22 64 l 496 682 z "},"f":{"ha":439,"x_min":-189,"x_max":585,"o":"m 318 736 l 463 736 l 456 679 l 310 679 l 212 -32 q 135 -241 192 -173 q -33 -310 79 -310 q -116 -301 -74 -310 q -189 -278 -157 -292 l -158 -203 q -69 -227 -119 -216 q 24 -237 -18 -237 q 62 -162 45 -208 q 87 -50 78 -116 l 188 679 l 60 679 l 67 736 l 197 736 q 287 975 223 891 q 460 1059 351 1059 q 525 1051 492 1059 q 585 1027 557 1042 l 557 952 q 483 977 526 966 q 403 987 441 987 q 354 891 376 954 q 320 751 331 829 l 318 736 z "},"A":{"ha":787,"x_min":-84,"x_max":767,"o":"m 691 71 l 767 58 l 755 0 l 473 0 l 467 58 l 563 71 l 519 289 l 197 289 l 90 71 l 186 58 l 175 0 l -79 0 l -84 58 l -9 71 l 413 918 l 514 918 l 691 71 m 421 749 l 229 356 l 506 356 l 428 749 l 421 749 z "},"B":{"ha":774,"x_min":5,"x_max":732,"o":"m 11 0 l 5 58 l 101 71 l 210 846 l 115 860 l 126 918 l 454 918 q 667 864 601 918 q 717 700 732 811 q 663 574 707 628 q 553 491 618 519 l 553 480 q 668 405 629 462 q 695 268 707 348 q 592 72 677 143 q 375 0 506 0 l 11 0 m 326 67 q 437 76 385 67 q 526 100 489 85 q 547 166 536 127 q 566 260 557 204 q 529 395 577 347 q 385 443 480 443 l 282 443 l 229 67 l 326 67 m 382 510 q 461 517 419 510 q 540 536 503 524 q 567 604 553 563 q 586 687 581 646 q 560 808 597 765 q 414 850 524 850 l 340 850 l 292 510 l 382 510 z "},"C":{"ha":789,"x_min":22,"x_max":779,"o":"m 55 410 q 213 800 90 667 q 539 932 336 932 q 671 922 608 932 q 779 892 734 911 l 768 709 l 708 709 l 677 847 q 605 860 649 855 q 509 865 561 865 q 401 849 455 865 q 304 806 348 833 q 235 652 264 741 q 191 463 205 564 l 179 373 q 226 136 158 220 q 430 52 294 52 q 558 71 491 52 q 690 123 625 89 l 680 71 q 535 9 616 33 q 377 -15 455 -15 q 104 78 185 -15 q 47 349 22 170 l 55 410 z "},"D":{"ha":905,"x_min":5,"x_max":878,"o":"m 11 0 l 5 58 l 101 71 l 210 846 l 115 860 l 126 918 l 496 918 q 789 814 700 918 q 850 503 878 710 l 842 444 q 693 117 812 233 q 394 0 575 0 l 11 0 m 376 67 q 476 78 426 67 q 568 107 527 89 q 654 234 614 154 q 710 422 694 315 l 719 486 q 676 756 743 661 q 457 850 609 850 l 340 850 l 229 67 l 376 67 z "},"E":{"ha":790,"x_min":1,"x_max":762,"o":"m 279 446 l 225 67 l 572 67 l 643 205 l 697 196 l 652 0 l 7 0 l 1 58 l 97 71 l 206 846 l 111 860 l 122 918 l 762 918 l 749 714 l 690 714 l 663 850 l 336 850 l 288 513 l 550 513 l 577 606 l 633 593 l 598 352 l 539 349 l 539 446 l 279 446 z "},"F":{"ha":702,"x_min":5,"x_max":718,"o":"m 126 918 l 718 918 l 705 714 l 647 714 l 620 850 l 340 850 l 292 513 l 507 513 l 534 606 l 590 593 l 555 352 l 496 349 l 496 446 l 283 446 l 230 71 l 359 58 l 348 0 l 11 0 l 5 58 l 101 71 l 210 846 l 115 860 l 126 918 z "},"G":{"ha":865,"x_min":24,"x_max":819,"o":"m 510 438 l 813 438 l 819 380 l 723 367 l 682 71 q 529 8 611 31 q 372 -15 448 -15 q 109 77 193 -15 q 48 342 24 168 l 57 403 q 220 796 94 659 q 547 932 345 932 q 676 923 614 932 q 787 894 739 913 l 776 711 l 716 711 l 686 847 q 606 861 650 856 q 519 865 562 865 q 408 849 464 865 q 307 806 352 833 q 238 654 267 739 q 194 463 209 570 l 182 373 q 235 136 162 219 q 418 52 308 52 q 486 59 450 52 q 553 76 521 65 l 594 367 l 498 380 l 510 438 z "},"H":{"ha":984,"x_min":3,"x_max":984,"o":"m 123 918 l 427 918 l 432 860 l 336 846 l 290 521 l 713 521 l 760 846 l 664 860 l 675 918 l 979 918 l 984 860 l 888 846 l 779 71 l 875 58 l 863 0 l 560 0 l 555 58 l 650 71 l 704 454 l 281 454 l 227 71 l 323 58 l 311 0 l 8 0 l 3 58 l 98 71 l 208 846 l 112 860 l 123 918 z "},"I":{"ha":432,"x_min":3,"x_max":432,"o":"m 208 846 l 112 860 l 123 918 l 427 918 l 432 860 l 336 846 l 227 71 l 323 58 l 311 0 l 8 0 l 3 58 l 98 71 l 208 846 z "},"J":{"ha":604,"x_min":24,"x_max":613,"o":"m 271 918 l 608 918 l 613 860 l 517 846 l 431 228 q 349 47 414 110 q 176 -15 284 -15 q 96 -5 136 -15 q 24 21 56 4 l 35 197 l 94 197 l 125 59 q 153 54 136 56 q 187 52 170 52 q 221 55 203 52 q 257 66 239 58 q 283 141 271 94 q 305 250 296 189 l 389 846 l 259 860 l 271 918 z "},"K":{"ha":863,"x_min":3,"x_max":897,"o":"m 311 0 l 8 0 l 3 58 l 98 71 l 208 846 l 112 860 l 123 918 l 427 918 l 432 860 l 336 846 l 279 444 l 288 439 l 713 846 l 640 860 l 651 918 l 891 918 l 897 860 l 835 846 l 490 520 l 750 71 l 826 58 l 814 0 l 646 0 l 397 432 l 260 302 l 227 71 l 323 58 l 311 0 z "},"L":{"ha":662,"x_min":4,"x_max":602,"o":"m 556 0 l 9 0 l 4 58 l 100 71 l 209 846 l 113 860 l 125 918 l 448 918 l 454 860 l 338 846 l 228 67 l 473 67 l 547 212 l 602 203 l 556 0 z "},"M":{"ha":1267,"x_min":3,"x_max":1267,"o":"m 277 0 l 8 0 l 3 58 l 98 71 l 208 846 l 112 860 l 123 918 l 414 918 l 597 211 l 608 211 l 977 918 l 1261 918 l 1267 860 l 1171 846 l 1062 71 l 1158 58 l 1146 0 l 843 0 l 838 58 l 933 71 l 1038 814 l 1027 814 l 595 0 l 524 0 l 309 814 l 298 814 l 193 71 l 289 58 l 277 0 z "},"N":{"ha":1034,"x_min":3,"x_max":1048,"o":"m 773 918 l 1043 918 l 1048 860 l 953 846 l 833 0 l 639 0 l 311 826 l 300 826 l 193 71 l 289 58 l 277 0 l 8 0 l 3 58 l 98 71 l 208 846 l 112 860 l 123 918 l 412 918 l 741 92 l 751 92 l 857 846 l 762 860 l 773 918 z "},"O":{"ha":913,"x_min":29,"x_max":884,"o":"m 382 -15 q 111 78 193 -15 q 54 356 29 172 l 62 410 q 217 803 99 673 q 530 932 335 932 q 800 840 717 932 q 857 561 884 747 l 850 508 q 697 118 814 252 q 382 -15 580 -15 m 724 531 q 689 780 746 695 q 497 865 632 865 q 397 849 448 865 q 304 806 346 833 q 239 646 266 732 q 200 477 212 560 l 188 387 q 231 140 166 228 q 415 52 295 52 q 517 68 467 52 q 608 113 568 85 q 672 268 644 181 q 711 441 699 354 l 724 531 z "},"P":{"ha":750,"x_min":5,"x_max":764,"o":"m 348 0 l 11 0 l 5 58 l 101 71 l 210 846 l 115 860 l 126 918 l 470 918 q 693 861 623 918 q 747 684 764 804 q 639 490 729 562 q 422 418 549 418 l 279 418 l 230 71 l 359 58 l 348 0 m 398 485 q 485 491 442 485 q 564 511 528 498 q 591 576 578 537 q 611 656 605 615 q 578 802 625 753 q 425 850 532 850 l 340 850 l 288 485 l 398 485 z "},"Q":{"ha":920,"x_min":27,"x_max":882,"o":"m 381 -15 q 109 79 191 -15 q 53 356 27 172 l 60 410 q 215 799 96 665 q 528 932 333 932 q 799 840 715 932 q 856 561 882 747 l 848 508 q 777 247 827 355 q 648 74 726 138 l 648 73 q 692 -31 672 2 q 745 -64 711 -64 q 793 -60 769 -64 q 839 -47 817 -56 l 829 -95 q 771 -121 804 -111 q 705 -132 738 -132 q 604 -104 642 -132 q 542 -7 566 -77 l 536 11 q 381 -15 465 -15 m 723 531 q 687 784 747 702 q 496 865 627 865 q 392 849 444 865 q 296 806 339 833 q 238 654 264 741 q 199 477 212 568 l 186 387 q 182 351 184 368 q 181 321 181 334 q 255 383 211 362 q 354 404 299 404 q 515 356 463 404 q 597 219 568 308 l 625 138 q 674 277 650 194 q 710 441 699 360 l 723 531 m 487 151 q 421 290 456 243 q 317 336 385 336 q 233 311 265 336 q 196 244 201 285 q 196 213 193 227 q 203 187 198 200 q 287 86 230 121 q 414 52 344 52 q 469 56 444 52 q 516 67 494 60 l 487 151 z "},"R":{"ha":814,"x_min":5,"x_max":762,"o":"m 314 0 l 11 0 l 5 58 l 101 71 l 210 846 l 115 860 l 126 918 l 464 918 q 669 858 602 918 q 720 680 736 798 q 658 532 708 595 q 537 439 608 468 l 532 426 l 679 71 l 762 58 l 750 0 l 574 0 l 401 418 l 279 418 l 230 71 l 326 58 l 314 0 m 373 485 q 464 494 418 485 q 541 518 509 503 q 569 584 557 547 q 586 657 581 621 q 558 803 600 756 q 405 850 517 850 l 340 850 l 288 485 l 373 485 z "},"S":{"ha":710,"x_min":22,"x_max":675,"o":"m 422 517 q 590 379 540 441 q 627 234 640 317 q 515 54 612 122 q 272 -15 418 -15 q 132 -4 198 -15 q 22 28 66 7 l 33 203 l 100 203 l 131 68 q 197 56 161 60 q 274 52 233 52 q 365 59 320 52 q 446 78 410 66 q 473 129 459 97 q 492 191 487 161 q 467 297 500 247 q 313 426 433 347 q 132 571 172 515 q 102 701 92 626 q 212 869 117 806 q 455 932 307 932 q 577 923 518 932 q 675 897 635 913 l 663 714 l 604 714 l 573 850 q 512 861 549 857 q 439 865 475 865 q 351 858 395 865 q 274 840 308 851 q 249 787 258 812 q 236 736 240 762 q 265 641 229 685 q 422 517 301 596 z "},"T":{"ha":704,"x_min":26,"x_max":764,"o":"m 343 850 l 136 850 l 85 721 l 26 721 l 64 918 l 764 918 l 745 721 l 692 721 l 671 850 l 472 850 l 362 71 l 458 58 l 446 0 l 143 0 l 138 58 l 233 71 l 343 850 z "},"U":{"ha":939,"x_min":89,"x_max":972,"o":"m 410 860 l 314 846 l 248 370 q 277 133 226 214 q 445 52 329 52 q 548 67 498 52 q 631 104 597 81 q 680 215 657 146 q 712 353 703 283 l 781 846 l 686 860 l 697 918 l 967 918 l 972 860 l 877 846 l 808 351 q 683 73 781 161 q 406 -15 585 -15 q 161 70 234 -15 q 113 333 89 155 l 185 846 l 90 860 l 101 918 l 404 918 l 410 860 z "},"V":{"ha":835,"x_min":39,"x_max":915,"o":"m 741 846 l 644 860 l 656 918 l 909 918 l 915 860 l 840 846 l 423 0 l 294 0 l 115 846 l 39 860 l 51 918 l 334 918 l 339 860 l 243 846 l 385 123 l 396 123 l 741 846 z "},"W":{"ha":1375,"x_min":27,"x_max":1459,"o":"m 39 918 l 321 918 l 327 860 l 231 846 l 367 157 l 378 157 l 717 918 l 846 918 l 966 157 l 977 157 l 1284 846 l 1189 860 l 1200 918 l 1454 918 l 1459 860 l 1384 846 l 998 0 l 869 0 l 749 751 l 738 751 l 404 0 l 273 0 l 102 846 l 27 860 l 39 918 z "},"X":{"ha":850,"x_min":-41,"x_max":874,"o":"m 631 918 l 869 918 l 874 860 l 800 846 l 499 475 l 709 71 l 785 58 l 773 0 l 498 0 l 493 58 l 570 68 l 402 393 l 391 393 l 138 68 l 216 58 l 204 0 l -35 0 l -41 58 l 34 71 l 359 476 l 167 846 l 91 860 l 102 918 l 374 918 l 379 860 l 305 849 l 457 558 l 468 558 l 696 849 l 619 860 l 631 918 z "},"Y":{"ha":736,"x_min":3,"x_max":852,"o":"m 14 918 l 286 918 l 292 860 l 216 849 l 394 490 l 405 490 l 672 848 l 593 860 l 605 918 l 846 918 l 852 860 l 777 846 l 435 391 l 390 71 l 486 58 l 474 0 l 171 0 l 165 58 l 261 71 l 306 392 l 79 846 l 3 860 l 14 918 z "},"Z":{"ha":774,"x_min":9,"x_max":753,"o":"m 753 918 l 753 854 l 164 77 l 166 67 l 557 67 l 625 212 l 686 203 l 640 0 l 9 0 l 9 64 l 597 841 l 595 850 l 232 850 l 165 706 l 103 714 l 149 918 l 753 918 z "},"i":{"ha":432,"x_min":99,"x_max":357,"o":"m 111 736 l 267 751 l 322 698 l 235 71 l 330 58 l 319 0 l 163 -15 l 108 38 l 195 665 l 99 678 l 111 736 m 221 956 q 235 1018 221 991 q 269 1044 249 1044 q 330 1030 303 1044 q 357 997 357 1017 q 342 934 357 960 q 309 909 328 909 q 247 923 272 909 q 221 956 221 937 z "},"`":{"ha":500,"x_min":136,"x_max":365,"o":"m 361 865 l 301 858 l 136 1081 l 142 1126 l 262 1133 l 365 886 l 361 865 z "},"´":{"ha":570,"x_min":136,"x_max":434,"o":"m 139 886 l 311 1133 l 434 1126 l 427 1081 l 186 858 l 136 865 l 139 886 z "},"˜":{"ha":771,"x_min":102,"x_max":669,"o":"m 104 886 q 160 997 115 960 q 275 1035 205 1035 q 348 1021 312 1035 q 416 990 383 1007 q 479 959 450 973 q 532 945 509 945 q 581 967 560 945 q 609 1034 602 989 l 669 1040 l 665 1008 q 612 900 654 939 q 502 860 570 860 q 431 874 469 860 q 357 905 394 888 q 288 936 321 922 q 230 949 254 949 q 206 946 218 949 q 184 935 194 943 q 168 913 175 927 q 157 876 160 899 l 102 869 l 104 886 z "},",":{"ha":433,"x_min":61,"x_max":271,"o":"m 73 54 q 79 95 73 75 q 94 131 84 115 q 115 156 103 146 q 142 165 127 165 q 195 157 168 165 q 240 130 222 149 q 252 115 246 124 q 261 94 257 106 q 268 65 265 82 q 271 26 271 49 q 263 -48 271 -14 q 236 -115 255 -83 q 186 -179 218 -147 q 105 -248 154 -212 l 61 -196 q 154 -109 127 -146 q 182 -43 182 -71 q 171 -22 182 -30 q 144 -11 160 -15 q 94 15 114 -2 q 73 54 73 32 z "},"-":{"ha":688,"x_min":109,"x_max":593,"o":"m 123 452 l 593 452 l 578 353 l 109 353 l 123 452 z "},".":{"ha":410,"x_min":61,"x_max":241,"o":"m 61 48 q 66 93 61 72 q 79 131 71 115 q 99 156 87 146 q 123 165 110 165 q 169 160 148 165 q 207 146 191 155 q 232 126 222 138 q 241 101 241 114 q 236 56 241 77 q 222 19 231 35 q 202 -6 214 3 q 177 -15 191 -15 q 132 -10 153 -15 q 95 3 111 -5 q 70 23 79 12 q 61 48 61 35 z "},"?":{"ha":734,"x_min":122,"x_max":677,"o":"m 369 514 q 297 448 321 476 q 271 391 274 420 q 281 345 267 360 q 326 330 296 330 q 362 333 345 330 q 393 340 380 336 q 422 351 409 345 l 413 289 q 377 272 397 279 q 336 260 359 265 q 284 255 313 255 q 227 263 254 255 q 181 288 200 271 q 153 330 162 305 q 149 390 144 355 q 162 438 152 414 q 189 487 172 462 q 233 538 207 511 q 297 595 260 564 l 413 690 q 472 740 448 718 q 512 782 496 762 q 537 822 528 802 q 549 863 545 841 q 546 910 552 888 q 520 949 539 932 q 470 975 502 966 q 391 985 439 985 q 333 981 359 985 q 289 974 307 978 q 252 963 267 969 l 183 804 l 122 815 l 149 1003 q 224 1031 182 1019 q 311 1050 261 1042 q 421 1059 360 1059 q 537 1047 488 1059 q 619 1010 587 1034 q 664 950 651 985 q 671 869 677 915 q 654 800 666 831 q 621 739 642 768 q 566 678 599 709 q 484 608 532 647 l 369 514 m 137 54 q 142 98 137 77 q 157 135 148 119 q 179 161 166 151 q 205 170 191 170 q 251 165 230 170 q 288 150 272 159 q 313 127 304 140 q 321 100 321 115 q 316 57 321 77 q 301 20 311 36 q 279 -5 292 4 q 252 -15 267 -15 q 207 -9 228 -15 q 170 5 186 -4 q 146 27 155 14 q 137 54 137 39 z "},"!":{"ha":420,"x_min":81,"x_max":376,"o":"m 81 54 q 87 98 81 77 q 101 135 92 119 q 123 161 111 151 q 150 170 136 170 q 195 165 174 170 q 232 150 216 159 q 257 127 248 140 q 266 100 266 115 q 260 57 266 77 q 246 20 255 36 q 224 -5 237 4 q 197 -15 211 -15 q 151 -9 172 -15 q 115 5 130 -4 q 90 27 99 14 q 81 54 81 39 m 229 1044 l 365 1059 l 376 1044 l 239 251 l 144 251 l 229 1044 z "},"'":{"ha":277,"x_min":47,"x_max":216,"o":"m 83 1044 l 216 1044 l 213 1016 l 138 785 l 47 785 l 83 1044 z "},"¡":{"ha":421,"x_min":43,"x_max":340,"o":"m 340 682 q 334 637 340 659 q 320 601 329 616 q 298 575 311 585 q 271 566 286 566 q 226 571 247 566 q 189 586 205 576 q 164 609 173 596 q 155 635 155 621 q 161 679 155 659 q 175 716 166 700 q 197 741 184 732 q 224 751 210 751 q 270 745 249 751 q 307 731 291 740 q 331 709 322 722 q 340 682 340 696 m 189 -295 l 55 -310 l 43 -295 l 178 485 l 274 485 l 189 -295 z "},"¿":{"ha":711,"x_min":39,"x_max":602,"o":"m 354 222 q 425 290 401 260 q 452 349 448 319 q 441 393 456 379 q 397 406 427 406 q 360 403 378 406 q 330 395 343 399 q 300 385 313 391 l 309 447 q 345 464 325 456 q 386 475 363 470 q 438 481 410 481 q 495 473 469 481 q 541 448 522 465 q 570 407 560 432 q 574 350 579 382 q 561 299 571 323 q 534 250 551 275 q 490 198 516 225 q 426 141 463 172 l 309 46 q 250 -5 275 18 q 210 -49 226 -28 q 185 -88 193 -69 q 174 -127 176 -107 q 177 -170 170 -150 q 203 -204 184 -189 q 254 -227 222 -218 q 333 -235 286 -235 q 391 -232 366 -235 q 435 -226 417 -229 q 471 -216 456 -222 l 542 -54 l 602 -66 l 576 -254 q 500 -282 542 -270 q 414 -301 463 -293 q 304 -310 364 -310 q 105 -263 170 -310 q 52 -125 39 -216 q 70 -59 57 -90 q 106 2 83 -28 q 161 62 129 31 q 238 128 194 92 l 354 222 m 587 682 q 581 637 587 659 q 567 601 576 616 q 545 575 557 585 q 518 566 532 566 q 473 571 494 566 q 436 586 452 576 q 411 609 420 596 q 402 635 402 621 q 408 679 402 659 q 422 716 413 700 q 444 741 431 732 q 471 751 457 751 q 517 745 496 751 q 553 731 538 740 q 578 709 569 722 q 587 682 587 696 z "},"\"":{"ha":500,"x_min":102,"x_max":452,"o":"m 138 1044 l 271 1044 l 267 1016 l 192 785 l 102 785 l 138 1044 m 319 1044 l 452 1044 l 449 1016 l 374 785 l 283 785 l 319 1044 z "},"@":{"ha":1263,"x_min":70,"x_max":1243,"o":"m 508 355 q 506 191 493 248 q 566 133 518 133 q 615 146 591 133 q 661 178 640 159 q 702 222 683 198 q 735 267 721 245 q 759 306 750 289 q 771 328 768 322 l 814 642 q 783 652 800 648 q 748 660 768 656 q 707 664 728 664 q 662 659 683 664 q 625 647 641 653 q 589 630 606 640 q 559 567 573 604 q 533 489 546 535 q 511 379 520 442 l 508 355 m 921 -112 q 810 -161 869 -140 q 691 -195 758 -180 q 547 -210 623 -210 q 408 -201 473 -210 q 287 -170 342 -191 q 189 -114 231 -149 q 119 -30 146 -79 q 81 86 92 20 q 79 237 70 153 q 121 431 90 340 q 202 600 153 522 q 315 739 251 677 q 455 843 379 800 q 618 909 532 886 q 796 932 704 932 q 996 902 910 932 q 1138 816 1082 871 q 1219 682 1194 760 q 1233 509 1243 604 q 1202 361 1224 425 q 1149 249 1180 297 q 1082 168 1119 201 q 1007 113 1045 134 q 932 82 969 92 q 864 69 895 71 l 764 60 l 741 113 l 759 241 q 745 218 755 234 q 719 181 734 201 q 682 139 703 161 q 635 100 661 118 q 579 71 610 83 q 515 60 549 60 q 447 73 476 60 q 399 114 417 85 q 375 186 381 142 q 378 295 370 231 l 386 358 q 422 500 396 434 q 488 615 448 566 q 585 693 529 665 q 711 721 641 721 q 793 712 752 721 q 867 694 833 704 q 941 668 905 682 l 865 128 q 938 146 900 131 q 1010 201 976 162 q 1070 308 1044 240 q 1108 481 1097 375 q 1042 762 1128 672 q 767 851 956 851 q 627 830 694 851 q 500 769 559 808 q 390 676 440 730 q 300 556 339 622 q 237 414 262 490 q 203 258 212 338 q 205 127 195 184 q 237 27 214 70 q 296 -46 260 -16 q 377 -94 332 -76 q 474 -121 422 -113 q 583 -129 526 -129 q 717 -117 654 -129 q 826 -92 779 -106 q 927 -54 881 -75 l 921 -112 z "},"à":{"ha":785,"x_min":43,"x_max":699,"o":"m 687 0 l 531 -15 l 476 38 l 494 167 q 372 35 441 84 q 233 -15 304 -15 q 82 50 121 -15 q 62 253 43 114 l 80 380 q 200 651 105 551 q 433 751 296 751 q 554 737 488 751 q 690 698 621 723 l 602 71 l 699 58 l 687 0 m 193 313 q 191 120 174 182 q 274 58 207 58 q 393 113 331 58 q 506 253 454 168 l 564 671 q 496 688 532 682 q 429 694 460 694 q 355 684 391 694 q 291 660 319 675 q 242 552 264 615 q 205 401 220 488 l 193 313 m 510 865 l 450 858 l 284 1081 l 291 1126 l 410 1133 l 513 886 l 510 865 z "},"á":{"ha":785,"x_min":43,"x_max":739,"o":"m 687 0 l 531 -15 l 476 38 l 494 167 q 372 35 441 84 q 233 -15 304 -15 q 82 50 121 -15 q 62 253 43 114 l 80 380 q 200 651 105 551 q 433 751 296 751 q 554 737 488 751 q 690 698 621 723 l 602 71 l 699 58 l 687 0 m 193 313 q 191 120 174 182 q 274 58 207 58 q 393 113 331 58 q 506 253 454 168 l 564 671 q 496 688 532 682 q 429 694 460 694 q 355 684 391 694 q 291 660 319 675 q 242 552 264 615 q 205 401 220 488 l 193 313 m 444 886 l 616 1133 l 739 1126 l 732 1081 l 491 858 l 441 865 l 444 886 z "},"è":{"ha":635,"x_min":39,"x_max":625,"o":"m 612 566 q 518 396 597 458 q 321 334 439 334 q 245 336 280 334 q 189 340 211 338 l 184 300 q 208 112 167 177 q 319 46 248 46 q 408 64 360 46 q 490 107 455 82 l 490 49 q 398 3 453 21 q 282 -15 344 -15 q 96 61 153 -15 q 60 291 39 137 l 69 354 q 187 643 94 536 q 416 751 279 751 q 575 701 526 751 q 612 566 625 652 m 294 656 q 236 541 262 610 q 197 395 210 472 q 272 392 235 393 q 345 391 309 391 q 401 398 374 391 q 450 418 429 405 q 472 475 464 446 q 486 544 481 505 q 473 651 496 612 q 395 690 450 690 q 344 681 370 690 q 294 656 317 672 m 485 865 l 425 858 l 259 1081 l 266 1126 l 385 1133 l 488 886 l 485 865 z "},"é":{"ha":635,"x_min":39,"x_max":714,"o":"m 612 566 q 518 396 597 458 q 321 334 439 334 q 245 336 280 334 q 189 340 211 338 l 184 300 q 208 112 167 177 q 319 46 248 46 q 408 64 360 46 q 490 107 455 82 l 490 49 q 398 3 453 21 q 282 -15 344 -15 q 96 61 153 -15 q 60 291 39 137 l 69 354 q 187 643 94 536 q 416 751 279 751 q 575 701 526 751 q 612 566 625 652 m 294 656 q 236 541 262 610 q 197 395 210 472 q 272 392 235 393 q 345 391 309 391 q 401 398 374 391 q 450 418 429 405 q 472 475 464 446 q 486 544 481 505 q 473 651 496 612 q 395 690 450 690 q 344 681 370 690 q 294 656 317 672 m 419 886 l 591 1133 l 714 1126 l 707 1081 l 466 858 l 416 865 l 419 886 z "},"ı":{"ha":432,"x_min":99,"x_max":330,"o":"m 111 736 l 267 751 l 322 698 l 235 71 l 330 58 l 319 0 l 163 -15 l 108 38 l 195 665 l 99 678 l 111 736 z "},"ì":{"ha":432,"x_min":78,"x_max":330,"o":"m 111 736 l 267 751 l 322 698 l 235 71 l 330 58 l 319 0 l 163 -15 l 108 38 l 195 665 l 99 678 l 111 736 m 304 865 l 243 858 l 78 1081 l 85 1126 l 204 1133 l 307 886 l 304 865 z "},"í":{"ha":432,"x_min":99,"x_max":532,"o":"m 111 736 l 267 751 l 322 698 l 235 71 l 330 58 l 319 0 l 163 -15 l 108 38 l 195 665 l 99 678 l 111 736 m 237 886 l 410 1133 l 532 1126 l 526 1081 l 284 858 l 234 865 l 237 886 z "},"#":{"ha":909,"x_min":27,"x_max":882,"o":"m 487 218 l 293 218 l 231 0 l 126 0 l 128 14 l 186 218 l 27 218 l 47 290 l 206 290 l 301 627 l 130 627 l 149 699 l 322 699 l 384 918 l 489 918 l 487 904 l 429 699 l 623 699 l 685 918 l 790 918 l 788 904 l 730 699 l 882 699 l 863 627 l 709 627 l 614 290 l 781 290 l 760 218 l 594 218 l 532 0 l 427 0 l 429 14 l 487 218 m 313 290 l 507 290 l 602 627 l 408 627 l 313 290 z "},"$":{"ha":734,"x_min":41,"x_max":694,"o":"m 441 517 q 609 379 559 441 q 646 234 659 317 q 534 54 631 122 q 361 -10 462 2 l 342 -153 l 257 -153 l 276 -15 q 151 -3 210 -14 q 41 28 85 7 l 52 203 l 119 203 l 150 68 q 216 56 180 60 q 286 52 249 52 l 338 422 l 332 426 q 151 571 191 515 q 121 701 111 626 q 231 869 136 806 q 409 929 304 918 l 427 1059 l 512 1059 l 494 932 q 595 923 547 930 q 694 897 654 913 l 682 714 l 623 714 l 592 850 q 531 861 568 857 q 485 865 508 863 l 436 520 q 441 517 439 518 m 384 59 q 465 78 429 66 q 492 129 478 97 q 511 191 506 161 q 486 297 519 247 q 414 367 465 327 l 371 57 l 384 59 m 370 858 q 293 840 327 851 q 268 787 277 812 q 255 736 259 762 q 283 640 248 685 q 359 574 306 614 l 399 862 q 370 858 385 861 z "},"%":{"ha":1105,"x_min":71,"x_max":1021,"o":"m 879 918 l 998 918 l 996 904 l 213 0 l 94 0 l 96 14 l 879 918 m 77 728 q 105 808 83 770 q 160 873 127 845 q 233 917 193 901 q 317 932 273 932 q 397 917 361 932 q 458 873 433 901 q 494 808 483 845 q 499 728 505 770 q 471 649 493 686 q 417 584 450 612 q 344 540 385 556 q 260 524 303 524 q 179 540 216 524 q 118 584 143 556 q 82 649 94 612 q 77 728 71 686 m 180 728 q 181 669 176 695 q 200 626 187 644 q 232 598 213 608 q 272 589 250 589 q 314 598 294 589 q 352 626 335 608 q 381 669 369 644 q 397 728 393 695 q 395 787 401 762 q 377 831 390 813 q 346 858 364 848 q 305 867 327 867 q 263 858 283 867 q 225 831 242 848 q 196 787 208 813 q 180 728 184 762 m 593 189 q 621 269 599 231 q 675 334 642 306 q 748 377 707 361 q 832 393 788 393 q 912 377 876 393 q 973 334 948 361 q 1009 269 998 306 q 1015 189 1021 231 q 986 110 1008 146 q 932 45 964 73 q 859 1 899 17 q 774 -15 818 -15 q 694 1 730 -15 q 633 45 658 17 q 597 110 608 73 q 593 189 587 146 m 695 189 q 696 130 691 156 q 715 86 702 104 q 746 59 728 68 q 787 50 765 50 q 829 59 808 50 q 867 86 850 68 q 896 130 884 104 q 912 189 908 156 q 910 248 916 222 q 892 292 905 274 q 860 319 879 309 q 820 328 842 328 q 778 319 798 328 q 740 292 757 309 q 711 248 723 274 q 695 189 699 222 z "},"&":{"ha":996,"x_min":9,"x_max":993,"o":"m 811 352 q 770 231 802 289 q 685 126 738 174 q 769 72 728 91 q 852 52 811 52 q 908 56 882 52 q 953 64 934 59 q 993 75 975 68 l 991 31 q 945 7 970 18 q 891 -8 922 -1 q 821 -15 860 -15 q 712 7 766 -15 q 606 67 659 28 q 462 7 541 28 q 292 -15 383 -15 q 167 -3 222 -15 q 77 33 113 9 q 25 95 41 58 q 16 184 9 133 l 18 194 q 48 280 24 241 q 104 353 71 319 q 178 413 138 386 q 258 463 218 440 q 225 527 240 495 q 201 589 211 559 q 188 647 191 619 q 187 698 184 674 l 189 712 q 219 793 195 753 q 283 864 243 833 q 380 913 323 895 q 507 932 436 932 q 607 918 565 932 q 674 880 648 904 q 709 826 699 857 q 715 762 720 795 l 713 751 q 682 672 707 708 q 617 602 657 635 q 522 535 576 568 q 404 467 468 503 q 513 312 458 385 q 623 183 568 239 q 671 262 652 218 q 696 357 690 305 l 702 395 l 612 418 l 622 464 l 829 479 l 811 352 m 318 52 q 442 68 384 52 q 547 115 500 84 q 419 250 481 174 q 296 415 357 327 q 243 378 268 399 q 200 332 219 357 q 167 277 180 307 q 149 212 154 247 l 148 200 q 153 140 144 168 q 185 93 163 113 q 240 63 207 74 q 318 52 274 52 m 583 746 q 581 793 586 771 q 562 831 576 814 q 528 856 549 847 q 478 865 507 865 q 439 863 456 865 q 409 859 422 861 q 382 852 394 856 q 355 818 367 838 q 333 777 343 801 q 319 722 323 753 l 318 710 q 316 664 315 686 q 325 617 318 641 q 345 569 332 594 q 373 517 357 545 q 451 565 414 540 q 515 617 487 590 q 560 673 543 644 q 581 731 577 701 l 583 746 z "},"(":{"ha":481,"x_min":74,"x_max":522,"o":"m 210 368 q 198 222 199 292 q 204 91 197 153 q 223 -24 211 29 q 249 -123 235 -78 q 331 -309 281 -227 l 262 -350 q 151 -156 197 -266 q 114 -53 131 -109 q 87 70 97 4 q 75 211 77 136 q 85 368 74 286 q 119 525 97 450 q 171 666 142 600 q 232 788 199 732 q 298 892 265 845 q 464 1086 374 1001 l 522 1045 q 387 859 449 964 q 333 761 360 814 q 282 645 306 707 q 239 514 258 583 q 210 368 220 444 z "},")":{"ha":473,"x_min":-61,"x_max":387,"o":"m 251 368 q 262 514 262 444 q 256 645 262 583 q 237 761 249 707 q 211 859 225 814 q 129 1045 178 964 l 197 1086 q 309 892 263 1001 q 346 788 329 845 q 373 666 363 732 q 385 525 383 600 q 375 368 387 450 q 341 211 363 286 q 289 70 318 136 q 228 -53 260 4 q 162 -156 195 -109 q -3 -350 85 -266 l -61 -309 q 73 -123 11 -227 q 127 -24 100 -78 q 178 91 154 29 q 221 222 201 153 q 251 368 240 292 z "},"*":{"ha":635,"x_min":109,"x_max":629,"o":"m 391 748 l 386 560 l 384 544 l 280 544 l 282 560 l 330 748 l 161 636 l 146 628 l 109 718 l 123 726 l 306 802 l 143 878 l 131 886 l 195 975 l 208 967 l 345 855 l 351 1043 l 353 1059 l 456 1059 l 454 1043 l 407 855 l 575 967 l 590 975 l 629 886 l 614 878 l 431 802 l 593 726 l 606 718 l 542 628 l 528 636 l 391 748 z "},"/":{"ha":596,"x_min":-34,"x_max":637,"o":"m 525 1044 l 637 1044 l 635 1031 l 77 -200 l -34 -200 l -33 -186 l 525 1044 z "},":":{"ha":463,"x_min":75,"x_max":328,"o":"m 75 48 q 79 93 75 72 q 93 131 84 115 q 112 156 101 146 q 137 165 123 165 q 183 160 161 165 q 220 146 204 155 q 245 126 236 138 q 254 101 254 114 q 250 56 254 77 q 236 19 245 35 q 216 -6 227 3 q 191 -15 204 -15 q 145 -10 166 -15 q 109 3 124 -5 q 84 23 93 12 q 75 48 75 35 m 148 568 q 153 613 148 591 q 166 650 157 634 q 185 675 174 666 q 210 685 197 685 q 256 680 235 685 q 293 666 277 675 q 318 645 309 657 q 328 621 328 633 q 323 575 328 596 q 309 538 318 554 q 289 514 300 523 q 264 505 277 505 q 218 509 239 505 q 182 523 197 514 q 157 543 166 532 q 148 568 148 554 z "},";":{"ha":476,"x_min":75,"x_max":340,"o":"m 161 567 q 165 612 161 591 q 179 649 170 633 q 198 675 187 665 q 223 684 210 684 q 269 679 248 684 q 306 665 290 674 q 331 645 322 656 q 340 620 340 633 q 336 574 340 595 q 322 538 331 553 q 302 513 313 522 q 277 504 290 504 q 231 509 252 504 q 195 522 210 513 q 170 542 179 531 q 161 567 161 553 m 87 54 q 92 95 87 75 q 107 131 98 115 q 129 156 117 146 q 155 165 141 165 q 209 157 182 165 q 254 130 235 149 q 265 115 260 124 q 275 94 271 106 q 281 65 279 82 q 284 26 284 49 q 276 -48 284 -14 q 250 -115 269 -83 q 199 -179 231 -147 q 119 -248 168 -212 l 75 -196 q 168 -109 140 -146 q 195 -43 195 -71 q 184 -22 195 -30 q 158 -11 174 -15 q 107 15 127 -2 q 87 54 87 32 z "},"[":{"ha":472,"x_min":54,"x_max":499,"o":"m 256 1137 l 499 1137 l 490 1072 l 360 1072 l 176 -245 l 305 -245 l 296 -310 l 54 -310 l 256 1137 z "},"\\":{"ha":570,"x_min":115,"x_max":441,"o":"m 441 -186 l 439 -200 l 328 -200 l 115 1031 l 117 1044 l 229 1044 l 441 -186 z "},"]":{"ha":472,"x_min":-27,"x_max":418,"o":"m 215 -310 l -27 -310 l -18 -245 l 111 -245 l 295 1072 l 166 1072 l 175 1137 l 418 1137 l 215 -310 z "},"{":{"ha":556,"x_min":88,"x_max":576,"o":"m 97 446 l 162 446 q 222 463 203 446 q 248 521 241 479 l 307 947 q 332 1023 313 988 q 380 1083 351 1058 q 446 1123 409 1109 q 524 1137 483 1137 l 576 1137 l 568 1072 l 553 1072 q 461 1045 492 1072 q 422 957 431 1019 l 366 562 q 349 492 360 519 q 325 447 338 464 q 295 424 311 431 q 264 417 279 417 l 264 410 q 293 404 279 410 q 316 380 307 397 q 328 336 325 363 q 325 266 331 308 l 269 -130 q 283 -218 260 -191 q 368 -245 307 -245 l 382 -245 l 374 -310 l 321 -310 q 247 -296 280 -310 q 192 -256 214 -281 q 161 -196 170 -231 q 157 -120 151 -161 l 217 307 q 209 365 223 348 q 153 381 195 381 l 88 381 l 97 446 z "},"}":{"ha":555,"x_min":-20,"x_max":467,"o":"m 458 381 l 393 381 q 333 365 352 381 q 308 307 314 348 l 248 -120 q 223 -196 242 -161 q 175 -256 204 -231 q 110 -296 146 -281 q 32 -310 73 -310 l -20 -310 l -12 -245 l 3 -245 q 94 -218 64 -245 q 134 -130 125 -191 l 189 266 q 206 336 195 308 q 231 380 217 363 q 260 404 244 397 q 291 410 275 410 l 292 417 q 262 424 276 417 q 240 447 249 431 q 228 492 231 464 q 231 562 224 519 l 286 957 q 272 1045 295 1019 q 187 1072 249 1072 l 173 1072 l 182 1137 l 235 1137 q 308 1123 275 1137 q 363 1083 341 1109 q 395 1023 385 1058 q 398 947 404 988 l 338 521 q 347 463 332 479 q 402 446 361 446 l 467 446 l 458 381 z "}," ":{"ha":373,"x_min":0,"x_max":0,"o":""},"£":{"ha":786,"x_min":53,"x_max":725,"o":"m 96 455 l 173 475 q 166 533 169 507 q 164 584 164 559 q 165 634 163 608 q 171 688 167 659 q 200 781 178 737 q 262 859 222 825 q 360 912 302 892 q 496 932 418 932 q 594 924 551 932 q 666 904 637 915 q 725 876 700 892 l 699 688 l 646 688 l 619 854 q 583 863 604 859 q 540 869 566 866 q 482 871 515 871 q 426 867 452 871 q 380 857 399 863 q 337 844 357 851 q 319 804 328 826 q 305 758 312 784 q 294 697 298 731 q 287 590 286 642 q 294 482 287 538 l 590 482 l 578 414 l 304 414 q 312 332 310 370 q 307 254 314 294 q 289 177 300 212 q 267 118 277 142 q 241 67 254 90 l 545 67 l 620 212 l 675 203 l 629 0 l 58 0 l 53 58 l 134 69 q 154 109 143 84 q 173 161 163 130 q 189 230 182 191 q 193 271 192 251 q 193 313 194 292 q 189 359 192 335 q 182 414 186 384 l 101 414 l 96 455 z "},"¥":{"ha":736,"x_min":3,"x_max":852,"o":"m 74 260 l 288 260 l 305 388 l 89 388 l 102 460 l 271 460 l 79 846 l 3 860 l 14 918 l 286 918 l 292 860 l 216 849 l 394 490 l 405 490 l 672 848 l 593 860 l 605 918 l 846 918 l 852 860 l 777 846 l 487 460 l 646 460 l 633 388 l 434 388 l 416 260 l 618 260 l 604 188 l 406 188 l 390 71 l 486 58 l 474 0 l 171 0 l 165 58 l 261 71 l 277 188 l 60 188 l 74 260 z "},"§":{"ha":796,"x_min":75,"x_max":715,"o":"m 499 665 q 594 605 552 634 q 663 545 635 576 q 702 477 690 513 q 707 395 714 441 q 663 297 699 338 q 576 227 627 257 q 612 163 602 197 q 616 85 623 130 q 527 -44 605 -2 q 315 -87 448 -87 q 213 -80 258 -87 q 138 -63 169 -73 q 75 -39 101 -53 l 115 137 l 176 137 l 176 -10 q 214 -18 192 -15 q 260 -24 233 -22 q 322 -26 288 -26 q 384 -22 356 -26 q 433 -13 412 -18 q 478 1 458 -7 q 490 21 485 10 q 499 42 495 31 q 506 66 504 54 q 499 117 510 94 q 460 166 488 141 q 387 218 432 191 q 277 281 342 246 q 193 333 229 307 q 132 387 156 358 q 99 450 109 416 q 96 527 90 484 q 140 628 104 585 q 226 703 176 671 q 195 758 204 728 q 191 825 186 787 q 214 893 196 861 q 268 951 233 926 q 359 991 304 977 q 494 1006 414 1006 q 589 999 548 1006 q 659 983 630 992 q 715 960 691 973 l 674 784 l 612 784 l 612 931 q 577 938 597 935 q 537 943 560 941 q 485 945 513 945 q 422 942 450 945 q 374 933 394 938 q 333 921 351 928 q 321 901 327 911 q 311 881 315 892 q 304 859 306 870 q 309 810 300 831 q 341 767 318 789 q 403 722 364 746 q 499 665 442 698 m 369 370 q 458 318 418 341 q 528 271 498 294 q 574 319 557 292 q 597 381 591 346 q 592 432 601 409 q 559 476 583 454 q 498 522 536 498 q 408 576 460 546 q 333 621 367 600 q 271 662 298 641 q 228 613 242 638 q 208 551 213 587 q 211 504 204 525 q 236 462 217 483 q 288 419 255 441 q 369 370 320 397 z "},"¢":{"ha":655,"x_min":50,"x_max":654,"o":"m 291 -14 q 171 9 220 -13 q 94 70 122 31 q 58 164 66 109 q 61 291 50 220 l 71 354 q 114 512 84 443 q 187 631 144 581 q 283 709 230 680 q 398 747 337 738 l 422 918 l 489 918 l 465 751 q 548 744 513 749 q 607 732 583 738 q 654 715 634 724 l 616 555 l 557 548 l 557 671 q 532 679 547 675 q 501 685 519 682 q 456 689 482 688 l 366 47 q 435 61 402 51 q 492 81 467 71 q 545 107 520 93 l 545 49 q 496 23 524 35 q 437 3 472 13 q 358 -12 402 -7 l 336 -166 l 270 -166 l 291 -14 m 184 300 q 181 196 175 240 q 205 122 188 152 q 248 74 222 92 q 300 50 273 57 l 390 686 q 354 677 370 682 q 326 668 338 673 q 301 656 313 663 q 258 584 278 625 q 223 498 240 549 q 196 381 205 447 l 184 300 z "},"µ":{"ha":856,"x_min":45,"x_max":756,"o":"m 169 -295 l 45 -310 l 178 665 l 82 678 l 94 736 l 250 751 l 305 698 l 242 240 q 236 151 235 186 q 245 95 237 116 q 270 66 254 75 q 309 58 286 58 q 384 78 347 58 q 453 126 420 97 q 514 188 486 155 q 564 251 542 222 l 621 665 l 525 678 l 536 736 l 693 751 l 748 698 l 661 71 l 756 58 l 745 0 q 715 -7 730 -5 q 685 -13 701 -11 q 654 -15 669 -15 q 564 27 589 -15 q 551 163 538 69 q 524 131 540 150 q 487 93 507 113 q 444 54 467 73 q 393 19 420 35 q 338 -5 367 4 q 278 -15 309 -15 q 242 -10 258 -15 q 213 3 225 -5 q 192 21 200 11 q 180 41 184 31 l 173 38 l 169 -295 z "},"¶":{"ha":772,"x_min":88,"x_max":788,"o":"m 352 329 q 244 346 295 329 q 157 398 193 362 q 105 493 121 435 q 100 634 88 551 q 139 756 109 703 q 215 845 170 810 q 319 899 261 881 q 444 918 378 918 l 783 918 l 788 860 l 692 846 l 589 111 q 550 -39 577 22 q 485 -136 523 -99 q 399 -189 446 -173 q 300 -205 352 -205 q 227 -200 259 -205 q 171 -189 194 -195 q 123 -173 144 -182 l 134 -117 q 178 -128 154 -123 q 225 -135 198 -132 q 283 -138 252 -138 q 346 -125 317 -138 q 396 -82 374 -111 q 434 -6 418 -52 q 459 106 450 40 l 564 850 l 469 850 l 396 329 l 352 329 z "},"ß":{"ha":826,"x_min":-186,"x_max":751,"o":"m 71 736 l 200 736 l 206 779 q 238 896 215 844 q 300 984 262 947 q 393 1040 339 1020 q 517 1059 446 1059 q 611 1048 568 1059 q 684 1010 654 1036 q 728 943 714 985 q 734 841 742 901 q 711 752 727 792 q 670 677 694 712 q 615 611 646 642 q 547 549 584 579 q 575 524 560 537 q 604 496 588 512 q 637 463 620 480 q 683 410 661 437 q 721 351 705 382 q 744 282 736 319 q 745 203 751 245 q 717 113 739 153 q 662 44 696 73 q 583 0 629 16 q 483 -15 538 -15 q 405 -8 438 -15 q 350 9 372 -1 q 305 33 323 19 l 327 189 l 390 189 l 405 62 q 426 54 414 57 q 452 48 437 50 q 490 46 468 46 q 528 50 511 46 q 557 57 545 53 q 581 68 570 62 q 597 96 589 80 q 609 126 603 109 q 618 166 615 144 q 599 279 627 224 q 517 391 571 334 q 477 430 496 412 q 444 462 458 448 q 411 490 426 477 l 417 534 q 494 606 460 571 q 551 675 528 640 q 589 747 575 711 q 609 824 604 784 q 588 956 620 914 q 485 998 555 998 q 439 993 459 998 q 406 982 420 988 q 379 966 391 975 q 360 917 370 945 q 343 856 352 892 q 327 770 334 819 l 214 -32 q 180 -168 202 -114 q 126 -253 157 -222 q 55 -297 94 -285 q -31 -310 15 -310 q -94 -305 -66 -310 q -143 -294 -123 -300 q -186 -278 -167 -287 l -156 -203 q -96 -220 -127 -213 q -38 -232 -70 -227 q 26 -237 -5 -237 q 51 -193 39 -220 q 72 -135 61 -170 q 90 -50 82 -100 l 192 679 l 64 679 l 71 736 z "},"æ":{"ha":1054,"x_min":22,"x_max":1038,"o":"m 1025 554 q 995 465 1019 505 q 933 395 971 424 q 845 350 896 366 q 736 334 795 334 q 660 336 694 334 q 604 340 625 338 l 598 300 q 597 181 588 230 q 627 103 606 133 q 676 60 648 73 q 732 46 704 46 q 797 56 766 46 q 852 77 828 65 q 905 107 880 90 l 905 49 q 849 17 881 31 q 784 -5 822 5 q 696 -15 745 -15 q 557 17 610 -15 q 484 111 505 50 q 440 73 467 95 q 377 32 413 52 q 295 -1 340 12 q 197 -15 250 -15 q 122 -3 156 -15 q 65 30 88 8 q 32 83 43 52 q 28 155 22 115 q 67 258 36 212 q 154 335 98 303 q 293 384 210 367 q 490 401 376 401 l 500 476 q 506 570 508 530 q 487 636 503 610 q 441 676 471 663 q 361 690 410 690 q 320 688 339 690 q 285 684 300 686 q 252 680 267 682 l 191 522 l 132 522 l 159 714 q 220 732 186 724 q 290 745 250 739 q 376 751 330 751 q 525 728 465 751 q 610 654 584 705 q 712 727 656 703 q 831 751 768 751 q 988 702 938 751 q 1025 554 1038 654 m 252 46 q 329 60 291 46 q 397 91 366 73 q 448 124 427 108 q 475 145 469 140 q 475 291 463 208 l 481 340 q 348 332 403 340 q 258 315 292 325 q 191 290 216 304 q 175 258 182 276 q 162 221 168 243 q 153 173 156 200 q 156 117 149 140 q 178 77 163 93 q 212 54 193 61 q 252 46 231 46 m 708 656 q 670 588 688 627 q 638 506 654 554 q 612 395 622 458 q 641 394 624 395 q 677 392 658 393 q 718 391 697 391 q 759 391 739 391 q 803 395 783 391 q 836 404 823 399 q 865 418 852 410 q 879 451 872 433 q 890 488 884 467 q 900 536 897 510 q 900 611 905 581 q 882 658 895 641 q 850 683 869 675 q 809 690 831 690 q 770 684 788 690 q 738 673 751 679 q 708 656 722 665 z "},"«":{"ha":729,"x_min":102,"x_max":648,"o":"m 330 78 l 102 363 l 108 404 l 416 690 l 473 690 l 471 675 l 228 391 l 226 377 l 389 93 l 387 78 l 330 78 m 512 108 l 369 372 l 372 396 l 590 660 l 648 660 l 646 645 l 496 384 l 572 123 l 570 108 l 512 108 z "},"­":{"ha":610,"x_min":109,"x_max":528,"o":"m 129 451 l 528 479 l 508 378 l 109 350 l 129 451 z "},"»":{"ha":729,"x_min":81,"x_max":627,"o":"m 256 78 l 258 93 l 501 377 l 503 391 l 340 675 l 342 690 l 399 690 l 627 404 l 621 363 l 313 78 l 256 78 m 81 108 l 83 123 l 234 384 l 157 645 l 159 660 l 217 660 l 360 396 l 357 372 l 139 108 l 81 108 z "},"π":{"ha":1012,"x_min":166,"x_max":1001,"o":"m 176 -15 l 170 33 q 227 112 193 60 q 299 238 262 163 q 373 411 337 313 q 433 627 408 508 q 409 628 420 628 q 388 629 397 629 q 334 626 359 629 q 289 613 310 623 q 250 585 268 603 q 215 536 232 567 l 166 548 q 204 632 182 595 q 255 696 225 670 q 323 737 284 723 q 415 751 363 751 q 475 749 441 751 q 546 745 509 747 q 622 740 583 743 q 697 735 661 737 q 767 731 734 732 q 826 729 800 729 q 867 730 850 729 q 895 732 884 731 q 918 736 908 734 l 950 785 l 1001 770 q 980 714 993 743 q 945 661 968 685 q 889 622 923 637 q 803 607 854 607 l 798 607 l 729 115 l 852 92 l 825 0 q 802 -7 814 -5 q 779 -13 792 -11 q 751 -15 765 -15 q 689 -4 718 -15 q 642 26 661 6 q 614 77 623 47 q 611 146 606 106 l 676 611 q 593 616 634 614 q 514 623 553 619 q 465 406 492 505 q 409 228 438 307 q 352 92 380 149 q 300 0 323 34 l 176 -15 z "}," ":{"ha":746,"x_min":0,"x_max":0,"o":""},"‐":{"ha":610,"x_min":109,"x_max":528,"o":"m 129 451 l 528 479 l 508 378 l 109 350 l 129 451 z "},"‒":{"ha":746,"x_min":69,"x_max":699,"o":"m 83 501 l 699 501 l 685 402 l 69 402 l 83 501 z "},"–":{"ha":706,"x_min":14,"x_max":692,"o":"m 27 437 l 692 437 l 679 345 l 14 345 l 27 437 z "},"—":{"ha":1380,"x_min":14,"x_max":1367,"o":"m 27 437 l 1367 437 l 1353 345 l 14 345 l 27 437 z "},"―":{"ha":1651,"x_min":14,"x_max":1638,"o":"m 28 437 l 1638 437 l 1624 345 l 14 345 l 28 437 z "},"‘":{"ha":377,"x_min":109,"x_max":316,"o":"m 293 782 q 282 741 290 760 q 264 707 275 722 q 240 683 253 692 q 215 675 228 675 q 165 682 191 675 q 125 707 140 690 q 117 722 121 713 q 111 741 113 730 q 109 769 109 753 q 112 807 109 785 q 125 867 116 838 q 152 927 134 897 q 202 990 171 958 q 281 1059 233 1022 l 316 1010 q 231 931 256 965 q 202 871 205 897 q 210 852 201 859 q 233 841 218 845 q 279 818 262 833 q 293 782 296 802 z "},"’":{"ha":377,"x_min":61,"x_max":271,"o":"m 84 952 q 95 993 87 974 q 113 1027 102 1013 q 137 1051 124 1042 q 162 1059 149 1059 q 212 1052 186 1059 q 252 1027 237 1044 q 266 993 260 1015 q 265 927 271 970 q 252 867 261 896 q 225 807 243 838 q 175 744 206 777 q 96 675 144 712 l 61 724 q 146 803 121 769 q 175 863 172 838 q 168 882 176 876 q 144 893 159 889 q 98 917 115 901 q 84 952 81 932 z "},"‚":{"ha":377,"x_min":61,"x_max":271,"o":"m 84 49 q 95 90 87 71 q 113 124 102 109 q 137 148 124 139 q 162 156 149 156 q 212 149 186 156 q 252 123 237 141 q 266 90 260 112 q 265 24 271 67 q 252 -37 261 -7 q 225 -96 243 -66 q 175 -159 206 -127 q 96 -229 144 -191 l 61 -179 q 146 -100 121 -134 q 175 -40 172 -66 q 168 -21 176 -28 q 144 -10 159 -14 q 98 13 115 -3 q 84 49 81 29 z "},"“":{"ha":614,"x_min":109,"x_max":553,"o":"m 293 782 q 282 741 290 760 q 264 707 275 722 q 240 683 253 692 q 215 675 228 675 q 165 682 191 675 q 125 707 140 690 q 117 722 121 713 q 111 741 113 730 q 109 769 109 753 q 112 807 109 785 q 125 867 116 838 q 152 927 134 897 q 202 990 171 958 q 281 1059 233 1022 l 316 1010 q 231 931 256 965 q 202 871 205 897 q 210 852 201 859 q 233 841 218 845 q 279 818 262 833 q 293 782 296 802 m 530 782 q 519 741 527 760 q 501 707 512 722 q 478 683 490 692 q 452 675 465 675 q 402 682 428 675 q 363 707 377 690 q 355 722 359 713 q 349 741 351 730 q 346 769 347 753 q 349 807 346 785 q 362 867 353 838 q 390 927 371 897 q 439 990 408 958 q 518 1059 470 1022 l 553 1010 q 468 931 494 965 q 439 871 443 897 q 447 852 438 859 q 470 841 456 845 q 516 818 500 833 q 530 782 533 802 z "},"”":{"ha":614,"x_min":61,"x_max":509,"o":"m 84 952 q 95 993 87 974 q 113 1027 102 1013 q 137 1051 124 1042 q 162 1059 149 1059 q 212 1052 186 1059 q 252 1027 237 1044 q 266 993 260 1015 q 265 927 271 970 q 252 867 261 896 q 225 807 243 838 q 175 744 206 777 q 96 675 144 712 l 61 724 q 146 803 121 769 q 175 863 172 838 q 168 882 176 876 q 144 893 159 889 q 98 917 115 901 q 84 952 81 932 m 321 952 q 332 993 324 974 q 351 1027 340 1013 q 374 1051 361 1042 q 399 1059 387 1059 q 449 1052 424 1059 q 489 1027 475 1044 q 503 993 498 1015 q 503 927 509 970 q 490 867 498 896 q 462 807 481 838 q 413 744 444 777 q 334 675 382 712 l 298 724 q 384 803 358 769 q 412 863 409 838 q 405 882 414 876 q 382 893 396 889 q 335 917 352 901 q 321 952 319 932 z "},"„":{"ha":615,"x_min":61,"x_max":509,"o":"m 84 49 q 95 90 87 71 q 113 124 102 109 q 137 148 124 139 q 162 156 149 156 q 212 149 186 156 q 252 123 237 141 q 266 90 260 112 q 265 24 271 67 q 252 -37 261 -7 q 225 -96 243 -66 q 175 -159 206 -127 q 96 -229 144 -191 l 61 -179 q 146 -100 121 -134 q 175 -40 172 -66 q 168 -21 176 -28 q 144 -10 159 -14 q 98 13 115 -3 q 84 49 81 29 m 322 49 q 333 90 325 71 q 351 124 340 109 q 375 148 362 139 q 400 156 387 156 q 450 149 425 156 q 490 123 475 141 q 504 90 498 112 q 503 24 509 67 q 490 -37 499 -7 q 463 -96 481 -66 q 413 -159 444 -127 q 334 -229 382 -191 l 299 -179 q 384 -100 359 -134 q 413 -40 410 -66 q 406 -21 414 -28 q 382 -10 397 -14 q 336 13 353 -3 q 322 49 319 29 z "},"†":{"ha":696,"x_min":68,"x_max":676,"o":"m 98 736 l 331 722 l 363 1044 l 486 1059 l 425 722 l 676 736 l 646 621 l 412 635 l 336 0 l 214 -15 l 319 635 l 68 621 l 98 736 z "},"‡":{"ha":734,"x_min":61,"x_max":714,"o":"m 640 309 l 406 322 l 374 0 l 252 -15 l 313 322 l 61 309 l 91 423 l 325 410 l 328 525 l 357 635 l 106 621 l 136 736 l 369 722 l 401 1044 l 524 1059 l 463 722 l 714 736 l 684 621 l 450 635 l 448 525 l 418 410 l 669 423 l 640 309 z "},"•":{"ha":576,"x_min":149,"x_max":468,"o":"m 149 395 q 159 472 149 435 q 184 536 168 509 q 222 581 200 564 q 268 597 243 597 q 347 587 310 597 q 410 562 383 578 q 452 524 437 545 q 468 477 468 502 q 458 401 468 437 q 433 337 449 365 q 395 294 416 310 q 349 277 373 277 q 270 287 307 277 q 207 312 234 296 q 164 350 180 328 q 149 395 149 371 z "},"‰":{"ha":1569,"x_min":71,"x_max":1485,"o":"m 879 918 l 998 918 l 996 904 l 213 0 l 94 0 l 96 14 l 879 918 m 77 728 q 105 808 83 770 q 159 873 127 845 q 233 917 192 901 q 317 932 273 932 q 397 917 361 932 q 458 873 433 901 q 494 808 483 845 q 499 728 505 770 q 471 649 493 686 q 416 584 449 612 q 343 540 384 556 q 260 524 303 524 q 179 540 216 524 q 118 584 143 556 q 82 649 94 612 q 77 728 71 686 m 180 728 q 181 669 176 695 q 200 626 187 644 q 232 598 213 608 q 272 589 250 589 q 314 598 294 589 q 352 626 335 608 q 381 669 369 644 q 397 728 393 695 q 395 787 401 762 q 377 831 390 813 q 346 858 364 848 q 305 867 327 867 q 263 858 283 867 q 225 831 242 848 q 196 787 208 813 q 180 728 184 762 m 593 189 q 621 269 599 231 q 675 334 642 306 q 748 377 707 361 q 832 393 788 393 q 912 377 876 393 q 973 334 948 361 q 1009 269 998 306 q 1015 189 1021 231 q 986 110 1008 146 q 932 45 964 73 q 859 1 899 17 q 774 -15 818 -15 q 694 1 730 -15 q 633 45 658 17 q 597 110 608 73 q 593 189 587 146 m 695 189 q 696 130 691 156 q 715 86 702 104 q 746 59 728 68 q 787 50 765 50 q 829 59 808 50 q 867 86 850 68 q 896 130 884 104 q 912 189 908 156 q 910 248 916 222 q 892 292 905 274 q 860 319 879 309 q 820 328 842 328 q 778 319 798 328 q 740 292 757 309 q 711 248 723 274 q 695 189 699 222 m 1057 189 q 1084 269 1063 231 q 1139 334 1106 306 q 1212 377 1171 361 q 1296 393 1252 393 q 1376 377 1339 393 q 1437 334 1412 361 q 1473 269 1462 306 q 1478 189 1485 231 q 1450 110 1472 146 q 1396 45 1428 73 q 1322 1 1363 17 q 1238 -15 1282 -15 q 1158 1 1194 -15 q 1097 45 1122 17 q 1061 110 1072 73 q 1057 189 1050 146 m 1159 189 q 1160 130 1155 156 q 1179 86 1166 104 q 1210 59 1192 68 q 1251 50 1229 50 q 1293 59 1272 50 q 1331 86 1314 68 q 1360 130 1348 104 q 1376 189 1372 156 q 1374 248 1380 222 q 1356 292 1369 274 q 1324 319 1343 309 q 1284 328 1305 328 q 1241 319 1262 328 q 1204 292 1221 309 q 1175 248 1187 274 q 1159 189 1163 222 z "},"′":{"ha":332,"x_min":81,"x_max":291,"o":"m 178 918 l 291 918 l 287 889 l 151 617 l 81 617 l 178 918 z "},"″":{"ha":502,"x_min":81,"x_max":461,"o":"m 178 918 l 291 918 l 287 889 l 151 617 l 81 617 l 178 918 m 349 918 l 461 918 l 457 889 l 321 617 l 252 617 l 349 918 z "},"‹":{"ha":555,"x_min":102,"x_max":473,"o":"m 330 78 l 102 363 l 108 404 l 416 690 l 473 690 l 471 675 l 228 391 l 226 377 l 389 93 l 387 78 l 330 78 z "},"›":{"ha":555,"x_min":81,"x_max":453,"o":"m 81 78 l 83 93 l 327 377 l 329 391 l 165 675 l 168 690 l 225 690 l 453 404 l 447 363 l 139 78 l 81 78 z "},"←":{"ha":1436,"x_min":34,"x_max":1382,"o":"m 1369 345 l 245 345 l 321 268 l 273 220 l 34 376 l 39 406 l 321 562 l 355 514 l 258 437 l 1382 437 l 1369 345 z "},"↑":{"ha":497,"x_min":102,"x_max":470,"o":"m 102 -280 l 259 843 l 171 758 l 129 798 l 321 1059 l 351 1059 l 470 798 l 417 758 l 352 844 l 194 -280 l 102 -280 z "},"→":{"ha":1436,"x_min":34,"x_max":1382,"o":"m 47 437 l 1171 437 l 1095 514 l 1143 562 l 1382 406 l 1377 376 l 1095 220 l 1061 268 l 1158 345 l 34 345 l 47 437 z "},"↓":{"ha":497,"x_min":27,"x_max":395,"o":"m 395 1059 l 237 -64 l 326 22 l 368 -19 l 176 -280 l 146 -280 l 27 -19 l 80 22 l 145 -64 l 303 1059 l 395 1059 z "},"∕":{"ha":871,"x_min":7,"x_max":871,"o":"m 800 918 l 871 918 l 869 904 l 78 0 l 7 0 l 9 14 l 800 918 z "},"∙":{"ha":589,"x_min":146,"x_max":484,"o":"m 150 395 q 170 472 155 435 q 204 536 184 509 q 249 581 224 564 q 297 597 273 597 q 374 587 339 597 q 434 562 410 578 q 471 524 458 545 q 480 477 484 502 q 460 401 475 437 q 425 337 446 365 q 381 294 405 310 q 332 277 357 277 q 255 287 290 277 q 196 312 220 296 q 159 350 172 328 q 150 395 146 371 z "},"√":{"ha":897,"x_min":88,"x_max":985,"o":"m 449 178 l 901 1187 l 985 1187 l 983 1173 l 451 -15 l 374 0 l 204 648 l 104 612 l 88 677 l 297 751 l 449 178 z "},"∞":{"ha":1427,"x_min":64,"x_max":1350,"o":"m 737 439 q 832 529 787 492 q 922 589 877 566 q 1014 623 967 612 q 1113 633 1061 633 q 1216 617 1170 633 q 1293 572 1262 602 q 1337 498 1323 542 q 1342 397 1350 454 q 1298 263 1331 321 q 1216 168 1265 205 q 1106 111 1167 130 q 980 92 1046 92 q 878 105 924 92 q 795 143 832 118 q 729 204 758 168 q 677 286 699 240 q 586 198 631 235 q 493 138 541 162 q 396 103 446 115 q 293 92 347 92 q 189 107 234 92 q 115 153 144 123 q 75 228 86 182 q 72 333 64 273 q 120 461 82 406 q 211 555 158 517 q 327 613 264 593 q 451 633 390 633 q 550 620 507 633 q 626 583 593 608 q 687 522 660 558 q 737 439 713 486 m 326 172 q 409 185 370 172 q 486 221 448 197 q 560 278 524 245 q 636 352 597 311 q 586 441 610 404 q 534 504 562 479 q 476 541 507 528 q 406 553 444 553 q 338 543 369 553 q 285 520 307 532 q 237 488 258 506 q 222 452 230 472 q 210 413 216 435 q 200 363 203 390 q 198 288 194 323 q 216 228 201 253 q 258 187 231 202 q 326 172 285 172 m 1082 553 q 1001 541 1039 553 q 925 506 962 529 q 852 449 888 483 q 777 372 816 416 q 829 284 804 321 q 881 221 854 246 q 937 184 907 197 q 1004 172 967 172 q 1075 180 1044 172 q 1128 201 1106 189 q 1175 230 1154 213 q 1190 271 1183 248 q 1204 318 1197 291 q 1216 380 1211 345 q 1217 448 1221 416 q 1197 503 1213 479 q 1153 539 1181 526 q 1082 553 1124 553 z "},"∫":{"ha":515,"x_min":-122,"x_max":637,"o":"m 262 -32 q 229 -166 251 -113 q 175 -252 206 -220 q 103 -297 143 -283 q 15 -310 62 -310 q -40 -306 -16 -310 q -83 -298 -65 -302 q -122 -285 -105 -292 l -92 -210 q -35 -224 -64 -218 q 20 -233 -10 -229 q 79 -237 50 -237 q 102 -194 91 -220 q 121 -139 111 -172 q 137 -58 130 -105 l 283 985 q 315 1101 293 1053 q 368 1179 336 1149 q 438 1222 399 1208 q 522 1235 477 1235 q 567 1231 546 1235 q 604 1222 588 1227 q 637 1210 622 1217 l 603 1135 q 555 1148 580 1142 q 508 1158 534 1154 q 456 1162 481 1162 q 437 1122 446 1146 q 421 1070 430 1102 q 407 996 413 1039 l 262 -32 z "},"■":{"ha":935,"x_min":41,"x_max":880,"o":"m 144 736 l 880 736 l 777 0 l 41 0 l 144 736 z "},"▲":{"ha":997,"x_min":-27,"x_max":929,"o":"m -27 0 l 586 956 l 929 0 l -27 0 z "},"△":{"ha":997,"x_min":-27,"x_max":929,"o":"m -27 0 l 586 956 l 929 0 l -27 0 m 777 104 l 553 724 l 155 104 l 777 104 z "},"▶":{"ha":1125,"x_min":61,"x_max":1084,"o":"m 196 955 l 1084 477 l 61 -1 l 196 955 z "},"▷":{"ha":1125,"x_min":61,"x_max":1084,"o":"m 196 956 l 1084 477 l 61 -1 l 196 956 m 189 167 l 853 477 l 276 788 l 189 167 z "},"▼":{"ha":983,"x_min":81,"x_max":1038,"o":"m 1038 918 l 425 -38 l 81 918 l 1038 918 z "},"▽":{"ha":983,"x_min":81,"x_max":1038,"o":"m 1038 918 l 425 -38 l 81 918 l 1038 918 m 234 814 l 457 193 l 855 814 l 234 814 z "},"◀":{"ha":1104,"x_min":41,"x_max":1063,"o":"m 928 -1 l 41 477 l 1063 956 l 928 -1 z "},"◁":{"ha":1104,"x_min":41,"x_max":1063,"o":"m 928 -1 l 41 477 l 1063 956 l 928 -1 m 936 788 l 272 477 l 848 167 l 936 788 z "},"◆":{"ha":1068,"x_min":7,"x_max":1048,"o":"m 7 374 l 600 895 l 1048 374 l 454 -146 l 7 374 z "},"◊":{"ha":866,"x_min":61,"x_max":805,"o":"m 61 408 l 69 466 l 490 1044 l 568 1044 l 805 493 l 797 435 l 389 -139 l 287 -139 l 61 408 m 693 437 l 694 444 l 494 920 l 173 464 l 172 457 l 369 -36 l 693 437 z "},"₡":{"ha":797,"x_min":40,"x_max":787,"o":"m 528 1024 l 592 1024 l 590 1010 l 555 932 q 613 930 587 932 q 663 924 640 928 l 707 1024 l 771 1024 l 769 1010 l 726 912 q 751 905 740 909 q 771 899 763 901 l 787 892 l 776 709 l 716 709 l 699 843 l 699 843 q 696 844 696 843 l 351 62 q 393 54 371 56 q 438 52 414 52 q 535 63 489 52 q 618 87 582 74 q 698 123 661 103 l 688 71 q 600 28 647 47 q 504 -2 558 12 q 385 -15 449 -15 q 351 -14 368 -15 q 319 -12 334 -14 l 284 -90 l 220 -90 l 222 -77 l 254 -2 q 204 12 228 3 q 159 34 180 21 l 105 -90 l 41 -90 l 43 -77 l 109 75 q 56 184 71 117 q 54 349 40 251 l 63 410 q 202 779 96 648 q 486 929 308 909 l 528 1024 m 214 158 q 292 83 242 110 l 633 857 q 586 863 612 861 q 526 865 559 865 l 214 158 m 304 802 q 262 708 282 760 q 228 601 245 663 q 199 463 210 539 l 186 373 q 181 305 181 336 q 185 246 181 274 l 456 861 q 392 845 420 855 q 344 826 363 836 q 304 802 321 814 z "},"₤":{"ha":786,"x_min":54,"x_max":725,"o":"m 629 0 l 58 0 l 54 46 l 132 65 l 132 66 q 154 109 143 84 q 173 161 163 130 q 189 230 182 191 q 193 276 192 254 q 193 323 194 298 l 94 323 l 89 363 l 186 389 l 178 446 q 170 506 173 477 l 79 506 l 74 546 l 164 570 q 164 627 163 599 q 171 688 166 655 q 200 781 178 737 q 262 859 222 825 q 360 912 302 892 q 496 932 418 932 q 594 924 551 932 q 666 904 637 915 q 725 876 700 892 l 699 688 l 646 688 l 619 854 q 583 863 604 859 q 540 869 566 866 q 482 871 515 871 q 426 867 452 871 q 380 857 399 863 q 337 844 357 851 q 319 804 328 826 q 305 758 312 784 q 294 697 298 731 q 288 634 290 665 q 287 573 286 604 l 561 573 l 549 506 l 292 506 q 293 491 292 498 q 296 475 294 483 q 302 431 299 452 q 307 391 305 410 l 536 391 l 523 323 l 312 323 q 311 289 313 306 q 307 254 310 272 q 289 177 300 212 q 267 118 277 142 q 241 67 254 90 l 538 67 l 619 212 l 674 203 l 629 0 z "},"₫":{"ha":697,"x_min":119,"x_max":636,"o":"m 492 324 l 558 310 l 543 264 l 425 256 l 412 331 q 388 307 401 319 q 355 282 374 294 q 313 263 336 271 q 262 256 290 256 q 198 267 227 256 q 151 301 170 278 q 126 359 133 324 q 125 441 119 394 l 131 481 q 159 587 139 539 q 210 668 179 634 q 281 720 240 701 q 372 738 321 738 q 415 735 393 738 q 459 728 438 732 l 465 774 l 318 774 l 327 838 l 474 838 l 477 863 l 412 878 l 427 922 l 577 932 l 564 838 l 636 838 l 627 774 l 555 774 l 492 324 m 216 450 q 216 389 211 414 q 232 348 220 363 q 260 326 243 333 q 295 319 277 319 q 337 328 317 319 q 374 347 358 336 q 409 374 392 359 l 409 372 l 450 663 q 407 670 432 666 q 354 673 382 673 q 317 669 334 673 q 289 659 300 665 q 265 645 275 652 q 249 606 256 628 q 235 560 242 587 q 223 500 228 534 l 216 450 m 150 177 l 175 201 l 484 201 l 478 161 l 454 136 l 144 136 l 150 177 z "},"€":{"ha":829,"x_min":4,"x_max":836,"o":"m 43 551 l 142 551 q 308 836 194 740 q 597 932 422 932 q 698 925 654 932 q 773 908 743 918 q 836 884 809 897 l 808 684 l 747 684 l 736 847 q 692 856 718 852 q 640 862 671 859 q 567 865 608 865 q 483 856 520 865 q 418 836 445 847 q 362 806 386 823 q 327 736 345 775 q 295 656 312 703 q 265 551 279 610 l 673 551 l 653 497 l 254 497 q 252 480 253 488 q 250 463 251 472 l 247 443 l 634 443 l 614 389 l 239 389 l 237 373 q 241 224 225 286 q 291 125 256 163 q 375 70 326 87 q 481 52 425 52 q 579 63 532 52 q 663 87 626 74 q 742 123 705 103 l 732 71 q 642 28 691 47 q 542 -2 599 12 q 416 -15 484 -15 q 281 2 344 -15 q 174 62 218 20 q 111 174 130 104 q 105 349 91 243 l 111 389 l 4 389 l 24 443 l 118 443 l 128 497 l 22 497 l 43 551 z "},"₱":{"ha":798,"x_min":5,"x_max":825,"o":"m 66 623 l 173 623 l 184 703 l 77 703 l 87 764 l 193 764 l 205 849 l 115 871 l 125 918 l 465 918 q 654 881 585 918 q 739 764 724 845 l 825 764 l 815 703 l 743 703 q 741 686 742 694 q 739 667 741 677 q 735 645 737 656 q 729 623 732 633 l 805 623 l 794 563 l 702 563 q 582 455 659 493 q 408 418 505 418 l 273 418 l 224 68 l 354 46 l 345 0 l 9 0 l 5 46 l 95 68 l 165 563 l 55 563 l 66 623 m 606 656 q 607 680 607 669 q 607 703 608 692 l 313 703 l 302 623 l 600 623 q 603 639 602 631 q 606 656 604 648 m 393 485 q 462 490 431 485 q 515 500 493 494 q 561 516 541 507 l 567 528 q 574 543 570 534 q 582 563 578 551 l 294 563 l 283 485 l 393 485 m 334 850 l 321 764 l 593 764 q 532 827 574 804 q 419 850 489 850 l 334 850 z "},"₲":{"ha":858,"x_min":38,"x_max":812,"o":"m 642 1024 l 716 1024 l 714 1010 l 675 922 q 723 913 702 918 q 758 904 743 908 q 787 894 774 899 l 775 711 l 722 711 l 685 847 q 675 850 681 848 q 662 852 669 851 q 646 855 655 854 l 304 77 q 355 58 330 64 q 405 52 381 52 q 483 59 446 52 q 553 77 520 66 l 593 363 l 503 385 l 513 438 l 808 438 l 812 385 l 722 363 l 681 71 q 591 28 640 47 q 490 -2 548 12 q 361 -15 431 -15 q 313 -13 337 -15 q 267 -6 290 -11 l 219 -115 l 144 -115 l 146 -102 l 197 14 q 125 58 157 31 q 73 125 94 85 q 45 219 52 165 q 47 342 38 273 l 56 403 q 116 633 75 534 q 220 799 157 732 q 364 899 282 865 q 546 932 446 932 q 600 930 574 932 l 642 1024 m 517 865 q 427 855 468 865 q 356 832 386 844 q 293 799 321 817 q 254 709 273 760 q 220 603 237 665 q 193 463 203 541 l 181 373 q 177 290 175 328 q 189 221 180 252 q 212 165 198 190 q 245 121 227 140 l 571 863 q 517 865 545 865 z "},"₵":{"ha":789,"x_min":33,"x_max":779,"o":"m 489 1044 l 562 1044 l 546 932 q 644 926 601 932 q 718 912 687 920 q 779 892 753 903 l 768 709 l 715 709 l 677 847 q 642 854 663 851 q 598 861 625 858 q 536 865 572 863 l 422 52 q 525 64 477 53 q 610 88 574 75 q 690 123 653 104 l 680 71 q 605 34 647 52 q 520 5 569 19 q 413 -13 471 -8 l 396 -134 l 323 -134 l 340 -14 q 210 8 270 -12 q 110 70 151 28 q 51 181 68 113 q 47 349 33 249 l 55 410 q 192 779 88 648 q 473 928 295 909 l 489 1044 m 290 800 q 252 707 270 759 q 219 601 236 662 q 191 463 202 539 l 178 373 q 176 243 168 298 q 209 151 185 189 q 270 90 233 113 q 350 58 306 67 l 463 863 q 391 848 423 858 q 337 827 359 838 q 290 800 311 814 z "},"ℓ":{"ha":734,"x_min":70,"x_max":702,"o":"m 210 350 q 187 346 197 347 q 165 345 177 345 q 124 349 142 345 q 94 359 106 354 q 70 374 80 366 l 75 419 q 99 412 86 414 q 126 406 111 408 q 161 404 142 404 q 190 407 175 404 q 218 415 204 409 l 255 677 q 286 785 263 737 q 342 865 308 832 q 421 915 376 898 q 519 932 466 932 q 658 886 614 932 q 688 757 702 839 q 649 658 679 707 q 573 564 619 610 q 466 476 526 518 q 337 395 406 433 l 311 204 q 307 124 304 155 q 321 76 310 93 q 351 52 332 58 q 391 46 369 46 q 433 50 412 46 q 469 59 453 54 q 504 73 487 65 l 496 29 q 449 7 475 16 q 399 -8 427 -1 q 338 -15 370 -15 q 268 -6 300 -15 q 215 24 237 2 q 185 84 194 46 q 185 183 177 123 l 210 350 m 564 743 q 565 800 568 776 q 550 840 561 824 q 524 864 540 856 q 491 871 509 871 q 462 869 475 871 q 440 864 449 867 q 422 857 430 861 q 406 814 414 839 q 391 763 398 793 q 378 692 383 732 l 348 472 q 430 528 393 498 q 494 591 467 557 q 539 662 522 625 q 564 743 557 700 z "},"₧":{"ha":1678,"x_min":5,"x_max":1627,"o":"m 1417 421 q 1497 373 1461 396 q 1558 323 1533 350 q 1595 262 1584 296 q 1600 184 1606 229 q 1568 103 1594 140 q 1502 40 1543 66 q 1407 0 1461 14 q 1289 -15 1353 -15 q 1216 -10 1249 -15 q 1158 2 1183 -5 q 1116 16 1133 9 q 1090 27 1099 23 q 1065 15 1081 22 q 1030 1 1050 7 q 986 -11 1010 -6 q 936 -15 962 -15 q 850 -3 886 -15 q 794 38 814 9 q 768 112 774 66 q 772 227 763 158 l 835 679 l 741 679 q 701 567 730 616 q 627 485 671 518 q 530 435 584 452 q 417 418 476 418 l 273 418 l 224 68 l 354 46 l 345 0 l 9 0 l 5 46 l 95 68 l 205 849 l 115 871 l 125 918 l 465 918 q 670 874 599 918 q 744 736 741 830 l 843 736 l 863 876 l 994 932 l 966 736 l 1174 736 l 1166 679 l 958 679 l 896 236 q 891 142 888 179 q 905 84 895 105 q 931 54 915 62 q 964 46 947 46 q 1001 50 983 46 q 1035 59 1019 54 q 1064 71 1050 64 q 1086 83 1077 77 l 1097 195 l 1153 195 l 1174 62 q 1206 54 1187 57 q 1246 48 1223 50 q 1301 46 1270 46 q 1355 49 1330 46 q 1398 56 1379 52 q 1437 65 1419 60 q 1452 87 1444 75 q 1464 112 1458 97 q 1472 144 1470 126 q 1467 200 1477 176 q 1432 248 1456 225 q 1372 293 1409 270 q 1289 343 1336 315 q 1222 384 1254 363 q 1168 430 1191 405 q 1135 485 1146 454 q 1129 556 1124 515 q 1153 625 1134 590 q 1208 687 1172 659 q 1298 733 1244 715 q 1430 751 1353 751 q 1514 744 1478 751 q 1576 728 1551 736 q 1627 705 1605 718 l 1610 541 l 1555 541 l 1533 676 q 1501 683 1518 680 q 1463 688 1485 686 q 1414 690 1442 690 q 1364 687 1387 690 q 1326 680 1342 684 q 1293 671 1308 676 q 1277 650 1284 661 q 1265 627 1271 640 q 1257 598 1259 613 q 1261 549 1253 570 q 1289 507 1269 527 q 1341 467 1309 488 q 1417 421 1373 446 m 393 485 q 460 489 429 485 q 512 498 490 492 q 559 511 538 503 q 578 554 569 531 q 593 600 585 574 q 606 656 602 627 q 573 801 618 752 q 419 850 528 850 l 334 850 l 283 485 l 393 485 z "},"⁰":{"ha":423,"x_min":25,"x_max":397,"o":"m 168 728 q 101 738 130 728 q 55 769 73 747 q 31 826 37 791 q 33 911 25 861 l 38 946 q 111 1138 58 1074 q 248 1202 164 1202 q 320 1192 290 1202 q 368 1159 350 1181 q 392 1102 387 1137 q 390 1019 397 1067 l 385 983 q 311 789 364 850 q 168 728 258 728 m 298 1000 q 301 1073 304 1045 q 291 1117 299 1101 q 268 1139 282 1133 q 237 1144 254 1144 q 199 1135 216 1144 q 170 1106 182 1126 q 148 1055 157 1086 q 132 977 138 1023 l 125 929 q 120 861 119 888 q 130 817 122 833 q 152 793 138 800 q 185 785 166 785 q 221 793 205 785 q 251 821 238 802 q 274 873 264 841 q 291 953 284 905 l 298 1000 z "},"⁴":{"ha":388,"x_min":7,"x_max":345,"o":"m 320 736 l 102 736 l 102 783 l 182 794 l 189 845 l 10 845 l 7 888 l 234 1195 l 320 1195 l 99 903 l 197 903 l 211 1003 l 299 1003 l 285 903 l 343 903 l 345 855 l 277 844 l 270 794 l 334 783 l 320 736 z "},"⁵":{"ha":383,"x_min":9,"x_max":361,"o":"m 144 728 q 92 732 116 728 q 49 743 67 737 q 9 758 27 749 l 23 858 l 77 863 l 87 795 q 104 789 94 792 q 124 786 112 787 q 151 785 136 785 q 218 806 190 785 q 252 873 246 828 q 235 936 258 915 q 170 957 212 957 q 137 954 153 957 q 108 947 121 950 q 80 937 93 943 l 41 977 l 85 1195 l 361 1195 l 351 1122 l 143 1122 l 118 1005 q 153 1013 131 1009 q 204 1017 174 1017 q 263 1009 235 1017 q 310 985 290 1002 q 338 943 329 968 q 342 881 347 917 q 319 818 337 846 q 275 769 302 789 q 215 739 249 749 q 144 728 181 728 z "},"⁶":{"ha":402,"x_min":24,"x_max":361,"o":"m 33 929 q 67 1042 41 992 q 129 1128 92 1093 q 210 1183 165 1164 q 301 1202 255 1202 q 325 1200 314 1202 q 345 1198 336 1199 q 361 1194 354 1196 l 354 1141 q 337 1143 346 1142 q 319 1144 330 1143 q 298 1144 309 1144 q 239 1131 267 1144 q 188 1096 210 1118 q 150 1044 165 1074 q 130 981 134 1015 q 146 989 136 985 q 170 999 156 994 q 202 1006 184 1003 q 240 1009 220 1009 q 294 999 271 1009 q 333 970 317 989 q 354 927 348 952 q 356 872 360 902 q 337 813 351 840 q 298 768 322 787 q 242 738 275 749 q 170 728 210 728 q 97 741 126 728 q 50 779 67 755 q 28 834 33 802 q 29 905 24 867 l 33 929 m 267 863 q 253 928 273 905 q 197 951 233 951 q 169 949 182 951 q 145 943 155 946 q 123 935 133 939 l 120 912 q 129 818 113 851 q 184 785 146 785 q 241 808 220 785 q 267 863 262 830 z "},"⁷":{"ha":369,"x_min":39,"x_max":379,"o":"m 91 1055 l 39 1057 l 58 1195 l 379 1195 l 373 1149 l 137 736 l 52 736 l 283 1124 l 118 1124 l 91 1055 z "},"⁸":{"ha":388,"x_min":5,"x_max":365,"o":"m 64 1077 q 80 1124 67 1101 q 115 1163 93 1146 q 167 1191 137 1181 q 235 1202 197 1202 q 333 1175 300 1202 q 357 1099 365 1147 q 345 1063 355 1079 q 321 1033 335 1046 q 289 1009 307 1019 q 254 991 272 998 q 293 968 275 981 q 323 939 311 955 q 340 905 335 924 q 342 863 345 886 q 323 809 338 834 q 284 766 309 785 q 227 738 260 748 q 150 728 193 728 q 42 755 79 728 q 13 838 5 783 q 26 879 16 860 q 51 913 36 898 q 85 941 66 929 q 126 962 104 954 q 76 1008 94 981 q 64 1077 58 1035 m 103 852 q 114 803 98 820 q 164 785 130 785 q 197 790 181 785 q 224 805 212 795 q 243 826 235 814 q 252 852 250 838 q 240 898 256 878 q 178 937 224 918 l 162 943 q 124 907 141 929 q 103 852 108 885 m 269 1091 q 259 1132 273 1120 q 222 1144 245 1144 q 174 1127 193 1144 q 153 1085 156 1109 q 152 1062 151 1073 q 161 1042 154 1051 q 182 1023 168 1032 q 217 1006 195 1015 q 251 1040 237 1019 q 269 1091 264 1061 z "},"⁹":{"ha":395,"x_min":20,"x_max":370,"o":"m 132 1059 q 143 990 126 1014 q 195 966 160 966 q 224 969 211 966 q 248 975 238 972 q 271 985 260 979 l 273 1006 q 268 1109 282 1074 q 214 1144 253 1144 q 157 1122 177 1144 q 132 1059 138 1099 m 92 728 q 66 729 79 728 q 43 732 53 730 q 20 736 31 734 l 27 789 q 45 787 35 787 q 64 786 53 786 q 90 785 76 785 q 155 797 125 785 q 207 829 184 808 q 244 877 230 849 q 264 936 259 904 q 223 918 249 926 q 157 909 198 909 q 105 919 128 909 q 66 947 81 929 q 44 991 51 966 q 43 1049 38 1017 q 61 1111 47 1082 q 99 1159 75 1139 q 154 1191 122 1179 q 227 1202 186 1202 q 300 1189 271 1202 q 345 1153 329 1177 q 365 1096 361 1130 q 364 1021 370 1063 l 361 995 q 328 876 352 926 q 269 792 304 825 q 188 744 233 760 q 92 728 143 728 z "},"⁽":{"ha":269,"x_min":41,"x_max":302,"o":"m 136 928 q 130 855 130 890 q 134 789 130 820 q 145 731 138 758 q 160 682 152 704 q 206 589 178 629 l 159 568 q 92 665 119 610 q 69 717 79 688 q 52 779 58 745 q 43 849 45 812 q 47 928 41 886 q 65 1006 53 969 q 93 1077 77 1044 q 128 1138 109 1109 q 165 1190 146 1166 q 260 1286 208 1244 l 302 1266 q 229 1173 262 1225 q 201 1124 215 1151 q 174 1066 186 1097 q 151 1000 161 1035 q 136 928 141 966 z "},"⁾":{"ha":269,"x_min":-33,"x_max":227,"o":"m 134 928 q 139 1000 139 966 q 134 1066 138 1035 q 123 1124 130 1097 q 109 1173 117 1151 q 62 1266 90 1225 l 110 1286 q 177 1190 149 1244 q 200 1138 189 1166 q 217 1077 210 1109 q 225 1006 224 1044 q 222 928 227 969 q 203 849 216 886 q 175 779 191 812 q 141 717 159 745 q 104 665 122 688 q 9 568 60 610 l -33 589 q 39 682 6 629 q 68 731 54 704 q 95 789 82 758 q 118 855 108 820 q 134 928 128 890 z "},"ⁿ":{"ha":501,"x_min":7,"x_max":454,"o":"m 199 736 l 7 736 l 7 783 l 71 794 l 106 1045 l 45 1057 l 59 1103 l 174 1111 l 185 1050 q 203 1068 192 1058 q 231 1088 215 1079 q 269 1104 248 1098 q 316 1111 290 1111 q 365 1104 343 1111 q 400 1082 387 1097 q 420 1042 414 1067 q 420 982 425 1017 l 394 794 l 454 783 l 441 736 l 249 736 l 248 783 l 309 794 l 334 967 q 335 1012 338 994 q 326 1039 333 1029 q 307 1053 319 1049 q 281 1057 296 1057 q 245 1050 262 1057 q 215 1035 229 1043 q 186 1013 199 1025 l 156 794 l 212 783 l 199 736 z "},"₀":{"ha":423,"x_min":25,"x_max":397,"o":"m 168 -239 q 101 -229 130 -239 q 55 -197 73 -219 q 31 -140 37 -175 q 33 -56 25 -106 l 38 -20 q 111 172 58 108 q 248 235 164 235 q 320 225 290 235 q 368 193 350 215 q 392 136 387 171 q 390 52 397 101 l 385 17 q 311 -178 364 -117 q 168 -239 258 -239 m 298 34 q 301 107 304 79 q 291 151 299 135 q 268 172 282 167 q 237 178 254 178 q 199 169 216 178 q 170 140 182 160 q 148 88 157 120 q 132 10 138 56 l 125 -37 q 120 -105 119 -78 q 130 -150 122 -133 q 152 -174 138 -166 q 185 -181 166 -181 q 221 -173 205 -181 q 251 -145 238 -165 q 274 -94 264 -125 q 291 -14 284 -62 l 298 34 z "},"₁":{"ha":302,"x_min":19,"x_max":245,"o":"m 136 157 l 59 157 l 60 189 l 189 228 l 234 228 l 178 -173 l 245 -184 l 231 -231 l 19 -231 l 19 -184 l 90 -173 l 136 157 z "},"₂":{"ha":394,"x_min":0,"x_max":363,"o":"m 269 111 q 268 142 272 130 q 255 163 264 155 q 234 174 246 171 q 206 178 221 178 q 180 175 193 178 q 158 170 168 173 q 137 161 146 166 l 107 87 l 57 90 l 72 196 q 119 215 93 207 q 169 229 140 222 q 231 235 198 235 q 288 228 262 235 q 331 206 314 220 q 355 171 348 192 q 359 120 363 149 q 334 55 355 88 q 283 -12 314 22 q 215 -83 253 -47 q 135 -157 176 -119 l 136 -160 l 256 -160 l 294 -88 l 342 -96 l 315 -231 l 0 -231 l 7 -176 q 108 -87 62 -128 q 189 -11 155 -46 q 245 55 224 24 q 269 111 266 85 z "},"₃":{"ha":372,"x_min":0,"x_max":346,"o":"m 132 -239 q 80 -235 104 -239 q 39 -226 56 -231 q 0 -212 18 -220 l 16 -100 l 66 -96 l 73 -168 q 94 -175 83 -172 q 116 -180 104 -178 q 144 -182 129 -182 q 174 -177 159 -182 q 202 -162 189 -172 q 223 -138 214 -153 q 234 -104 231 -123 q 233 -64 237 -81 q 218 -38 229 -48 q 193 -23 208 -28 q 159 -18 178 -18 l 129 -18 l 137 39 l 168 39 q 223 58 203 39 q 248 112 243 77 q 248 143 251 131 q 237 163 245 156 q 216 174 229 171 q 189 177 203 177 q 166 175 177 177 q 147 172 155 174 q 129 166 138 169 l 102 94 l 52 98 l 68 210 q 109 222 86 216 q 153 231 127 227 q 206 235 178 235 q 313 206 280 235 q 338 125 346 177 q 325 82 335 100 q 302 51 315 64 q 276 29 290 38 q 251 14 262 20 q 281 0 267 9 q 306 -23 295 -9 q 321 -54 316 -36 q 323 -94 326 -71 q 301 -158 317 -131 q 259 -203 284 -185 q 201 -231 233 -222 q 132 -239 168 -239 z "},"₄":{"ha":388,"x_min":7,"x_max":345,"o":"m 320 -231 l 102 -231 l 102 -184 l 182 -173 l 189 -122 l 10 -122 l 7 -79 l 234 228 l 320 228 l 99 -64 l 197 -64 l 211 36 l 299 36 l 285 -64 l 343 -64 l 345 -112 l 277 -123 l 270 -173 l 334 -184 l 320 -231 z "},"₅":{"ha":383,"x_min":9,"x_max":361,"o":"m 144 -239 q 92 -235 116 -239 q 49 -224 67 -230 q 9 -210 27 -218 l 23 -109 l 77 -104 l 87 -172 q 104 -178 94 -175 q 124 -181 112 -180 q 151 -182 136 -182 q 218 -161 190 -182 q 252 -94 246 -139 q 235 -31 258 -52 q 170 -10 212 -10 q 137 -14 153 -10 q 108 -20 121 -17 q 80 -30 93 -24 l 41 9 l 85 228 l 361 228 l 351 155 l 143 155 l 118 38 q 153 46 131 42 q 204 50 174 50 q 263 42 235 50 q 310 18 290 35 q 338 -24 329 1 q 342 -86 347 -50 q 319 -150 337 -121 q 275 -198 302 -178 q 215 -229 249 -218 q 144 -239 181 -239 z "},"₆":{"ha":402,"x_min":24,"x_max":361,"o":"m 33 -38 q 67 75 41 25 q 129 161 92 125 q 210 216 165 197 q 301 235 255 235 q 325 233 314 235 q 345 231 336 232 q 361 227 354 229 l 354 174 q 337 176 346 175 q 319 177 330 176 q 298 177 309 177 q 239 164 267 177 q 188 129 210 151 q 150 77 165 106 q 130 14 134 47 q 146 22 136 18 q 170 32 156 27 q 202 39 184 36 q 240 42 220 42 q 294 32 271 42 q 333 4 317 22 q 354 -39 348 -14 q 357 -93 361 -64 q 337 -153 352 -126 q 298 -199 322 -180 q 242 -229 275 -218 q 170 -239 210 -239 q 97 -226 126 -239 q 50 -189 67 -212 q 28 -133 33 -165 q 29 -62 24 -100 l 33 -38 m 267 -100 q 253 -38 273 -61 q 197 -16 233 -16 q 169 -18 182 -16 q 145 -24 155 -21 q 123 -33 133 -28 l 120 -55 q 129 -149 113 -116 q 184 -182 146 -182 q 241 -159 220 -182 q 267 -100 262 -136 z "},"₇":{"ha":369,"x_min":39,"x_max":379,"o":"m 91 87 l 39 90 l 58 228 l 379 228 l 373 182 l 137 -231 l 52 -231 l 283 157 l 118 157 l 91 87 z "},"₈":{"ha":388,"x_min":5,"x_max":365,"o":"m 64 110 q 80 157 67 134 q 115 196 93 179 q 167 224 137 214 q 235 235 197 235 q 333 208 300 235 q 357 132 365 180 q 345 96 355 112 q 321 66 335 79 q 289 42 307 52 q 254 24 272 31 q 293 1 275 14 q 323 -28 311 -12 q 340 -62 335 -43 q 342 -104 345 -81 q 323 -158 338 -133 q 284 -201 309 -182 q 227 -229 260 -219 q 150 -239 193 -239 q 42 -212 79 -239 q 13 -129 5 -184 q 26 -87 16 -106 q 51 -53 36 -68 q 85 -25 66 -37 q 126 -5 104 -14 q 76 41 94 14 q 64 110 58 68 m 103 -115 q 114 -164 98 -147 q 164 -182 130 -182 q 197 -177 181 -182 q 224 -162 212 -172 q 243 -141 235 -153 q 252 -115 250 -129 q 240 -70 256 -90 q 178 -31 224 -50 l 162 -24 q 124 -59 141 -37 q 103 -115 108 -81 m 269 124 q 259 165 273 153 q 222 177 245 177 q 174 160 193 177 q 153 118 156 142 q 152 95 151 106 q 161 75 154 84 q 182 56 168 65 q 217 39 195 47 q 251 73 237 52 q 269 124 264 94 z "},"₉":{"ha":395,"x_min":20,"x_max":370,"o":"m 132 91 q 143 23 126 46 q 195 -1 160 -1 q 224 2 211 -1 q 248 8 238 5 q 271 18 260 12 l 273 39 q 268 142 282 106 q 214 177 253 177 q 157 154 177 177 q 132 91 138 132 m 92 -239 q 66 -238 79 -239 q 43 -235 53 -237 q 20 -231 31 -233 l 27 -178 q 45 -180 35 -180 q 64 -181 53 -181 q 90 -182 76 -182 q 155 -170 125 -182 q 207 -138 184 -159 q 244 -91 230 -118 q 264 -31 259 -63 q 223 -49 249 -41 q 157 -58 198 -58 q 105 -48 128 -58 q 66 -20 81 -38 q 44 23 51 -2 q 43 81 38 49 q 61 143 47 115 q 99 191 75 171 q 154 223 122 212 q 227 235 186 235 q 300 222 271 235 q 345 186 329 210 q 365 129 361 163 q 364 54 370 96 l 361 28 q 328 -92 352 -41 q 269 -175 304 -142 q 188 -223 233 -208 q 92 -239 143 -239 z "},"₍":{"ha":269,"x_min":41,"x_max":302,"o":"m 136 -12 q 130 -84 130 -50 q 134 -151 130 -119 q 145 -209 138 -182 q 160 -258 152 -235 q 206 -351 178 -310 l 159 -371 q 92 -274 119 -329 q 69 -222 79 -251 q 52 -161 58 -194 q 43 -90 45 -127 q 47 -12 41 -53 q 65 67 53 30 q 93 137 77 104 q 128 198 109 170 q 165 250 146 227 q 260 347 208 305 l 302 327 q 229 234 262 286 q 201 185 215 212 q 174 127 186 158 q 151 61 161 96 q 136 -12 141 26 z "},"₎":{"ha":269,"x_min":-33,"x_max":227,"o":"m 134 -12 q 139 61 139 26 q 134 127 138 96 q 123 185 130 158 q 109 234 117 212 q 62 327 90 286 l 110 347 q 177 250 149 305 q 200 198 189 227 q 217 137 210 170 q 225 67 224 104 q 222 -12 227 30 q 203 -90 216 -53 q 175 -161 191 -127 q 141 -222 159 -194 q 104 -274 122 -251 q 9 -371 60 -329 l -33 -351 q 39 -258 6 -310 q 68 -209 54 -235 q 95 -151 82 -182 q 118 -84 108 -119 q 134 -12 128 -50 z "},"⁄":{"ha":871,"x_min":7,"x_max":871,"o":"m 800 918 l 871 918 l 869 904 l 78 0 l 7 0 l 9 14 l 800 918 z "},"⅓":{"ha":945,"x_min":23,"x_max":888,"o":"m 176 847 l 100 847 l 101 879 l 230 918 l 275 918 l 218 517 l 286 505 l 272 458 l 60 458 l 60 505 l 130 517 l 176 847 m 817 918 l 888 918 l 886 904 l 94 0 l 23 0 l 25 14 l 817 918 m 666 -15 q 614 -11 638 -15 q 573 -1 591 -7 q 534 13 552 5 l 550 125 l 600 129 l 608 57 q 629 50 617 52 q 651 45 638 47 q 678 43 663 43 q 709 48 694 43 q 736 62 724 53 q 757 86 749 72 q 768 121 766 101 q 767 160 772 144 q 753 186 763 176 q 727 201 743 197 q 693 206 712 206 l 663 206 l 671 263 l 703 263 q 758 282 738 263 q 783 336 778 302 q 782 368 785 355 q 771 388 779 380 q 750 398 763 395 q 723 401 738 401 q 701 400 711 401 q 682 396 690 398 q 663 391 672 393 l 636 319 l 587 323 l 602 434 q 643 446 621 441 q 687 455 662 451 q 741 459 712 459 q 847 430 814 459 q 873 349 880 401 q 860 307 869 325 q 837 276 850 289 q 810 254 824 262 q 785 239 797 245 q 815 224 801 233 q 840 202 829 215 q 856 171 850 189 q 857 130 861 153 q 835 66 852 94 q 793 21 819 39 q 735 -6 768 3 q 666 -15 703 -15 z "},"⅔":{"ha":978,"x_min":42,"x_max":927,"o":"m 311 808 q 310 840 314 827 q 297 861 306 853 q 276 872 288 869 q 248 876 263 876 q 222 873 235 876 q 200 867 210 871 q 179 859 189 864 l 149 785 l 99 788 l 114 894 q 161 913 135 905 q 211 926 182 920 q 273 932 240 932 q 330 925 304 932 q 373 904 356 918 q 397 868 390 890 q 401 818 405 847 q 376 753 397 786 q 326 686 356 720 q 257 615 295 651 q 177 541 218 578 l 178 538 l 298 538 l 336 610 l 384 602 l 357 467 l 42 467 l 50 522 q 150 611 104 570 q 231 687 197 652 q 287 752 266 722 q 311 808 308 783 m 856 918 l 927 918 l 925 904 l 134 0 l 62 0 l 64 14 l 856 918 m 699 -15 q 647 -11 671 -15 q 606 -1 623 -7 q 567 13 585 5 l 583 125 l 633 129 l 640 57 q 661 50 650 52 q 683 45 671 47 q 711 43 696 43 q 741 48 726 43 q 769 62 756 53 q 790 86 781 72 q 801 121 798 101 q 800 160 804 144 q 785 186 795 176 q 760 201 775 197 q 726 206 745 206 l 696 206 l 704 263 l 735 263 q 790 282 770 263 q 815 336 810 302 q 815 368 818 355 q 804 388 812 380 q 783 398 795 395 q 755 401 770 401 q 733 400 744 401 q 714 396 722 398 q 696 391 705 393 l 669 319 l 619 323 l 635 434 q 675 446 653 441 q 720 455 694 451 q 773 459 745 459 q 880 430 847 459 q 905 349 913 401 q 892 307 902 325 q 869 276 882 289 q 843 254 857 262 q 818 239 829 245 q 848 224 833 233 q 872 202 862 215 q 888 171 883 189 q 890 130 893 153 q 868 66 884 94 q 826 21 851 39 q 768 -6 800 3 q 699 -15 735 -15 z "},"⅛":{"ha":952,"x_min":23,"x_max":888,"o":"m 176 847 l 100 847 l 101 879 l 230 918 l 275 918 l 218 517 l 286 505 l 272 458 l 60 458 l 60 505 l 130 517 l 176 847 m 817 918 l 888 918 l 886 904 l 94 0 l 23 0 l 25 14 l 817 918 m 585 335 q 601 382 588 359 q 636 421 614 404 q 688 449 658 439 q 756 460 718 460 q 853 433 821 460 q 878 357 886 406 q 866 321 876 337 q 842 291 856 304 q 810 267 827 277 q 774 249 793 256 q 814 226 796 239 q 844 197 832 213 q 861 163 856 182 q 863 121 866 144 q 844 67 859 92 q 805 24 829 43 q 747 -4 781 6 q 671 -14 713 -14 q 563 14 600 -14 q 534 96 526 41 q 547 138 536 119 q 572 172 557 157 q 606 200 587 188 q 647 220 625 212 q 596 266 614 239 q 585 335 578 293 m 624 111 q 635 61 619 78 q 685 43 651 43 q 718 48 702 43 q 745 63 733 54 q 764 84 756 72 q 773 111 771 96 q 761 156 777 136 q 699 195 745 176 l 683 201 q 645 166 662 188 q 624 111 629 144 m 789 349 q 780 390 793 378 q 743 402 766 402 q 695 385 713 402 q 673 343 677 368 q 673 320 671 331 q 682 300 675 309 q 703 281 689 290 q 738 264 716 273 q 771 298 758 277 q 789 349 785 319 z "},"⅜":{"ha":972,"x_min":43,"x_max":907,"o":"m 176 458 q 125 463 149 458 q 83 472 101 467 q 45 486 62 478 l 60 598 l 111 602 l 118 530 q 139 523 127 526 q 161 518 149 520 q 189 516 174 516 q 219 521 204 516 q 247 536 234 526 q 268 560 259 545 q 279 594 276 574 q 278 633 282 617 q 263 660 273 650 q 238 675 253 670 q 203 680 222 680 l 174 680 l 182 736 l 213 736 q 268 756 248 736 q 293 810 288 775 q 293 841 296 829 q 281 861 290 854 q 261 872 273 869 q 233 875 248 875 q 211 873 222 875 q 192 869 200 871 q 174 864 182 867 l 146 792 l 97 796 l 113 907 q 153 920 131 914 q 197 928 172 924 q 251 932 222 932 q 358 904 325 932 q 383 823 391 875 q 370 780 380 798 q 347 749 360 762 q 321 727 334 736 q 296 712 307 718 q 326 697 311 707 q 350 675 340 688 q 366 644 361 662 q 368 604 371 627 q 346 540 362 567 q 303 494 329 513 q 245 467 278 476 q 176 458 213 458 m 836 918 l 907 918 l 905 904 l 114 0 l 43 0 l 45 14 l 836 918 m 604 335 q 621 382 608 359 q 655 421 633 404 q 708 449 677 439 q 776 460 738 460 q 873 433 841 460 q 898 357 905 406 q 885 321 895 337 q 861 291 876 304 q 830 267 847 277 q 794 249 812 256 q 834 226 816 239 q 864 197 852 213 q 881 163 876 182 q 882 121 886 144 q 864 67 878 92 q 825 24 849 43 q 767 -4 801 6 q 690 -14 733 -14 q 583 14 619 -14 q 553 96 546 41 q 566 138 556 119 q 592 172 576 157 q 626 200 607 188 q 667 220 645 212 q 616 266 634 239 q 604 335 598 293 m 644 111 q 655 61 639 78 q 705 43 671 43 q 737 48 722 43 q 764 63 753 54 q 783 84 776 72 q 793 111 791 96 q 780 156 796 136 q 718 195 764 176 l 703 201 q 665 166 682 188 q 644 111 648 144 m 809 349 q 799 390 813 378 q 762 402 785 402 q 715 385 733 402 q 693 343 696 368 q 693 320 691 331 q 702 300 694 309 q 722 281 709 290 q 758 264 736 273 q 791 298 778 277 q 809 349 804 319 z "},"⅝":{"ha":970,"x_min":41,"x_max":906,"o":"m 180 452 q 128 456 153 452 q 85 467 104 461 q 45 481 64 473 l 60 582 l 113 587 l 124 519 q 140 513 131 516 q 160 510 149 511 q 188 509 172 509 q 255 530 227 509 q 289 597 283 552 q 272 660 295 639 q 207 681 248 681 q 173 677 189 681 q 144 671 157 674 q 117 661 130 667 l 78 701 l 122 919 l 398 919 l 388 846 l 180 846 l 155 729 q 189 737 168 733 q 241 741 211 741 q 299 733 272 741 q 346 709 327 726 q 374 667 366 692 q 378 605 383 641 q 356 542 374 570 q 312 493 338 513 q 252 463 286 473 q 180 452 218 452 m 835 918 l 906 918 l 904 904 l 113 0 l 41 0 l 43 14 l 835 918 m 603 335 q 619 382 606 359 q 654 421 632 404 q 706 449 676 439 q 774 460 736 460 q 872 433 840 460 q 897 357 904 406 q 884 321 894 337 q 860 291 874 304 q 828 267 846 277 q 793 249 811 256 q 832 226 814 239 q 862 197 850 213 q 879 163 874 182 q 881 121 884 144 q 862 67 877 92 q 824 24 848 43 q 766 -4 800 6 q 689 -14 732 -14 q 581 14 618 -14 q 552 96 545 41 q 565 138 555 119 q 590 172 575 157 q 625 200 606 188 q 665 220 644 212 q 615 266 633 239 q 603 335 597 293 m 642 111 q 653 61 637 78 q 703 43 669 43 q 736 48 720 43 q 763 63 751 54 q 782 84 774 72 q 791 111 789 96 q 779 156 795 136 q 717 195 763 176 l 701 201 q 664 166 680 188 q 642 111 647 144 m 808 349 q 798 390 812 378 q 761 402 784 402 q 713 385 732 402 q 692 343 695 368 q 691 320 690 331 q 700 300 693 309 q 721 281 707 290 q 756 264 734 273 q 790 298 777 277 q 808 349 803 319 z "},"⅞":{"ha":949,"x_min":20,"x_max":884,"o":"m 140 777 l 87 780 l 106 918 l 428 918 l 422 872 l 186 458 l 101 458 l 332 846 l 167 846 l 140 777 m 813 918 l 884 918 l 882 904 l 91 0 l 20 0 l 22 14 l 813 918 m 581 335 q 597 382 585 359 q 632 421 610 404 q 685 449 654 439 q 753 460 715 460 q 850 433 818 460 q 875 357 882 406 q 862 321 872 337 q 838 291 852 304 q 807 267 824 277 q 771 249 789 256 q 811 226 793 239 q 841 197 829 213 q 858 163 852 182 q 859 121 863 144 q 841 67 855 92 q 802 24 826 43 q 744 -4 778 6 q 667 -14 710 -14 q 559 14 596 -14 q 530 96 523 41 q 543 138 533 119 q 569 172 553 157 q 603 200 584 188 q 644 220 622 212 q 593 266 611 239 q 581 335 575 293 m 621 111 q 632 61 616 78 q 682 43 648 43 q 714 48 699 43 q 741 63 730 54 q 760 84 753 72 q 770 111 768 96 q 757 156 773 136 q 695 195 741 176 l 680 201 q 642 166 659 188 q 621 111 625 144 m 786 349 q 776 390 790 378 q 739 402 762 402 q 692 385 710 402 q 670 343 673 368 q 670 320 668 331 q 679 300 671 309 q 699 281 686 290 q 734 264 713 273 q 768 298 755 277 q 786 349 781 319 z "},"¹":{"ha":302,"x_min":19,"x_max":245,"o":"m 136 1124 l 59 1124 l 60 1156 l 189 1195 l 234 1195 l 178 794 l 245 783 l 231 736 l 19 736 l 19 783 l 90 794 l 136 1124 z "},"²":{"ha":394,"x_min":0,"x_max":363,"o":"m 269 1078 q 268 1109 272 1097 q 255 1130 264 1122 q 234 1141 246 1138 q 206 1145 221 1145 q 180 1142 193 1145 q 158 1137 168 1140 q 137 1128 146 1133 l 107 1054 l 57 1057 l 72 1163 q 119 1182 93 1174 q 169 1196 140 1190 q 231 1202 198 1202 q 288 1195 262 1202 q 331 1173 314 1187 q 355 1138 348 1159 q 359 1087 363 1116 q 334 1022 355 1055 q 283 955 314 989 q 215 884 253 920 q 135 810 176 848 l 136 807 l 256 807 l 294 879 l 342 871 l 315 736 l 0 736 l 7 791 q 108 880 62 839 q 189 956 155 921 q 245 1022 224 991 q 269 1078 266 1052 z "},"³":{"ha":372,"x_min":0,"x_max":346,"o":"m 132 728 q 80 732 104 728 q 39 741 56 736 q 0 755 18 747 l 16 867 l 66 871 l 73 800 q 94 792 83 795 q 116 787 104 789 q 144 785 129 785 q 174 790 159 785 q 202 805 189 795 q 223 829 214 814 q 234 863 231 844 q 233 903 237 886 q 218 929 229 919 q 193 944 208 939 q 159 949 178 949 l 129 949 l 137 1006 l 168 1006 q 223 1025 203 1006 q 248 1079 243 1044 q 248 1111 251 1098 q 237 1131 245 1123 q 216 1141 229 1138 q 189 1144 203 1144 q 166 1142 177 1144 q 147 1139 155 1141 q 129 1133 138 1136 l 102 1061 l 52 1065 l 68 1177 q 109 1189 86 1183 q 153 1198 127 1194 q 206 1202 178 1202 q 313 1173 280 1202 q 338 1092 346 1144 q 325 1049 335 1067 q 302 1018 315 1031 q 276 996 290 1005 q 251 981 262 987 q 281 967 267 976 q 306 944 295 958 q 321 913 316 931 q 323 873 326 896 q 301 809 317 836 q 259 764 284 782 q 201 736 233 745 q 132 728 168 728 z "},"¼":{"ha":932,"x_min":9,"x_max":874,"o":"m 163 847 l 86 847 l 87 879 l 216 918 l 261 918 l 205 517 l 272 505 l 258 458 l 46 458 l 46 505 l 117 517 l 163 847 m 803 918 l 874 918 l 872 904 l 81 0 l 9 0 l 12 14 l 803 918 m 817 0 l 598 0 l 598 47 l 678 58 l 686 109 l 507 109 l 504 152 l 730 459 l 817 459 l 595 167 l 693 167 l 707 267 l 795 267 l 781 167 l 840 167 l 842 119 l 773 108 l 766 58 l 830 47 l 817 0 z "},"½":{"ha":972,"x_min":23,"x_max":904,"o":"m 176 847 l 100 847 l 101 879 l 230 918 l 275 918 l 218 517 l 286 505 l 272 458 l 60 458 l 60 505 l 130 517 l 176 847 m 817 918 l 888 918 l 886 904 l 94 0 l 23 0 l 25 14 l 817 918 m 810 342 q 809 374 813 361 q 796 394 805 387 q 775 406 787 402 q 747 409 762 409 q 721 407 734 409 q 699 401 709 404 q 678 393 688 397 l 648 318 l 598 321 l 613 427 q 660 446 634 438 q 710 460 682 454 q 772 466 739 466 q 829 459 804 466 q 872 437 855 452 q 897 402 889 423 q 900 351 904 380 q 876 287 896 319 q 825 219 855 254 q 756 148 794 184 q 676 75 718 112 l 677 71 l 798 71 l 836 143 l 883 136 l 857 0 l 541 0 l 549 56 q 649 144 603 103 q 730 220 696 185 q 786 286 765 256 q 810 342 807 316 z "},"¾":{"ha":965,"x_min":43,"x_max":907,"o":"m 176 458 q 125 463 149 458 q 83 472 101 467 q 45 486 62 478 l 60 598 l 111 602 l 118 530 q 139 523 127 526 q 161 518 149 520 q 189 516 174 516 q 219 521 204 516 q 247 536 234 526 q 268 560 259 545 q 279 594 276 574 q 278 633 282 617 q 263 660 273 650 q 238 675 253 670 q 203 680 222 680 l 174 680 l 182 736 l 213 736 q 268 756 248 736 q 293 810 288 775 q 293 841 296 829 q 281 861 290 854 q 261 872 273 869 q 233 875 248 875 q 211 873 222 875 q 192 869 200 871 q 174 864 182 867 l 146 792 l 97 796 l 113 907 q 153 920 131 914 q 197 928 172 924 q 251 932 222 932 q 358 904 325 932 q 383 823 391 875 q 370 780 380 798 q 347 749 360 762 q 321 727 334 736 q 296 712 307 718 q 326 697 311 707 q 350 675 340 688 q 366 644 361 662 q 368 604 371 627 q 346 540 362 567 q 303 494 329 513 q 245 467 278 476 q 176 458 213 458 m 836 918 l 907 918 l 905 904 l 114 0 l 43 0 l 45 14 l 836 918 m 850 0 l 631 0 l 631 47 l 711 58 l 719 109 l 540 109 l 537 152 l 764 459 l 850 459 l 629 167 l 726 167 l 741 267 l 829 267 l 814 167 l 873 167 l 875 119 l 806 108 l 800 58 l 863 47 l 850 0 z "},"Þ":{"ha":699,"x_min":2,"x_max":714,"o":"m 345 0 l 7 0 l 2 58 l 98 71 l 207 846 l 111 860 l 123 918 l 426 918 l 431 860 l 336 846 l 319 727 l 433 727 q 646 674 577 727 q 698 507 714 621 q 661 398 689 446 q 590 319 632 351 q 495 271 548 288 q 386 254 443 254 l 252 254 l 227 71 l 356 58 l 345 0 m 365 321 q 428 325 400 321 q 475 334 456 329 q 516 346 498 339 q 536 387 526 364 q 552 431 544 406 q 564 487 559 456 q 562 556 568 524 q 536 610 555 587 q 482 647 516 633 q 397 660 448 660 l 309 660 l 262 321 l 365 321 z "},"þ":{"ha":758,"x_min":-65,"x_max":705,"o":"m 109 1044 l 270 1059 l 325 1006 l 263 569 q 279 593 268 576 q 309 629 291 609 q 349 671 326 650 q 399 710 372 692 q 458 739 427 728 q 524 751 489 751 q 612 737 575 751 q 672 692 650 724 q 700 610 694 661 q 695 483 705 559 l 677 355 q 640 212 667 279 q 567 94 612 144 q 462 15 523 44 q 326 -15 401 -15 q 253 -10 289 -15 q 184 3 217 -5 l 153 -224 l 249 -237 l 242 -295 l -58 -295 l -65 -237 l 31 -224 l 198 973 l 102 987 l 109 1044 m 565 423 q 575 539 574 491 q 566 618 576 588 q 537 663 557 649 q 484 677 517 677 q 429 665 456 677 q 377 632 401 652 q 331 589 352 612 q 293 544 309 566 q 266 506 277 522 q 252 483 255 489 l 193 64 q 232 53 210 58 q 275 45 250 49 q 329 42 299 42 q 384 47 357 42 q 430 59 410 52 q 473 76 453 66 q 505 142 490 104 q 531 223 517 175 q 553 334 544 271 l 565 423 z "},"Æ":{"ha":1082,"x_min":-117,"x_max":1053,"o":"m 841 513 l 868 606 l 924 593 l 889 352 l 830 349 l 830 446 l 604 446 l 550 67 l 863 67 l 934 205 l 988 196 l 943 0 l 332 0 l 326 58 l 422 71 l 452 289 l 198 289 l 65 70 l 154 58 l 142 0 l -111 0 l -117 58 l -40 71 l 482 918 l 1053 918 l 1040 714 l 981 714 l 954 850 l 661 850 l 613 513 l 841 513 m 462 356 l 530 836 l 239 356 l 462 356 z "},"œ":{"ha":1114,"x_min":39,"x_max":1099,"o":"m 1087 566 q 993 396 1072 458 q 796 334 913 334 q 720 336 755 334 q 664 340 686 338 l 659 300 q 682 112 642 177 q 793 46 723 46 q 882 64 835 46 q 965 107 930 82 l 965 49 q 873 3 928 21 q 757 -15 819 -15 q 570 61 628 -15 q 548 101 557 79 q 541 94 545 97 q 296 -15 437 -15 q 99 62 159 -15 q 61 291 39 138 l 71 354 q 198 644 98 538 q 444 751 298 751 q 642 673 584 751 q 660 642 652 659 l 661 643 q 891 751 754 751 q 1050 701 1000 751 q 1087 566 1099 652 m 555 429 q 539 623 572 557 q 422 690 506 690 q 354 680 388 690 q 294 656 321 671 q 234 533 260 606 q 196 381 208 460 l 184 300 q 209 112 168 177 q 318 46 249 46 q 380 55 348 46 q 446 80 412 63 q 504 189 477 121 q 538 311 526 242 l 555 429 m 768 656 q 711 541 737 610 q 672 395 685 472 q 747 392 710 393 q 819 391 784 391 q 876 398 848 391 q 925 418 903 405 q 947 475 939 446 q 961 544 956 505 q 948 651 970 612 q 869 690 925 690 q 819 681 845 690 q 768 656 792 672 z "},"Œ":{"ha":1204,"x_min":28,"x_max":1175,"o":"m 963 513 l 990 606 l 1046 593 l 1011 352 l 952 349 l 952 446 l 726 446 l 672 67 l 985 67 l 1056 205 l 1110 196 l 1065 0 l 534 0 q 473 -9 513 -3 q 382 -15 433 -15 q 110 78 192 -15 q 54 356 28 170 l 62 410 q 117 635 79 537 q 213 799 155 732 q 350 899 271 865 q 530 932 429 932 q 663 918 606 932 l 1175 918 l 1162 714 l 1103 714 l 1076 850 l 783 850 l 735 513 l 963 513 m 497 865 q 420 856 455 865 q 359 836 385 847 q 304 806 328 823 q 262 713 281 764 q 227 609 244 669 q 200 477 210 549 l 188 387 q 190 237 176 300 q 236 133 203 174 q 314 72 268 92 q 415 52 361 52 q 489 60 458 52 q 545 81 519 68 l 650 822 q 580 855 619 845 q 497 865 541 865 z "},"ɑ":{"ha":785,"x_min":43,"x_max":699,"o":"m 687 0 l 531 -15 l 476 38 l 494 167 q 372 35 441 84 q 233 -15 304 -15 q 82 50 121 -15 q 62 253 43 114 l 80 380 q 200 651 105 551 q 433 751 296 751 q 554 737 488 751 q 690 698 621 723 l 602 71 l 699 58 l 687 0 m 193 313 q 191 120 174 182 q 274 58 207 58 q 393 113 331 58 q 506 253 454 168 l 564 671 q 496 688 532 682 q 429 694 460 694 q 355 684 391 694 q 291 660 319 675 q 242 552 264 615 q 205 401 220 488 l 193 313 z "},"ə":{"ha":656,"x_min":30,"x_max":604,"o":"m 43 182 q 73 271 49 231 q 135 341 97 312 q 223 386 172 370 q 332 402 273 402 q 408 400 374 402 q 464 395 442 397 l 470 435 q 473 558 480 509 q 447 636 466 607 q 398 677 427 665 q 336 690 369 690 q 271 680 302 690 q 216 659 240 671 q 163 629 189 646 l 163 687 q 219 719 187 705 q 284 741 246 730 q 372 751 323 751 q 487 730 440 751 q 561 670 534 709 q 596 574 588 631 q 593 445 604 517 l 585 382 q 540 209 571 283 q 464 85 509 135 q 361 10 418 35 q 237 -15 303 -15 q 80 34 130 -15 q 43 182 30 82 m 360 79 q 398 148 380 109 q 430 230 414 182 q 456 340 446 277 q 427 341 444 340 q 390 343 410 342 q 350 345 371 344 q 309 345 329 345 q 265 341 285 345 q 232 332 245 337 q 203 318 216 326 q 189 285 196 303 q 178 247 184 269 q 168 199 172 225 q 168 125 163 155 q 186 78 173 95 q 218 53 199 60 q 259 46 237 46 q 298 51 280 46 q 330 62 317 56 q 360 79 347 70 z "},"ɡ":{"ha":757,"x_min":4,"x_max":690,"o":"m 26 -168 q 187 -215 107 -197 q 321 -233 267 -233 q 424 -121 382 -198 q 479 60 465 -45 l 494 166 q 371 33 437 81 q 235 -15 304 -15 q 81 53 117 -15 q 63 253 44 121 l 81 380 q 199 649 104 547 q 433 751 294 751 q 560 736 491 751 q 690 698 629 721 l 605 87 q 480 -209 578 -108 q 237 -310 383 -310 q 110 -296 174 -310 q 4 -262 47 -281 l 26 -168 m 193 313 q 193 114 173 170 q 275 58 212 58 q 390 110 329 58 q 506 252 451 162 l 564 671 q 500 687 537 681 q 429 694 464 694 q 355 684 391 694 q 292 660 318 675 q 239 543 262 613 q 206 401 216 472 l 193 313 z "},"+":{"ha":707,"x_min":109,"x_max":612,"o":"m 410 668 l 410 452 l 612 452 l 612 353 l 410 353 l 410 137 l 311 137 l 311 353 l 109 353 l 109 452 l 311 452 l 311 668 l 410 668 z "},"<":{"ha":779,"x_min":95,"x_max":656,"o":"m 95 376 l 95 441 l 636 695 l 656 695 l 656 601 l 255 412 l 255 406 l 656 218 l 656 123 l 636 123 l 95 376 z "},"=":{"ha":747,"x_min":109,"x_max":652,"o":"m 109 315 l 652 315 l 652 208 l 109 208 l 109 315 m 109 629 l 652 629 l 652 522 l 109 522 l 109 629 z "},">":{"ha":779,"x_min":122,"x_max":684,"o":"m 142 123 l 122 123 l 122 218 l 524 406 l 524 412 l 122 601 l 122 695 l 142 695 l 684 441 l 684 376 l 142 123 z "},"^":{"ha":579,"x_min":47,"x_max":606,"o":"m 294 1044 l 359 1044 l 606 732 l 606 711 l 512 711 l 330 939 l 323 939 l 142 711 l 47 711 l 47 732 l 294 1044 z "},"_":{"ha":662,"x_min":-61,"x_max":642,"o":"m -61 -159 l 642 -159 l 642 -257 l -61 -257 l -61 -159 z "},"|":{"ha":433,"x_min":183,"x_max":263,"o":"m 183 1133 l 263 1133 l 263 -364 l 183 -364 l 183 1133 z "},"~":{"ha":748,"x_min":81,"x_max":720,"o":"m 81 372 q 94 439 81 410 q 128 488 106 469 q 180 518 150 508 q 244 528 210 528 q 299 521 269 528 q 361 504 329 514 q 425 483 393 494 q 485 461 456 471 q 535 445 513 452 q 570 438 557 438 q 596 443 583 438 q 618 458 608 448 q 634 484 628 469 q 640 519 640 499 l 720 526 l 720 494 q 708 430 720 458 q 676 381 696 401 q 627 350 656 361 q 565 339 599 339 q 513 346 543 339 q 450 362 483 353 q 382 384 416 372 q 318 405 348 395 q 264 422 288 415 q 228 429 240 429 q 201 426 214 429 q 178 416 188 423 q 161 395 168 408 q 155 362 155 382 l 81 355 l 81 372 z "},"¤":{"ha":828,"x_min":129,"x_max":747,"o":"m 132 130 l 228 244 q 188 316 202 277 q 173 399 173 355 q 186 477 173 440 q 223 546 199 515 l 129 658 l 216 730 l 309 618 q 370 642 338 634 q 438 650 403 650 q 505 642 473 650 q 566 619 537 634 l 659 730 l 747 656 l 653 545 q 690 477 677 514 q 703 399 703 439 q 688 315 703 355 q 647 243 673 276 l 745 128 l 658 56 l 557 174 q 438 147 502 147 q 376 154 406 147 q 319 174 346 161 l 220 56 l 132 130 m 292 399 q 304 332 292 361 q 335 284 315 304 q 381 255 355 264 q 438 245 408 245 q 494 255 468 245 q 541 284 521 264 q 572 332 560 304 q 583 399 583 361 q 572 465 583 436 q 541 513 560 494 q 494 543 521 533 q 438 553 468 553 q 381 543 408 553 q 335 513 355 533 q 304 465 315 494 q 292 399 292 436 z "},"¦":{"ha":433,"x_min":183,"x_max":263,"o":"m 183 217 l 263 217 l 263 -364 l 183 -364 l 183 217 m 183 1133 l 263 1133 l 263 551 l 183 551 l 183 1133 z "},"©":{"ha":886,"x_min":47,"x_max":880,"o":"m 275 623 q 289 738 275 689 q 330 820 303 787 q 393 869 356 852 q 477 885 431 885 q 530 881 507 885 q 571 872 554 877 q 606 859 591 866 l 614 728 l 568 719 l 538 812 q 522 816 531 814 q 502 819 513 817 q 476 820 490 820 q 441 817 456 820 q 414 810 425 814 q 392 801 401 806 q 384 760 387 783 q 378 712 380 740 q 376 649 376 684 l 376 603 q 386 543 376 568 q 412 502 396 518 q 447 477 428 485 q 486 469 467 469 q 533 474 511 469 q 573 485 555 479 q 612 500 593 492 l 612 444 q 570 423 593 432 q 524 410 551 416 q 465 404 497 404 q 388 414 423 404 q 328 447 353 425 q 289 503 303 469 q 275 584 275 537 l 275 623 m 142 644 q 167 518 142 576 q 236 415 192 459 q 338 347 279 372 q 464 321 397 321 q 590 347 531 321 q 692 415 648 372 q 761 518 736 459 q 786 644 786 576 q 761 769 786 711 q 692 872 736 828 q 590 941 648 916 q 464 966 531 966 q 338 941 397 966 q 236 872 279 916 q 167 769 192 828 q 142 644 142 711 m 47 644 q 80 806 47 730 q 170 938 113 882 q 302 1027 226 994 q 464 1059 378 1059 q 626 1027 550 1059 q 758 938 702 994 q 847 806 814 882 q 880 644 880 730 q 847 481 880 557 q 758 349 814 406 q 626 260 702 293 q 464 227 550 227 q 353 242 406 227 q 254 284 300 257 q 170 349 208 311 q 104 433 132 387 q 62 533 77 479 q 47 644 47 586 z "},"¬":{"ha":789,"x_min":109,"x_max":694,"o":"m 109 513 l 694 513 l 694 207 l 594 207 l 594 420 l 109 420 l 109 513 z "},"®":{"ha":886,"x_min":47,"x_max":880,"o":"m 47 644 q 80 806 47 730 q 170 938 113 882 q 302 1027 226 994 q 464 1059 378 1059 q 626 1027 550 1059 q 758 938 702 994 q 847 806 814 882 q 880 644 880 730 q 847 481 880 557 q 758 349 814 406 q 626 260 702 293 q 464 227 550 227 q 353 242 406 227 q 254 284 300 257 q 170 349 208 311 q 104 433 132 387 q 62 533 77 479 q 47 644 47 586 m 142 644 q 167 518 142 576 q 236 415 192 459 q 338 347 279 372 q 464 321 397 321 q 590 347 531 321 q 692 415 648 372 q 761 518 736 459 q 786 644 786 576 q 761 769 786 711 q 692 872 736 828 q 590 941 648 916 q 464 966 531 966 q 338 941 397 966 q 236 872 279 916 q 167 769 192 828 q 142 644 142 711 m 337 813 l 290 825 l 296 862 l 473 862 q 578 834 543 862 q 614 748 614 807 q 594 675 614 703 q 544 629 574 647 l 544 625 l 628 484 l 677 475 l 671 437 l 565 437 l 460 618 l 420 618 l 420 485 l 467 475 l 461 437 l 296 437 l 290 475 l 337 485 l 337 813 m 420 805 l 420 675 l 458 675 q 484 676 473 675 q 504 680 496 678 q 521 686 513 683 q 526 702 523 693 q 529 720 527 709 q 530 742 530 730 q 512 786 530 768 q 451 805 494 805 l 420 805 z "},"°":{"ha":430,"x_min":75,"x_max":423,"o":"m 75 885 q 88 953 75 921 q 125 1008 102 985 q 181 1046 149 1032 q 249 1059 213 1059 q 317 1046 285 1059 q 372 1008 349 1032 q 410 953 396 985 q 423 885 423 921 q 410 817 423 849 q 372 762 396 785 q 317 724 349 738 q 249 711 285 711 q 181 724 213 711 q 125 762 149 738 q 88 817 102 785 q 75 885 75 849 m 162 885 q 169 842 162 861 q 188 810 176 823 q 215 791 199 798 q 249 785 231 785 q 283 791 267 785 q 310 810 298 798 q 329 842 322 823 q 336 885 336 861 q 329 928 336 909 q 310 960 322 947 q 283 979 298 972 q 249 985 267 985 q 215 979 231 985 q 188 960 199 972 q 169 928 176 947 q 162 885 162 909 z "},"±":{"ha":707,"x_min":109,"x_max":612,"o":"m 410 736 l 410 520 l 612 520 l 612 420 l 410 420 l 410 205 l 311 205 l 311 420 l 109 420 l 109 520 l 311 520 l 311 736 l 410 736 m 127 100 l 597 100 l 597 0 l 127 0 l 127 100 z "},"×":{"ha":679,"x_min":109,"x_max":584,"o":"m 179 640 l 346 473 l 513 640 l 584 570 l 416 402 l 584 235 l 513 165 l 346 332 l 179 165 l 109 235 l 275 402 l 109 570 l 179 640 z "},"÷":{"ha":782,"x_min":109,"x_max":687,"o":"m 109 452 l 687 452 l 687 353 l 109 353 l 109 452 m 330 123 q 335 159 330 142 q 347 189 339 176 q 364 210 354 202 q 385 217 374 217 q 422 213 405 217 q 451 200 439 208 q 471 182 464 193 q 478 161 478 172 q 474 126 478 142 q 462 96 469 109 q 444 76 454 83 q 422 68 434 68 q 386 73 403 68 q 357 85 370 77 q 337 102 345 92 q 330 123 330 112 m 330 642 q 335 678 330 661 q 347 708 339 695 q 364 728 354 721 q 385 736 374 736 q 422 731 405 736 q 451 719 439 727 q 471 701 464 711 q 478 680 478 691 q 474 645 478 661 q 462 615 469 628 q 444 595 454 602 q 422 587 434 587 q 386 592 403 587 q 357 604 370 596 q 337 621 345 611 q 330 642 330 631 z "},"℗":{"ha":886,"x_min":47,"x_max":880,"o":"m 47 644 q 80 806 47 730 q 170 938 113 882 q 302 1027 226 994 q 464 1059 378 1059 q 626 1027 550 1059 q 758 938 702 994 q 847 806 814 882 q 880 644 880 730 q 847 481 880 557 q 758 349 814 406 q 626 260 702 293 q 464 227 550 227 q 353 242 406 227 q 254 284 300 257 q 170 349 208 311 q 104 433 132 387 q 62 533 77 479 q 47 644 47 586 m 142 644 q 167 518 142 576 q 236 415 192 459 q 338 347 279 372 q 464 321 397 321 q 590 347 531 321 q 692 415 648 372 q 761 518 736 459 q 786 644 786 576 q 761 769 786 711 q 692 872 736 828 q 590 941 648 916 q 464 966 531 966 q 338 941 397 966 q 236 872 279 916 q 167 769 192 828 q 142 644 142 711 m 366 813 l 319 825 l 325 862 l 502 862 q 608 834 572 862 q 644 745 644 806 q 604 651 644 684 q 489 618 565 618 l 449 618 l 449 485 l 496 475 l 490 437 l 325 437 l 319 475 l 366 485 l 366 813 m 449 805 l 449 675 l 487 675 q 513 676 502 675 q 533 680 525 678 q 550 686 543 683 q 555 702 552 693 q 558 720 556 709 q 559 742 559 730 q 541 786 559 768 q 480 805 523 805 l 449 805 z "},"℠":{"ha":1112,"x_min":96,"x_max":1085,"o":"m 515 869 l 463 880 l 470 918 l 639 918 l 774 562 l 777 562 l 907 918 l 1078 918 l 1085 880 l 1034 869 l 1034 507 l 1085 496 l 1078 458 l 906 458 l 899 496 l 951 507 l 951 859 l 947 859 l 798 458 l 733 458 l 577 859 l 574 859 l 574 507 l 622 496 l 618 458 l 470 458 l 463 496 l 515 507 l 515 869 m 269 727 q 321 692 298 709 q 358 657 343 675 q 381 619 374 639 q 389 576 389 600 q 378 526 389 549 q 347 487 368 503 q 297 461 327 470 q 231 452 268 452 q 175 455 199 452 q 135 463 151 458 q 102 473 116 467 l 96 574 l 135 583 l 163 517 q 180 513 170 515 q 199 510 188 511 q 225 509 210 509 q 257 511 243 509 q 281 515 272 513 q 302 522 293 518 q 307 533 304 526 q 310 547 309 538 q 312 564 312 555 q 288 611 312 589 q 218 661 263 633 q 161 697 184 681 q 124 731 138 714 q 102 766 109 748 q 96 808 96 785 q 105 852 96 831 q 134 889 114 873 q 183 914 153 905 q 255 924 214 924 q 302 921 281 924 q 338 915 323 918 q 367 906 355 911 l 374 802 l 338 794 l 311 859 q 294 863 304 861 q 275 865 286 864 q 253 866 264 866 q 222 864 235 866 q 199 860 208 862 q 180 854 188 857 q 176 844 178 850 q 174 833 175 840 q 174 819 174 826 q 180 797 174 807 q 198 776 186 787 q 227 754 210 766 q 269 727 245 742 z "},"™":{"ha":1167,"x_min":81,"x_max":1140,"o":"m 962 918 l 1133 918 l 1140 880 l 1088 869 l 1088 507 l 1140 496 l 1133 458 l 961 458 l 954 496 l 1006 507 l 1006 859 l 1002 859 l 853 458 l 788 458 l 632 859 l 629 859 l 629 507 l 677 496 l 673 458 l 525 458 l 518 496 l 570 507 l 570 869 l 518 880 l 525 918 l 694 918 l 829 562 l 832 562 l 962 918 m 90 918 l 469 918 l 477 803 l 441 795 l 414 861 l 321 861 l 321 507 l 372 496 l 366 458 l 193 458 l 186 496 l 238 507 l 238 861 l 144 861 l 117 795 l 81 803 l 90 918 z "},"Ω":{"ha":1044,"x_min":41,"x_max":1003,"o":"m 599 60 q 704 178 657 111 q 743 242 724 207 q 776 317 762 277 q 800 405 791 358 q 809 502 809 451 q 785 657 809 592 q 721 764 762 722 q 626 825 680 806 q 511 845 572 845 q 420 836 460 845 q 354 817 381 827 q 299 789 322 805 q 269 714 281 756 q 248 629 257 678 q 239 519 239 580 q 249 416 239 465 q 274 325 258 368 q 310 246 290 282 q 352 180 330 210 q 465 60 401 111 l 445 0 l 58 0 l 41 211 l 91 219 l 134 115 l 309 115 q 209 219 252 160 q 173 275 191 244 q 141 341 155 305 q 118 418 127 377 q 110 504 110 458 q 135 675 110 596 q 213 811 161 753 q 345 900 265 868 q 531 932 424 932 q 708 902 631 932 q 835 814 784 871 q 912 680 886 758 q 938 505 938 601 q 929 419 938 460 q 907 342 921 378 q 877 275 894 306 q 841 219 859 244 q 744 115 798 160 l 910 115 l 953 219 l 1003 211 l 986 0 l 619 0 l 599 60 z "},"℮":{"ha":867,"x_min":75,"x_max":785,"o":"m 441 66 q 497 71 470 66 q 550 83 525 75 q 599 100 576 90 q 642 119 622 109 q 728 172 688 142 l 768 120 q 677 52 728 82 q 630 27 656 39 q 574 6 604 16 q 511 -9 545 -3 q 441 -15 478 -15 q 305 4 371 -15 q 188 65 239 22 q 105 176 136 107 q 75 346 75 245 q 102 519 75 444 q 179 646 130 594 q 295 724 229 697 q 441 751 362 751 q 587 727 523 751 q 695 656 652 703 q 762 540 739 609 q 785 382 785 471 l 785 334 l 217 334 l 217 161 q 273 114 240 135 q 343 81 301 96 q 441 66 385 66 m 643 416 l 643 574 q 597 622 625 601 q 533 654 572 640 q 436 669 494 669 q 336 654 377 669 q 268 622 294 640 q 217 574 237 601 l 217 416 l 643 416 z "},"∂":{"ha":734,"x_min":30,"x_max":688,"o":"m 665 435 q 617 248 650 332 q 535 106 585 165 q 418 17 485 48 q 270 -15 352 -15 q 153 7 201 -15 q 77 70 105 30 q 39 164 48 109 q 39 284 30 219 l 47 347 q 95 521 62 446 q 176 647 128 596 q 283 725 224 699 q 410 751 343 751 q 478 740 448 751 q 533 713 509 730 q 574 677 557 697 q 602 637 591 656 q 589 769 602 710 q 548 870 576 829 q 475 935 519 912 q 368 958 431 958 q 289 945 326 958 q 223 917 252 932 q 162 876 191 899 l 172 949 q 240 1004 203 979 q 316 1042 273 1025 q 412 1059 359 1059 q 515 1039 470 1059 q 592 983 559 1019 q 646 897 625 947 q 677 786 667 847 q 687 656 688 726 q 676 513 686 587 l 665 435 m 392 669 q 333 662 359 669 q 288 646 307 655 q 248 624 265 636 q 220 565 233 600 q 196 491 208 535 q 176 388 184 448 l 164 307 q 164 201 155 246 q 193 125 172 155 q 242 81 213 96 q 304 66 272 66 q 404 94 358 66 q 486 166 450 121 q 545 271 522 212 q 578 393 569 330 l 588 465 q 598 557 595 512 q 565 598 585 578 q 519 634 545 618 q 461 660 493 650 q 392 669 429 669 z "},"∆":{"ha":812,"x_min":7,"x_max":758,"o":"m 758 0 l 7 0 l 336 918 l 431 932 l 758 0 m 368 749 l 138 87 l 600 87 l 374 749 l 368 749 z "},"∏":{"ha":1074,"x_min":109,"x_max":999,"o":"m 895 -153 l 766 -153 l 766 830 l 341 830 l 341 -153 l 212 -153 l 212 828 l 109 851 l 122 918 l 985 918 l 999 851 l 895 828 l 895 -153 z "},"∑":{"ha":859,"x_min":88,"x_max":791,"o":"m 109 918 l 774 918 l 791 714 l 721 699 l 665 830 l 241 830 l 484 444 l 484 374 l 212 -31 l 665 -31 l 721 100 l 791 85 l 774 -153 l 109 -153 l 89 -59 l 382 381 l 382 388 l 88 857 l 109 918 z "},"−":{"ha":673,"x_min":109,"x_max":578,"o":"m 109 452 l 578 452 l 578 353 l 109 353 l 109 452 z "},"≈":{"ha":842,"x_min":109,"x_max":747,"o":"m 109 481 q 121 548 109 519 q 155 597 134 577 q 207 626 177 616 q 271 636 237 636 q 326 629 296 636 q 388 613 356 623 q 452 591 420 603 q 512 570 484 580 q 562 553 540 560 q 597 547 585 547 q 623 552 610 547 q 645 567 635 557 q 661 592 655 577 q 667 628 667 608 l 747 635 l 747 603 q 735 538 747 567 q 703 489 724 509 q 654 458 683 469 q 592 448 626 448 q 540 454 570 448 q 477 471 510 461 q 409 492 444 481 q 345 514 375 504 q 291 530 315 524 q 255 537 267 537 q 228 534 241 537 q 205 524 215 532 q 189 504 195 517 q 182 471 182 491 l 109 464 l 109 481 m 109 210 q 121 277 109 248 q 155 326 134 306 q 207 355 177 345 q 271 365 237 365 q 326 358 296 365 q 388 341 356 351 q 452 320 420 332 q 512 299 484 309 q 562 282 540 289 q 597 275 585 275 q 623 280 610 275 q 645 296 635 286 q 661 321 655 306 q 667 357 667 336 l 747 363 l 747 332 q 735 267 747 296 q 703 218 724 238 q 654 187 683 198 q 592 176 626 176 q 540 183 570 176 q 477 200 510 190 q 409 221 444 210 q 345 242 375 233 q 291 259 315 252 q 255 266 267 266 q 228 263 241 266 q 205 253 215 260 q 189 233 195 245 q 182 199 182 220 l 109 193 l 109 210 z "},"≠":{"ha":747,"x_min":109,"x_max":652,"o":"m 109 315 l 294 315 l 359 522 l 109 522 l 109 629 l 393 629 l 471 880 l 576 880 l 576 866 l 502 629 l 652 629 l 652 522 l 469 522 l 404 315 l 652 315 l 652 208 l 370 208 l 281 -75 l 176 -75 l 176 -62 l 260 208 l 109 208 l 109 315 z "},"≤":{"ha":779,"x_min":95,"x_max":656,"o":"m 95 558 l 95 623 l 636 877 l 656 877 l 656 783 l 255 594 l 255 587 l 656 399 l 656 304 l 636 304 l 95 558 m 95 174 l 656 174 l 656 75 l 95 75 l 95 174 z "},"≥":{"ha":779,"x_min":122,"x_max":684,"o":"m 142 304 l 122 304 l 122 399 l 524 587 l 524 594 l 122 783 l 122 877 l 142 877 l 684 623 l 684 558 l 142 304 m 122 174 l 684 174 l 684 75 l 122 75 l 122 174 z "},"·":{"ha":396,"x_min":149,"x_max":315,"o":"m 149 444 q 154 484 149 465 q 167 517 159 503 q 187 539 176 531 q 210 548 198 548 q 252 543 233 548 q 284 530 271 538 q 307 510 298 522 q 315 486 315 498 q 310 446 315 465 q 297 413 305 427 q 277 390 288 399 q 253 382 266 382 q 212 387 231 382 q 179 400 193 391 q 157 419 165 408 q 149 444 149 431 z "},"¸":{"ha":571,"x_min":136,"x_max":435,"o":"m 365 25 l 319 -66 q 369 -83 346 -74 q 407 -107 391 -93 q 429 -142 422 -121 q 431 -191 435 -162 q 415 -238 428 -216 q 379 -276 401 -260 q 328 -301 357 -292 q 260 -310 298 -310 q 211 -305 233 -310 q 172 -294 189 -300 q 136 -278 152 -287 l 151 -235 q 186 -249 168 -243 q 222 -258 202 -254 q 263 -262 242 -262 q 288 -261 277 -262 q 306 -258 298 -260 q 321 -254 314 -256 q 327 -236 324 -245 q 332 -218 330 -228 q 336 -196 334 -208 q 318 -138 339 -159 q 251 -104 298 -117 l 227 -68 l 275 25 l 365 25 z "},"¨":{"ha":621,"x_min":102,"x_max":519,"o":"m 102 930 q 105 962 102 947 q 115 989 109 977 q 129 1007 121 1000 q 146 1014 137 1014 q 179 1010 163 1014 q 205 1000 194 1006 q 224 986 217 994 q 231 968 231 978 q 217 909 231 933 q 185 885 204 885 q 126 898 150 885 q 102 930 102 911 m 391 930 q 394 962 391 947 q 404 989 397 977 q 418 1007 410 1000 q 435 1014 426 1014 q 468 1010 452 1014 q 494 1000 483 1006 q 513 986 506 994 q 519 968 519 978 q 506 909 519 933 q 474 885 493 885 q 415 898 439 885 q 391 930 391 911 z "},"¯":{"ha":697,"x_min":102,"x_max":595,"o":"m 113 992 l 595 992 l 583 918 l 102 918 l 113 992 z "},"ˆ":{"ha":660,"x_min":136,"x_max":524,"o":"m 522 865 l 456 858 l 355 1036 l 199 858 l 136 865 l 138 886 l 332 1139 l 421 1133 l 524 886 l 522 865 z "},"ˇ":{"ha":660,"x_min":136,"x_max":524,"o":"m 138 1126 l 204 1133 l 300 955 l 461 1133 l 524 1126 l 522 1104 l 328 851 l 239 858 l 136 1104 l 138 1126 z "},"˝":{"ha":758,"x_min":102,"x_max":656,"o":"m 105 886 l 277 1133 l 400 1126 l 393 1081 l 152 858 l 102 865 l 105 886 m 361 886 l 534 1133 l 656 1126 l 650 1081 l 408 858 l 358 865 l 361 886 z "},"˘":{"ha":624,"x_min":102,"x_max":522,"o":"m 522 1080 q 497 1007 517 1043 q 446 943 477 971 q 374 896 415 914 q 286 878 334 878 q 203 896 239 878 q 144 943 168 914 q 112 1007 121 971 q 107 1080 102 1043 l 153 1086 q 158 1056 152 1076 q 181 1016 164 1036 q 227 981 198 996 q 298 966 255 966 q 373 981 340 966 q 428 1016 406 996 q 464 1056 451 1036 q 477 1086 476 1076 l 522 1080 z "},"˙":{"ha":475,"x_min":170,"x_max":305,"o":"m 170 956 q 173 990 170 974 q 183 1018 177 1006 q 198 1037 190 1030 q 217 1044 207 1044 q 251 1041 235 1044 q 279 1030 267 1037 q 298 1015 291 1024 q 305 997 305 1006 q 301 962 305 979 q 291 934 298 946 q 276 916 285 922 q 258 909 267 909 q 223 912 239 909 q 195 923 207 916 q 176 938 183 929 q 170 956 170 946 z "},"˚":{"ha":555,"x_min":136,"x_max":419,"o":"m 140 974 q 161 1044 145 1014 q 199 1093 176 1074 q 248 1123 221 1113 q 304 1133 275 1133 q 352 1126 330 1133 q 390 1105 374 1119 q 412 1069 405 1091 q 415 1017 419 1048 q 394 945 409 975 q 357 896 379 915 q 308 867 335 876 q 252 858 281 858 q 202 865 225 858 q 164 886 180 871 q 142 922 149 900 q 140 974 136 944 m 214 996 q 223 926 208 951 q 265 901 239 901 q 286 902 276 901 q 302 907 295 904 q 318 913 311 909 q 327 935 323 922 q 334 960 330 945 q 342 996 338 976 q 335 1065 349 1040 q 290 1090 321 1090 q 274 1088 281 1090 q 259 1084 266 1086 q 244 1078 252 1081 q 233 1058 238 1070 q 223 1033 228 1048 q 214 996 218 1017 z "},"˛":{"ha":563,"x_min":136,"x_max":427,"o":"m 427 0 q 365 -43 397 -19 q 305 -95 332 -67 q 258 -152 277 -122 q 235 -212 239 -182 q 244 -245 233 -235 q 277 -256 256 -256 q 316 -247 296 -256 q 352 -229 336 -239 q 389 -201 371 -216 l 384 -251 q 341 -281 365 -268 q 293 -301 321 -292 q 233 -310 266 -310 q 189 -305 208 -310 q 157 -289 170 -300 q 140 -260 145 -278 q 140 -214 136 -241 q 172 -130 146 -172 q 236 -50 197 -88 q 324 24 275 -11 q 427 86 373 58 l 427 0 z "},"Ə":{"ha":905,"x_min":64,"x_max":880,"o":"m 108 476 l 712 476 l 720 531 q 720 691 732 627 q 675 794 707 755 q 596 849 643 833 q 493 865 549 865 q 379 854 431 865 q 290 829 328 842 q 210 792 245 812 l 222 857 q 526 932 351 932 q 796 840 713 932 q 853 561 880 747 l 846 508 q 697 113 808 241 q 399 -15 587 -15 q 142 78 219 -15 q 91 356 64 170 l 108 476 m 224 387 q 222 229 212 293 q 260 126 232 165 q 332 70 288 87 q 431 52 376 52 q 506 62 472 52 q 564 84 539 72 q 615 117 592 98 q 647 197 631 153 q 675 286 661 235 q 701 399 690 338 l 226 399 l 224 387 z "},"́":{"ha":0,"x_min":-444,"x_max":-146,"o":"m -441 886 l -269 1133 l -146 1126 l -153 1081 l -394 858 l -444 865 l -441 886 z "},"ˊ":{"ha":570,"x_min":136,"x_max":434,"o":"m 139 886 l 311 1133 l 434 1126 l 427 1081 l 186 858 l 136 865 l 139 886 z "},"ˋ":{"ha":500,"x_min":136,"x_max":365,"o":"m 361 865 l 301 858 l 136 1081 l 142 1126 l 262 1133 l 365 886 l 361 865 z "},"̀":{"ha":0,"x_min":-368,"x_max":-138,"o":"m -142 865 l -202 858 l -368 1081 l -361 1126 l -241 1133 l -138 886 l -142 865 z "},"̉":{"ha":0,"x_min":-407,"x_max":-139,"o":"m -237 935 q -261 920 -252 926 q -275 909 -270 913 q -283 900 -281 904 q -286 892 -285 896 q -287 881 -287 886 q -286 871 -286 876 q -283 862 -285 866 l -338 844 q -349 865 -345 854 q -355 884 -352 874 q -357 904 -358 895 q -342 937 -354 921 q -300 972 -330 952 q -268 994 -281 985 q -247 1012 -255 1004 q -235 1028 -239 1020 q -230 1046 -231 1036 q -237 1072 -228 1061 q -271 1082 -247 1082 q -295 1080 -283 1082 q -315 1076 -306 1078 q -334 1070 -325 1074 l -357 1008 l -407 1012 l -395 1095 q -355 1114 -378 1105 q -311 1127 -336 1121 q -253 1133 -285 1133 q -168 1109 -197 1133 q -145 1044 -139 1086 q -175 983 -151 1007 q -237 935 -199 958 z "},"̛":{"ha":0,"x_min":-455,"x_max":-132,"o":"m -174 971 q -139 894 -147 930 q -136 827 -132 857 q -160 754 -141 787 q -216 691 -179 721 q -312 635 -253 662 q -455 582 -370 608 l -446 651 q -359 688 -394 671 q -301 723 -323 705 q -269 759 -279 740 q -254 802 -258 778 q -255 846 -251 826 q -266 882 -259 867 q -284 912 -273 899 l -281 932 l -174 971 z "},"̆":{"ha":0,"x_min":-518,"x_max":-98,"o":"m -98 1080 q -123 1007 -103 1043 q -174 943 -142 971 q -245 896 -205 914 q -334 878 -286 878 q -417 896 -381 878 q -475 943 -452 914 q -508 1007 -498 971 q -513 1080 -518 1043 l -467 1086 q -462 1056 -468 1076 q -439 1016 -456 1036 q -393 981 -422 996 q -321 966 -365 966 q -247 981 -280 966 q -192 1016 -214 996 q -156 1056 -169 1036 q -142 1086 -144 1076 l -98 1080 z "},"̂":{"ha":0,"x_min":-525,"x_max":-136,"o":"m -139 865 l -205 858 l -306 1036 l -462 858 l -525 865 l -522 886 l -328 1139 l -239 1133 l -136 886 l -139 865 z "},"̃":{"ha":0,"x_min":-668,"x_max":-100,"o":"m -665 886 q -609 997 -654 960 q -494 1035 -564 1035 q -422 1021 -458 1035 q -353 990 -387 1007 q -291 959 -320 973 q -237 945 -261 945 q -189 967 -210 945 q -161 1034 -168 989 l -100 1040 l -105 1008 q -157 900 -115 939 q -268 860 -199 860 q -338 874 -301 860 q -412 905 -376 888 q -482 936 -449 922 q -540 949 -515 949 q -564 946 -552 949 q -585 935 -576 943 q -602 913 -595 927 q -613 876 -610 899 l -668 869 l -665 886 z "},"ˉ":{"ha":697,"x_min":102,"x_max":595,"o":"m 114 992 l 595 992 l 583 918 l 102 918 l 114 992 z "},"̄":{"ha":0,"x_min":-593,"x_max":-99,"o":"m -581 992 l -99 992 l -112 918 l -593 918 l -581 992 z "},"̋":{"ha":0,"x_min":-658,"x_max":-103,"o":"m -654 886 l -482 1133 l -359 1126 l -366 1081 l -608 858 l -658 865 l -654 886 m -398 886 l -226 1133 l -103 1126 l -110 1081 l -351 858 l -401 865 l -398 886 z "},"̊":{"ha":0,"x_min":-423,"x_max":-140,"o":"m -419 974 q -398 1044 -414 1014 q -360 1093 -382 1074 q -311 1123 -338 1113 q -255 1133 -283 1133 q -207 1126 -229 1133 q -169 1105 -184 1119 q -147 1069 -154 1091 q -144 1017 -140 1048 q -165 945 -150 975 q -202 896 -180 915 q -251 867 -224 876 q -307 858 -278 858 q -356 865 -334 858 q -394 886 -379 871 q -416 922 -410 900 q -419 974 -423 944 m -345 996 q -336 926 -351 951 q -294 901 -320 901 q -273 902 -283 901 q -256 907 -264 904 q -241 913 -248 909 q -232 935 -236 922 q -224 960 -229 945 q -217 996 -220 976 q -224 1065 -210 1040 q -269 1090 -238 1090 q -285 1088 -277 1090 q -300 1084 -293 1086 q -315 1078 -307 1081 q -326 1058 -321 1070 q -336 1033 -331 1048 q -345 996 -341 1017 z "},"̈":{"ha":0,"x_min":-515,"x_max":-97,"o":"m -515 930 q -511 962 -515 947 q -502 989 -508 977 q -488 1007 -496 1000 q -470 1014 -479 1014 q -438 1010 -453 1014 q -411 1000 -422 1006 q -393 986 -399 994 q -386 968 -386 978 q -399 909 -386 933 q -431 885 -412 885 q -491 898 -467 885 q -515 930 -515 911 m -226 930 q -222 962 -226 947 q -213 989 -219 977 q -199 1007 -207 1000 q -181 1014 -191 1014 q -149 1010 -164 1014 q -122 1000 -134 1006 q -104 986 -111 994 q -97 968 -97 978 q -110 909 -97 933 q -142 885 -123 885 q -202 898 -178 885 q -226 930 -226 911 z "},"̌":{"ha":0,"x_min":-524,"x_max":-136,"o":"m -522 1126 l -456 1133 l -360 955 l -199 1133 l -136 1126 l -138 1104 l -332 851 l -421 858 l -524 1104 l -522 1126 z "},"̇":{"ha":0,"x_min":-305,"x_max":-170,"o":"m -305 956 q -301 990 -305 974 q -291 1018 -298 1006 q -276 1037 -285 1030 q -258 1044 -268 1044 q -224 1041 -240 1044 q -196 1030 -208 1037 q -177 1015 -184 1024 q -170 997 -170 1006 q -173 962 -170 979 q -183 934 -177 946 q -199 916 -190 922 q -217 909 -208 909 q -252 912 -235 909 q -280 923 -268 916 q -298 938 -292 929 q -305 956 -305 946 z "},"̣":{"ha":0,"x_min":-305,"x_max":-170,"o":"m -305 -216 q -301 -182 -305 -198 q -291 -154 -298 -166 q -276 -135 -285 -142 q -258 -127 -268 -127 q -224 -131 -240 -127 q -196 -141 -208 -135 q -177 -157 -184 -148 q -170 -175 -170 -165 q -173 -210 -170 -193 q -183 -238 -177 -226 q -199 -256 -190 -250 q -217 -263 -208 -263 q -252 -259 -235 -263 q -280 -249 -268 -256 q -298 -234 -292 -243 q -305 -216 -305 -226 z "},"ã":{"ha":785,"x_min":43,"x_max":762,"o":"m 687 0 l 531 -15 l 476 38 l 494 167 q 372 35 441 84 q 233 -15 304 -15 q 82 50 121 -15 q 62 253 43 114 l 80 380 q 200 651 105 551 q 433 751 296 751 q 554 737 488 751 q 690 698 621 723 l 602 71 l 699 58 l 687 0 m 193 313 q 191 120 174 182 q 274 58 207 58 q 393 113 331 58 q 506 253 454 168 l 564 671 q 496 688 532 682 q 429 694 460 694 q 355 684 391 694 q 291 660 319 675 q 242 552 264 615 q 205 401 220 488 l 193 313 m 197 886 q 253 997 208 960 q 368 1035 298 1035 q 440 1021 404 1035 q 509 990 475 1007 q 571 959 542 973 q 625 945 601 945 q 673 967 652 945 q 701 1034 694 989 l 762 1040 l 757 1008 q 705 900 747 939 q 594 860 663 860 q 524 874 561 860 q 450 905 486 888 q 380 936 413 922 q 322 949 347 949 q 298 946 310 949 q 277 935 286 943 q 260 913 267 927 q 249 876 252 899 l 194 869 l 197 886 z "},"ä":{"ha":785,"x_min":43,"x_max":699,"o":"m 687 0 l 531 -15 l 476 38 l 494 167 q 372 35 441 84 q 233 -15 304 -15 q 82 50 121 -15 q 62 253 43 114 l 80 380 q 200 651 105 551 q 433 751 296 751 q 554 737 488 751 q 690 698 621 723 l 602 71 l 699 58 l 687 0 m 193 313 q 191 120 174 182 q 274 58 207 58 q 393 113 331 58 q 506 253 454 168 l 564 671 q 496 688 532 682 q 429 694 460 694 q 355 684 391 694 q 291 660 319 675 q 242 552 264 615 q 205 401 220 488 l 193 313 m 264 930 q 268 962 264 947 q 277 989 271 977 q 292 1007 283 1000 q 309 1014 300 1014 q 341 1010 326 1014 q 368 1000 357 1006 q 387 986 380 994 q 393 968 393 978 q 380 909 393 933 q 348 885 367 885 q 289 898 313 885 q 264 930 264 911 m 553 930 q 557 962 553 947 q 566 989 560 977 q 581 1007 572 1000 q 598 1014 589 1014 q 630 1010 615 1014 q 657 1000 646 1006 q 675 986 669 994 q 682 968 682 978 q 669 909 682 933 q 637 885 656 885 q 577 898 602 885 q 553 930 553 911 z "},"ā":{"ha":785,"x_min":43,"x_max":732,"o":"m 687 0 l 531 -15 l 476 38 l 494 167 q 372 35 441 84 q 233 -15 304 -15 q 82 50 121 -15 q 62 253 43 114 l 80 380 q 200 651 105 551 q 433 751 296 751 q 554 737 488 751 q 690 698 621 723 l 602 71 l 699 58 l 687 0 m 193 313 q 191 120 174 182 q 274 58 207 58 q 393 113 331 58 q 506 253 454 168 l 564 671 q 496 688 532 682 q 429 694 460 694 q 355 684 391 694 q 291 660 319 675 q 242 552 264 615 q 205 401 220 488 l 193 313 m 250 992 l 732 992 l 720 918 l 238 918 l 250 992 z "},"â":{"ha":785,"x_min":43,"x_max":699,"o":"m 687 0 l 531 -15 l 476 38 l 494 167 q 372 35 441 84 q 233 -15 304 -15 q 82 50 121 -15 q 62 253 43 114 l 80 380 q 200 651 105 551 q 433 751 296 751 q 554 737 488 751 q 690 698 621 723 l 602 71 l 699 58 l 687 0 m 193 313 q 191 120 174 182 q 274 58 207 58 q 393 113 331 58 q 506 253 454 168 l 564 671 q 496 688 532 682 q 429 694 460 694 q 355 684 391 694 q 291 660 319 675 q 242 552 264 615 q 205 401 220 488 l 193 313 m 643 865 l 577 858 l 476 1036 l 320 858 l 257 865 l 260 886 l 454 1139 l 543 1133 l 646 886 l 643 865 z "},"ǎ":{"ha":785,"x_min":43,"x_max":703,"o":"m 687 0 l 531 -15 l 476 38 l 494 167 q 372 35 441 84 q 233 -15 304 -15 q 82 50 121 -15 q 62 253 43 114 l 80 380 q 200 651 105 551 q 433 751 296 751 q 554 737 488 751 q 690 698 621 723 l 602 71 l 699 58 l 687 0 m 193 313 q 191 120 174 182 q 274 58 207 58 q 393 113 331 58 q 506 253 454 168 l 564 671 q 496 688 532 682 q 429 694 460 694 q 355 684 391 694 q 291 660 319 675 q 242 552 264 615 q 205 401 220 488 l 193 313 m 317 1126 l 382 1133 l 478 955 l 640 1133 l 703 1126 l 700 1104 l 506 851 l 417 858 l 314 1104 l 317 1126 z "},"ă":{"ha":785,"x_min":43,"x_max":699,"o":"m 687 0 l 531 -15 l 476 38 l 494 167 q 372 35 441 84 q 233 -15 304 -15 q 82 50 121 -15 q 62 253 43 114 l 80 380 q 200 651 105 551 q 433 751 296 751 q 554 737 488 751 q 690 698 621 723 l 602 71 l 699 58 l 687 0 m 193 313 q 191 120 174 182 q 274 58 207 58 q 393 113 331 58 q 506 253 454 168 l 564 671 q 496 688 532 682 q 429 694 460 694 q 355 684 391 694 q 291 660 319 675 q 242 552 264 615 q 205 401 220 488 l 193 313 m 696 1080 q 671 1007 691 1043 q 621 943 652 971 q 549 896 589 914 q 460 878 508 878 q 377 896 413 878 q 319 943 342 914 q 286 1007 296 971 q 281 1080 276 1043 l 328 1086 q 332 1056 326 1076 q 355 1016 338 1036 q 401 981 372 996 q 473 966 429 966 q 547 981 514 966 q 603 1016 580 996 q 638 1056 625 1036 q 652 1086 650 1076 l 696 1080 z "},"å":{"ha":785,"x_min":43,"x_max":699,"o":"m 687 0 l 531 -15 l 476 38 l 494 167 q 372 35 441 84 q 233 -15 304 -15 q 82 50 121 -15 q 62 253 43 114 l 80 380 q 200 651 105 551 q 433 751 296 751 q 554 737 488 751 q 690 698 621 723 l 602 71 l 699 58 l 687 0 m 193 313 q 191 120 174 182 q 274 58 207 58 q 393 113 331 58 q 506 253 454 168 l 564 671 q 496 688 532 682 q 429 694 460 694 q 355 684 391 694 q 291 660 319 675 q 242 552 264 615 q 205 401 220 488 l 193 313 m 350 974 q 371 1044 355 1014 q 409 1093 387 1074 q 458 1123 431 1113 q 514 1133 486 1133 q 562 1126 540 1133 q 600 1105 585 1119 q 622 1069 615 1091 q 625 1017 629 1048 q 604 945 619 975 q 567 896 589 915 q 518 867 545 876 q 462 858 491 858 q 413 865 435 858 q 375 886 390 871 q 353 922 359 900 q 350 974 346 944 m 425 996 q 433 926 418 951 q 475 901 449 901 q 496 902 486 901 q 513 907 505 904 q 528 913 521 909 q 537 935 533 922 q 545 960 541 945 q 552 996 549 976 q 545 1065 559 1040 q 500 1090 531 1090 q 484 1088 492 1090 q 469 1084 476 1086 q 454 1078 462 1081 q 443 1058 448 1070 q 433 1033 438 1048 q 425 996 428 1017 z "},"ả":{"ha":785,"x_min":43,"x_max":699,"o":"m 687 0 l 531 -15 l 476 38 l 494 167 q 372 35 441 84 q 233 -15 304 -15 q 82 50 121 -15 q 62 253 43 114 l 80 380 q 200 651 105 551 q 433 751 296 751 q 554 737 488 751 q 690 698 621 723 l 602 71 l 699 58 l 687 0 m 193 313 q 191 120 174 182 q 274 58 207 58 q 393 113 331 58 q 506 253 454 168 l 564 671 q 496 688 532 682 q 429 694 460 694 q 355 684 391 694 q 291 660 319 675 q 242 552 264 615 q 205 401 220 488 l 193 313 m 530 935 q 506 920 515 926 q 492 909 497 913 q 484 900 486 904 q 481 892 482 896 q 480 881 480 886 q 481 871 481 876 q 484 862 482 866 l 429 844 q 418 865 422 854 q 412 884 415 874 q 410 904 409 895 q 425 937 413 921 q 467 972 437 952 q 499 994 486 985 q 520 1012 512 1004 q 532 1028 528 1020 q 537 1046 536 1036 q 530 1072 539 1061 q 496 1082 520 1082 q 472 1080 484 1082 q 452 1076 461 1078 q 433 1070 442 1074 l 410 1008 l 360 1012 l 372 1095 q 412 1114 389 1105 q 456 1127 431 1121 q 514 1133 482 1133 q 599 1109 570 1133 q 622 1044 628 1086 q 592 983 616 1007 q 530 935 568 958 z "},"ẫ":{"ha":785,"x_min":43,"x_max":835,"o":"m 687 0 l 531 -15 l 476 38 l 494 167 q 372 35 441 84 q 233 -15 304 -15 q 82 50 121 -15 q 62 253 43 114 l 80 380 q 200 651 105 551 q 433 751 296 751 q 554 737 488 751 q 690 698 621 723 l 602 71 l 699 58 l 687 0 m 193 313 q 191 120 174 182 q 274 58 207 58 q 393 113 331 58 q 506 253 454 168 l 564 671 q 496 688 532 682 q 429 694 460 694 q 355 684 391 694 q 291 660 319 675 q 242 552 264 615 q 205 401 220 488 l 193 313 m 270 1234 q 326 1345 281 1308 q 441 1383 371 1383 q 513 1369 477 1383 q 582 1338 549 1355 q 645 1307 615 1321 q 698 1293 674 1293 q 746 1315 726 1293 q 774 1381 767 1337 l 835 1388 l 830 1356 q 778 1247 820 1287 q 667 1208 736 1208 q 597 1222 634 1208 q 523 1253 559 1236 q 453 1283 486 1270 q 395 1297 420 1297 q 371 1294 383 1297 q 350 1283 359 1291 q 333 1261 340 1275 q 322 1224 326 1246 l 267 1217 l 270 1234 m 669 865 l 603 858 l 502 1036 l 346 858 l 283 865 l 286 886 l 479 1139 l 568 1133 l 671 886 l 669 865 z "},"ấ":{"ha":785,"x_min":43,"x_max":865,"o":"m 687 0 l 531 -15 l 476 38 l 494 167 q 372 35 441 84 q 233 -15 304 -15 q 82 50 121 -15 q 62 253 43 114 l 80 380 q 200 651 105 551 q 433 751 296 751 q 554 737 488 751 q 690 698 621 723 l 602 71 l 699 58 l 687 0 m 193 313 q 191 120 174 182 q 274 58 207 58 q 393 113 331 58 q 506 253 454 168 l 564 671 q 496 688 532 682 q 429 694 460 694 q 355 684 391 694 q 291 660 319 675 q 242 552 264 615 q 205 401 220 488 l 193 313 m 669 865 l 603 858 l 502 1036 l 346 858 l 283 865 l 286 886 l 479 1139 l 568 1133 l 671 886 l 669 865 m 650 1066 l 769 1227 l 865 1220 l 858 1175 l 690 1038 l 646 1044 l 650 1066 z "},"ầ":{"ha":785,"x_min":43,"x_max":699,"o":"m 687 0 l 531 -15 l 476 38 l 494 167 q 372 35 441 84 q 233 -15 304 -15 q 82 50 121 -15 q 62 253 43 114 l 80 380 q 200 651 105 551 q 433 751 296 751 q 554 737 488 751 q 690 698 621 723 l 602 71 l 699 58 l 687 0 m 193 313 q 191 120 174 182 q 274 58 207 58 q 393 113 331 58 q 506 253 454 168 l 564 671 q 496 688 532 682 q 429 694 460 694 q 355 684 391 694 q 291 660 319 675 q 242 552 264 615 q 205 401 220 488 l 193 313 m 669 865 l 603 858 l 502 1036 l 346 858 l 283 865 l 286 886 l 479 1139 l 568 1133 l 671 886 l 669 865 m 366 1044 l 313 1038 l 197 1175 l 203 1220 l 289 1227 l 370 1066 l 366 1044 z "},"ẩ":{"ha":785,"x_min":43,"x_max":862,"o":"m 687 0 l 531 -15 l 476 38 l 494 167 q 372 35 441 84 q 233 -15 304 -15 q 82 50 121 -15 q 62 253 43 114 l 80 380 q 200 651 105 551 q 433 751 296 751 q 554 737 488 751 q 690 698 621 723 l 602 71 l 699 58 l 687 0 m 193 313 q 191 120 174 182 q 274 58 207 58 q 393 113 331 58 q 506 253 454 168 l 564 671 q 496 688 532 682 q 429 694 460 694 q 355 684 391 694 q 291 660 319 675 q 242 552 264 615 q 205 401 220 488 l 193 313 m 669 865 l 603 858 l 502 1036 l 346 858 l 283 865 l 286 886 l 479 1139 l 568 1133 l 671 886 l 669 865 m 764 1117 q 740 1102 749 1108 q 726 1091 731 1096 q 718 1082 720 1086 q 715 1074 716 1078 q 714 1063 714 1069 q 715 1054 715 1058 q 718 1044 716 1048 l 663 1026 q 652 1047 656 1036 q 646 1067 649 1057 q 644 1086 643 1077 q 659 1119 647 1103 q 701 1155 671 1135 q 733 1177 720 1167 q 754 1194 746 1186 q 766 1210 762 1202 q 771 1228 770 1218 q 764 1254 773 1243 q 730 1265 754 1265 q 706 1263 718 1265 q 686 1259 695 1261 q 667 1253 676 1256 l 644 1191 l 594 1194 l 606 1278 q 646 1296 623 1288 q 690 1309 665 1303 q 748 1315 716 1315 q 833 1292 804 1315 q 856 1227 862 1269 q 826 1165 850 1190 q 764 1117 802 1141 z "},"ẵ":{"ha":785,"x_min":43,"x_max":821,"o":"m 687 0 l 531 -15 l 476 38 l 494 167 q 372 35 441 84 q 233 -15 304 -15 q 82 50 121 -15 q 62 253 43 114 l 80 380 q 200 651 105 551 q 433 751 296 751 q 554 737 488 751 q 690 698 621 723 l 602 71 l 699 58 l 687 0 m 193 313 q 191 120 174 182 q 274 58 207 58 q 393 113 331 58 q 506 253 454 168 l 564 671 q 496 688 532 682 q 429 694 460 694 q 355 684 391 694 q 291 660 319 675 q 242 552 264 615 q 205 401 220 488 l 193 313 m 715 1080 q 690 1007 710 1043 q 640 943 671 971 q 568 896 608 914 q 479 878 527 878 q 396 896 432 878 q 338 943 361 914 q 305 1007 315 971 q 300 1080 295 1043 l 347 1086 q 351 1056 345 1076 q 374 1016 357 1036 q 420 981 391 996 q 492 966 448 966 q 566 981 533 966 q 622 1016 599 996 q 657 1056 644 1036 q 671 1086 669 1076 l 715 1080 m 256 1161 q 312 1272 267 1234 q 427 1310 357 1310 q 499 1296 464 1310 q 568 1265 535 1282 q 631 1234 602 1248 q 684 1220 661 1220 q 733 1242 712 1220 q 761 1308 753 1263 l 821 1315 l 817 1283 q 764 1174 806 1214 q 654 1135 722 1135 q 583 1148 621 1135 q 509 1179 546 1162 q 439 1210 473 1196 q 382 1224 406 1224 q 358 1221 370 1224 q 336 1210 346 1218 q 319 1187 327 1202 q 309 1151 312 1173 l 254 1144 l 256 1161 z "},"ắ":{"ha":785,"x_min":43,"x_max":755,"o":"m 687 0 l 531 -15 l 476 38 l 494 167 q 372 35 441 84 q 233 -15 304 -15 q 82 50 121 -15 q 62 253 43 114 l 80 380 q 200 651 105 551 q 433 751 296 751 q 554 737 488 751 q 690 698 621 723 l 602 71 l 699 58 l 687 0 m 193 313 q 191 120 174 182 q 274 58 207 58 q 393 113 331 58 q 506 253 454 168 l 564 671 q 496 688 532 682 q 429 694 460 694 q 355 684 391 694 q 291 660 319 675 q 242 552 264 615 q 205 401 220 488 l 193 313 m 715 1080 q 690 1007 710 1043 q 640 943 671 971 q 568 896 608 914 q 479 878 527 878 q 396 896 432 878 q 338 943 361 914 q 305 1007 315 971 q 300 1080 295 1043 l 347 1086 q 351 1056 345 1076 q 374 1016 357 1036 q 420 981 391 996 q 492 966 448 966 q 566 981 533 966 q 622 1016 599 996 q 657 1056 644 1036 q 671 1086 669 1076 l 715 1080 m 460 1106 l 633 1352 l 755 1345 l 749 1301 l 507 1078 l 457 1084 l 460 1106 z "},"ằ":{"ha":785,"x_min":43,"x_max":715,"o":"m 687 0 l 531 -15 l 476 38 l 494 167 q 372 35 441 84 q 233 -15 304 -15 q 82 50 121 -15 q 62 253 43 114 l 80 380 q 200 651 105 551 q 433 751 296 751 q 554 737 488 751 q 690 698 621 723 l 602 71 l 699 58 l 687 0 m 193 313 q 191 120 174 182 q 274 58 207 58 q 393 113 331 58 q 506 253 454 168 l 564 671 q 496 688 532 682 q 429 694 460 694 q 355 684 391 694 q 291 660 319 675 q 242 552 264 615 q 205 401 220 488 l 193 313 m 715 1080 q 690 1007 710 1043 q 640 943 671 971 q 568 896 608 914 q 479 878 527 878 q 396 896 432 878 q 338 943 361 914 q 305 1007 315 971 q 300 1080 295 1043 l 347 1086 q 351 1056 345 1076 q 374 1016 357 1036 q 420 981 391 996 q 492 966 448 966 q 566 981 533 966 q 622 1016 599 996 q 657 1056 644 1036 q 671 1086 669 1076 l 715 1080 m 570 1085 l 509 1078 l 344 1301 l 351 1346 l 470 1353 l 573 1107 l 570 1085 z "},"ẳ":{"ha":785,"x_min":43,"x_max":715,"o":"m 687 0 l 531 -15 l 476 38 l 494 167 q 372 35 441 84 q 233 -15 304 -15 q 82 50 121 -15 q 62 253 43 114 l 80 380 q 200 651 105 551 q 433 751 296 751 q 554 737 488 751 q 690 698 621 723 l 602 71 l 699 58 l 687 0 m 193 313 q 191 120 174 182 q 274 58 207 58 q 393 113 331 58 q 506 253 454 168 l 564 671 q 496 688 532 682 q 429 694 460 694 q 355 684 391 694 q 291 660 319 675 q 242 552 264 615 q 205 401 220 488 l 193 313 m 715 1080 q 690 1007 710 1043 q 640 943 671 971 q 568 896 608 914 q 479 878 527 878 q 396 896 432 878 q 338 943 361 914 q 305 1007 315 971 q 300 1080 295 1043 l 347 1086 q 351 1056 345 1076 q 374 1016 357 1036 q 420 981 391 996 q 492 966 448 966 q 566 981 533 966 q 622 1016 599 996 q 657 1056 644 1036 q 671 1086 669 1076 l 715 1080 m 591 1155 q 567 1140 576 1146 q 553 1129 558 1134 q 545 1120 547 1124 q 543 1112 543 1116 q 542 1101 541 1107 q 543 1092 542 1096 q 545 1082 543 1086 l 490 1064 q 479 1085 484 1074 q 473 1105 476 1095 q 471 1124 470 1115 q 486 1157 474 1141 q 528 1193 498 1173 q 560 1215 547 1205 q 581 1232 573 1224 q 593 1248 589 1240 q 598 1266 597 1256 q 591 1292 600 1281 q 557 1303 581 1303 q 533 1301 545 1303 q 513 1297 522 1299 q 494 1291 503 1294 l 471 1229 l 421 1232 l 433 1316 q 473 1334 450 1326 q 517 1347 492 1341 q 575 1353 543 1353 q 660 1330 631 1353 q 683 1265 689 1307 q 653 1203 677 1227 q 591 1155 629 1179 z "},"ạ":{"ha":785,"x_min":43,"x_max":699,"o":"m 687 0 l 531 -15 l 476 38 l 494 167 q 372 35 441 84 q 233 -15 304 -15 q 82 50 121 -15 q 62 253 43 114 l 80 380 q 200 651 105 551 q 433 751 296 751 q 554 737 488 751 q 690 698 621 723 l 602 71 l 699 58 l 687 0 m 193 313 q 191 120 174 182 q 274 58 207 58 q 393 113 331 58 q 506 253 454 168 l 564 671 q 496 688 532 682 q 429 694 460 694 q 355 684 391 694 q 291 660 319 675 q 242 552 264 615 q 205 401 220 488 l 193 313 m 250 -216 q 254 -182 250 -198 q 264 -154 258 -166 q 279 -135 271 -142 q 298 -127 288 -127 q 331 -131 315 -127 q 359 -141 347 -135 q 379 -157 372 -148 q 386 -175 386 -165 q 382 -210 386 -193 q 372 -238 378 -226 q 357 -256 366 -250 q 338 -263 348 -263 q 304 -259 320 -263 q 276 -249 288 -256 q 257 -234 264 -243 q 250 -216 250 -226 z "},"ặ":{"ha":785,"x_min":43,"x_max":699,"o":"m 687 0 l 531 -15 l 476 38 l 494 167 q 372 35 441 84 q 233 -15 304 -15 q 82 50 121 -15 q 62 253 43 114 l 80 380 q 200 651 105 551 q 433 751 296 751 q 554 737 488 751 q 690 698 621 723 l 602 71 l 699 58 l 687 0 m 193 313 q 191 120 174 182 q 274 58 207 58 q 393 113 331 58 q 506 253 454 168 l 564 671 q 496 688 532 682 q 429 694 460 694 q 355 684 391 694 q 291 660 319 675 q 242 552 264 615 q 205 401 220 488 l 193 313 m 250 -216 q 254 -182 250 -198 q 264 -154 258 -166 q 279 -135 271 -142 q 298 -127 288 -127 q 331 -131 315 -127 q 359 -141 347 -135 q 379 -157 372 -148 q 386 -175 386 -165 q 382 -210 386 -193 q 372 -238 378 -226 q 357 -256 366 -250 q 338 -263 348 -263 q 304 -259 320 -263 q 276 -249 288 -256 q 257 -234 264 -243 q 250 -216 250 -226 m 696 1080 q 671 1007 691 1043 q 621 943 652 971 q 549 896 589 914 q 460 878 508 878 q 377 896 413 878 q 319 943 342 914 q 286 1007 296 971 q 281 1080 276 1043 l 328 1086 q 332 1056 326 1076 q 355 1016 338 1036 q 401 981 372 996 q 473 966 429 966 q 547 981 514 966 q 603 1016 580 996 q 638 1056 625 1036 q 652 1086 650 1076 l 696 1080 z "},"ậ":{"ha":785,"x_min":43,"x_max":699,"o":"m 687 0 l 531 -15 l 476 38 l 494 167 q 372 35 441 84 q 233 -15 304 -15 q 82 50 121 -15 q 62 253 43 114 l 80 380 q 200 651 105 551 q 433 751 296 751 q 554 737 488 751 q 690 698 621 723 l 602 71 l 699 58 l 687 0 m 193 313 q 191 120 174 182 q 274 58 207 58 q 393 113 331 58 q 506 253 454 168 l 564 671 q 496 688 532 682 q 429 694 460 694 q 355 684 391 694 q 291 660 319 675 q 242 552 264 615 q 205 401 220 488 l 193 313 m 250 -216 q 254 -182 250 -198 q 264 -154 258 -166 q 279 -135 271 -142 q 298 -127 288 -127 q 331 -131 315 -127 q 359 -141 347 -135 q 379 -157 372 -148 q 386 -175 386 -165 q 382 -210 386 -193 q 372 -238 378 -226 q 357 -256 366 -250 q 338 -263 348 -263 q 304 -259 320 -263 q 276 -249 288 -256 q 257 -234 264 -243 q 250 -216 250 -226 m 643 865 l 577 858 l 476 1036 l 320 858 l 257 865 l 260 886 l 454 1139 l 543 1133 l 646 886 l 643 865 z "},"ç":{"ha":628,"x_min":40,"x_max":627,"o":"m 589 555 l 530 548 l 530 671 q 481 685 509 680 q 422 690 453 690 q 355 680 388 690 q 297 656 321 671 q 235 535 260 604 q 196 381 210 467 l 184 300 q 210 112 168 177 q 326 46 252 46 q 421 63 370 46 q 518 107 473 79 l 518 49 q 414 2 475 20 q 342 -12 379 -7 l 315 -66 q 365 -83 342 -74 q 402 -107 387 -93 q 425 -142 418 -121 q 427 -191 431 -162 q 411 -238 424 -216 q 375 -276 397 -260 q 323 -301 353 -292 q 256 -310 294 -310 q 207 -305 229 -310 q 168 -294 184 -300 q 132 -278 148 -287 l 147 -235 q 182 -249 164 -243 q 218 -258 198 -254 q 259 -262 238 -262 q 283 -261 273 -262 q 302 -258 294 -260 q 317 -254 310 -256 q 323 -236 320 -245 q 328 -218 326 -228 q 332 -196 330 -208 q 314 -138 335 -159 q 247 -104 294 -117 l 222 -68 l 251 -13 q 98 60 149 -3 q 61 291 40 136 l 71 354 q 198 646 98 542 q 437 751 298 751 q 541 742 492 751 q 627 715 591 733 l 589 555 z "},"ć":{"ha":628,"x_min":40,"x_max":721,"o":"m 589 555 l 530 548 l 530 671 q 481 685 509 680 q 422 690 453 690 q 355 680 388 690 q 297 656 321 671 q 235 535 260 604 q 196 381 210 467 l 184 300 q 210 112 168 177 q 326 46 252 46 q 421 63 370 46 q 518 107 473 79 l 518 49 q 414 2 475 20 q 290 -15 354 -15 q 99 60 157 -15 q 61 291 40 136 l 71 354 q 198 646 98 542 q 437 751 298 751 q 541 742 492 751 q 627 715 591 733 l 589 555 m 426 886 l 598 1133 l 721 1126 l 714 1081 l 473 858 l 422 865 l 426 886 z "},"ĉ":{"ha":628,"x_min":40,"x_max":627,"o":"m 589 555 l 530 548 l 530 671 q 481 685 509 680 q 422 690 453 690 q 355 680 388 690 q 297 656 321 671 q 235 535 260 604 q 196 381 210 467 l 184 300 q 210 112 168 177 q 326 46 252 46 q 421 63 370 46 q 518 107 473 79 l 518 49 q 414 2 475 20 q 290 -15 354 -15 q 99 60 157 -15 q 61 291 40 136 l 71 354 q 198 646 98 542 q 437 751 298 751 q 541 742 492 751 q 627 715 591 733 l 589 555 m 625 865 l 559 858 l 458 1036 l 302 858 l 239 865 l 241 886 l 435 1139 l 524 1133 l 627 886 l 625 865 z "},"č":{"ha":628,"x_min":40,"x_max":684,"o":"m 589 555 l 530 548 l 530 671 q 481 685 509 680 q 422 690 453 690 q 355 680 388 690 q 297 656 321 671 q 235 535 260 604 q 196 381 210 467 l 184 300 q 210 112 168 177 q 326 46 252 46 q 421 63 370 46 q 518 107 473 79 l 518 49 q 414 2 475 20 q 290 -15 354 -15 q 99 60 157 -15 q 61 291 40 136 l 71 354 q 198 646 98 542 q 437 751 298 751 q 541 742 492 751 q 627 715 591 733 l 589 555 m 298 1126 l 364 1133 l 460 955 l 621 1133 l 684 1126 l 682 1104 l 488 851 l 399 858 l 296 1104 l 298 1126 z "},"ċ":{"ha":628,"x_min":40,"x_max":627,"o":"m 589 555 l 530 548 l 530 671 q 481 685 509 680 q 422 690 453 690 q 355 680 388 690 q 297 656 321 671 q 235 535 260 604 q 196 381 210 467 l 184 300 q 210 112 168 177 q 326 46 252 46 q 421 63 370 46 q 518 107 473 79 l 518 49 q 414 2 475 20 q 290 -15 354 -15 q 99 60 157 -15 q 61 291 40 136 l 71 354 q 198 646 98 542 q 437 751 298 751 q 541 742 492 751 q 627 715 591 733 l 589 555 m 402 956 q 406 990 402 974 q 416 1018 410 1006 q 431 1037 422 1030 q 450 1044 439 1044 q 483 1041 467 1044 q 511 1030 499 1037 q 531 1015 524 1024 q 538 997 538 1006 q 534 962 538 979 q 524 934 530 946 q 509 916 517 922 q 490 909 500 909 q 456 912 472 909 q 428 923 439 916 q 409 938 416 929 q 402 956 402 946 z "},"̱":{"ha":0,"x_min":-591,"x_max":-98,"o":"m -579 -132 l -98 -132 l -110 -206 l -591 -206 l -579 -132 z "},"ď":{"ha":787,"x_min":43,"x_max":948,"o":"m 522 1044 l 678 1059 l 733 1006 l 602 71 l 699 58 l 687 0 l 531 -15 l 476 38 l 494 167 q 372 35 439 84 q 235 -15 304 -15 q 82 51 120 -15 q 62 253 43 116 l 80 380 q 199 653 105 555 q 433 751 294 751 q 502 746 466 751 q 573 733 537 741 l 606 973 l 511 987 l 522 1044 m 193 313 q 192 113 172 168 q 274 58 212 58 q 393 114 331 58 q 506 254 455 169 l 564 671 q 502 687 538 681 q 429 694 465 694 q 355 684 392 694 q 291 660 319 675 q 240 545 264 616 q 205 401 216 475 l 193 313 m 836 1044 l 948 1044 l 945 1016 l 869 785 l 800 785 l 836 1044 z "},"ḍ":{"ha":787,"x_min":43,"x_max":733,"o":"m 522 1044 l 678 1059 l 733 1006 l 602 71 l 699 58 l 687 0 l 531 -15 l 476 38 l 494 167 q 372 35 439 84 q 235 -15 304 -15 q 82 51 120 -15 q 62 253 43 116 l 80 380 q 199 653 105 555 q 433 751 294 751 q 502 746 466 751 q 573 733 537 741 l 606 973 l 511 987 l 522 1044 m 193 313 q 192 113 172 168 q 274 58 212 58 q 393 114 331 58 q 506 254 455 169 l 564 671 q 502 687 538 681 q 429 694 465 694 q 355 684 392 694 q 291 660 319 675 q 240 545 264 616 q 205 401 216 475 l 193 313 m 243 -216 q 247 -182 243 -198 q 257 -154 251 -166 q 272 -135 264 -142 q 291 -127 281 -127 q 325 -131 309 -127 q 353 -141 340 -135 q 372 -157 365 -148 q 379 -175 379 -165 q 375 -210 379 -193 q 365 -238 372 -226 q 350 -256 359 -250 q 332 -263 341 -263 q 297 -259 313 -263 q 269 -249 281 -256 q 250 -234 257 -243 q 243 -216 243 -226 z "},"ḏ":{"ha":787,"x_min":43,"x_max":733,"o":"m 522 1044 l 678 1059 l 733 1006 l 602 71 l 699 58 l 687 0 l 531 -15 l 476 38 l 494 167 q 372 35 439 84 q 235 -15 304 -15 q 82 51 120 -15 q 62 253 43 116 l 80 380 q 199 653 105 555 q 433 751 294 751 q 502 746 466 751 q 573 733 537 741 l 606 973 l 511 987 l 522 1044 m 193 313 q 192 113 172 168 q 274 58 212 58 q 393 114 331 58 q 506 254 455 169 l 564 671 q 502 687 538 681 q 429 694 465 694 q 355 684 392 694 q 291 660 319 675 q 240 545 264 616 q 205 401 216 475 l 193 313 m 96 -132 l 578 -132 l 566 -206 l 84 -206 l 96 -132 z "},"̨":{"ha":0,"x_min":-425,"x_max":-134,"o":"m -134 0 q -196 -43 -164 -19 q -256 -95 -229 -67 q -303 -152 -283 -122 q -326 -212 -322 -182 q -317 -245 -328 -235 q -284 -256 -305 -256 q -245 -247 -264 -256 q -209 -229 -225 -239 q -172 -201 -190 -216 l -177 -251 q -220 -281 -196 -268 q -268 -301 -240 -292 q -328 -310 -295 -310 q -372 -305 -353 -310 q -404 -289 -391 -300 q -420 -260 -416 -278 q -421 -214 -425 -241 q -389 -130 -414 -172 q -325 -50 -363 -88 q -237 24 -286 -11 q -134 86 -188 58 l -134 0 z "},"ę":{"ha":635,"x_min":39,"x_max":625,"o":"m 612 566 q 518 396 597 458 q 321 334 439 334 q 245 336 280 334 q 189 340 211 338 l 184 300 q 208 112 167 177 q 319 46 248 46 q 408 64 360 46 q 467 92 440 77 l 490 107 l 490 49 q 482 43 486 46 q 425 -7 453 21 q 365 -75 392 -40 q 320 -146 338 -111 q 298 -212 302 -182 q 307 -245 296 -235 q 340 -256 319 -256 q 379 -247 359 -256 q 415 -229 399 -239 q 452 -201 434 -216 l 447 -251 q 404 -281 428 -268 q 356 -301 384 -292 q 296 -310 329 -310 q 252 -305 271 -310 q 220 -289 233 -300 q 203 -260 208 -278 q 203 -214 198 -241 q 235 -134 209 -176 q 299 -50 260 -92 q 337 -11 317 -31 q 282 -15 311 -15 q 96 61 153 -15 q 60 291 39 137 l 69 354 q 187 643 94 536 q 416 751 279 751 q 575 701 526 751 q 612 566 625 652 m 294 656 q 236 541 262 610 q 197 395 210 472 q 272 392 235 393 q 345 391 309 391 q 401 398 374 391 q 450 418 429 405 q 472 475 464 446 q 486 544 481 505 q 473 651 496 612 q 395 690 450 690 q 344 681 370 690 q 294 656 317 672 z "},"ą":{"ha":785,"x_min":43,"x_max":699,"o":"m 687 0 q 623 -47 654 -22 q 565 -100 591 -73 q 521 -156 538 -127 q 500 -212 503 -184 q 509 -245 497 -235 q 541 -256 520 -256 q 581 -247 561 -256 q 616 -229 600 -239 q 654 -201 635 -216 l 648 -251 q 606 -281 629 -268 q 558 -301 585 -292 q 498 -310 530 -310 q 453 -305 473 -310 q 422 -289 434 -300 q 405 -260 410 -278 q 404 -214 400 -241 q 434 -141 410 -176 q 495 -71 457 -105 q 574 -11 529 -40 l 531 -15 l 476 38 l 494 167 q 372 35 441 84 q 233 -15 304 -15 q 82 50 121 -15 q 62 253 43 114 l 80 380 q 200 651 105 551 q 433 751 296 751 q 554 737 488 751 q 690 698 621 723 l 602 71 l 699 58 l 687 0 m 193 313 q 191 120 174 182 q 274 58 207 58 q 393 113 331 58 q 506 253 454 168 l 564 671 q 496 688 532 682 q 429 694 460 694 q 355 684 391 694 q 291 660 319 675 q 242 552 264 615 q 205 401 220 488 l 193 313 z "},"ẽ":{"ha":635,"x_min":39,"x_max":736,"o":"m 612 566 q 518 396 597 458 q 321 334 439 334 q 245 336 280 334 q 189 340 211 338 l 184 300 q 208 112 167 177 q 319 46 248 46 q 408 64 360 46 q 490 107 455 82 l 490 49 q 398 3 453 21 q 282 -15 344 -15 q 96 61 153 -15 q 60 291 39 137 l 69 354 q 187 643 94 536 q 416 751 279 751 q 575 701 526 751 q 612 566 625 652 m 294 656 q 236 541 262 610 q 197 395 210 472 q 272 392 235 393 q 345 391 309 391 q 401 398 374 391 q 450 418 429 405 q 472 475 464 446 q 486 544 481 505 q 473 651 496 612 q 395 690 450 690 q 344 681 370 690 q 294 656 317 672 m 172 886 q 228 997 182 960 q 342 1035 273 1035 q 415 1021 379 1035 q 484 990 450 1007 q 546 959 517 973 q 600 945 576 945 q 648 967 627 945 q 676 1034 669 989 l 736 1040 l 732 1008 q 680 900 722 939 q 569 860 637 860 q 498 874 536 860 q 425 905 461 888 q 355 936 388 922 q 297 949 321 949 q 273 946 285 949 q 252 935 261 943 q 235 913 242 927 q 224 876 227 899 l 169 869 l 172 886 z "},"ë":{"ha":635,"x_min":39,"x_max":657,"o":"m 612 566 q 518 396 597 458 q 321 334 439 334 q 245 336 280 334 q 189 340 211 338 l 184 300 q 208 112 167 177 q 319 46 248 46 q 408 64 360 46 q 490 107 455 82 l 490 49 q 398 3 453 21 q 282 -15 344 -15 q 96 61 153 -15 q 60 291 39 137 l 69 354 q 187 643 94 536 q 416 751 279 751 q 575 701 526 751 q 612 566 625 652 m 294 656 q 236 541 262 610 q 197 395 210 472 q 272 392 235 393 q 345 391 309 391 q 401 398 374 391 q 450 418 429 405 q 472 475 464 446 q 486 544 481 505 q 473 651 496 612 q 395 690 450 690 q 344 681 370 690 q 294 656 317 672 m 239 930 q 243 962 239 947 q 252 989 246 977 q 267 1007 258 1000 q 284 1014 275 1014 q 316 1010 301 1014 q 343 1000 332 1006 q 361 986 355 994 q 368 968 368 978 q 355 909 368 933 q 323 885 342 885 q 263 898 288 885 q 239 930 239 911 m 528 930 q 532 962 528 947 q 541 989 535 977 q 555 1007 547 1000 q 573 1014 564 1014 q 605 1010 590 1014 q 632 1000 621 1006 q 650 986 644 994 q 657 968 657 978 q 644 909 657 933 q 612 885 631 885 q 552 898 576 885 q 528 930 528 911 z "},"ē":{"ha":635,"x_min":39,"x_max":707,"o":"m 612 566 q 518 396 597 458 q 321 334 439 334 q 245 336 280 334 q 189 340 211 338 l 184 300 q 208 112 167 177 q 319 46 248 46 q 408 64 360 46 q 490 107 455 82 l 490 49 q 398 3 453 21 q 282 -15 344 -15 q 96 61 153 -15 q 60 291 39 137 l 69 354 q 187 643 94 536 q 416 751 279 751 q 575 701 526 751 q 612 566 625 652 m 294 656 q 236 541 262 610 q 197 395 210 472 q 272 392 235 393 q 345 391 309 391 q 401 398 374 391 q 450 418 429 405 q 472 475 464 446 q 486 544 481 505 q 473 651 496 612 q 395 690 450 690 q 344 681 370 690 q 294 656 317 672 m 224 992 l 707 992 l 694 918 l 213 918 l 224 992 z "},"ê":{"ha":635,"x_min":39,"x_max":625,"o":"m 612 566 q 518 396 597 458 q 321 334 439 334 q 245 336 280 334 q 189 340 211 338 l 184 300 q 208 112 167 177 q 319 46 248 46 q 408 64 360 46 q 490 107 455 82 l 490 49 q 398 3 453 21 q 282 -15 344 -15 q 96 61 153 -15 q 60 291 39 137 l 69 354 q 187 643 94 536 q 416 751 279 751 q 575 701 526 751 q 612 566 625 652 m 294 656 q 236 541 262 610 q 197 395 210 472 q 272 392 235 393 q 345 391 309 391 q 401 398 374 391 q 450 418 429 405 q 472 475 464 446 q 486 544 481 505 q 473 651 496 612 q 395 690 450 690 q 344 681 370 690 q 294 656 317 672 m 618 865 l 552 858 l 451 1036 l 295 858 l 232 865 l 235 886 l 429 1139 l 517 1133 l 621 886 l 618 865 z "},"ě":{"ha":635,"x_min":39,"x_max":677,"o":"m 612 566 q 518 396 597 458 q 321 334 439 334 q 245 336 280 334 q 189 340 211 338 l 184 300 q 208 112 167 177 q 319 46 248 46 q 408 64 360 46 q 490 107 455 82 l 490 49 q 398 3 453 21 q 282 -15 344 -15 q 96 61 153 -15 q 60 291 39 137 l 69 354 q 187 643 94 536 q 416 751 279 751 q 575 701 526 751 q 612 566 625 652 m 294 656 q 236 541 262 610 q 197 395 210 472 q 272 392 235 393 q 345 391 309 391 q 401 398 374 391 q 450 418 429 405 q 472 475 464 446 q 486 544 481 505 q 473 651 496 612 q 395 690 450 690 q 344 681 370 690 q 294 656 317 672 m 292 1126 l 357 1133 l 453 955 l 614 1133 l 677 1126 l 675 1104 l 481 851 l 392 858 l 289 1104 l 292 1126 z "},"ĕ":{"ha":635,"x_min":39,"x_max":671,"o":"m 612 566 q 518 396 597 458 q 321 334 439 334 q 245 336 280 334 q 189 340 211 338 l 184 300 q 208 112 167 177 q 319 46 248 46 q 408 64 360 46 q 490 107 455 82 l 490 49 q 398 3 453 21 q 282 -15 344 -15 q 96 61 153 -15 q 60 291 39 137 l 69 354 q 187 643 94 536 q 416 751 279 751 q 575 701 526 751 q 612 566 625 652 m 294 656 q 236 541 262 610 q 197 395 210 472 q 272 392 235 393 q 345 391 309 391 q 401 398 374 391 q 450 418 429 405 q 472 475 464 446 q 486 544 481 505 q 473 651 496 612 q 395 690 450 690 q 344 681 370 690 q 294 656 317 672 m 671 1080 q 646 1007 666 1043 q 595 943 627 971 q 524 896 564 914 q 435 878 483 878 q 352 896 388 878 q 294 943 317 914 q 261 1007 271 971 q 256 1080 251 1043 l 302 1086 q 307 1056 301 1076 q 330 1016 313 1036 q 376 981 347 996 q 448 966 404 966 q 522 981 489 966 q 577 1016 555 996 q 613 1056 600 1036 q 627 1086 625 1076 l 671 1080 z "},"ė":{"ha":635,"x_min":39,"x_max":625,"o":"m 612 566 q 518 396 597 458 q 321 334 439 334 q 245 336 280 334 q 189 340 211 338 l 184 300 q 208 112 167 177 q 319 46 248 46 q 408 64 360 46 q 490 107 455 82 l 490 49 q 398 3 453 21 q 282 -15 344 -15 q 96 61 153 -15 q 60 291 39 137 l 69 354 q 187 643 94 536 q 416 751 279 751 q 575 701 526 751 q 612 566 625 652 m 294 656 q 236 541 262 610 q 197 395 210 472 q 272 392 235 393 q 345 391 309 391 q 401 398 374 391 q 450 418 429 405 q 472 475 464 446 q 486 544 481 505 q 473 651 496 612 q 395 690 450 690 q 344 681 370 690 q 294 656 317 672 m 395 956 q 399 990 395 974 q 409 1018 403 1006 q 424 1037 416 1030 q 443 1044 433 1044 q 476 1041 460 1044 q 505 1030 492 1037 q 524 1015 517 1024 q 531 997 531 1006 q 527 962 531 979 q 517 934 524 946 q 502 916 511 922 q 484 909 493 909 q 449 912 465 909 q 421 923 433 916 q 402 938 409 929 q 395 956 395 946 z "},"ẻ":{"ha":635,"x_min":39,"x_max":625,"o":"m 612 566 q 518 396 597 458 q 321 334 439 334 q 245 336 280 334 q 189 340 211 338 l 184 300 q 208 112 167 177 q 319 46 248 46 q 408 64 360 46 q 490 107 455 82 l 490 49 q 398 3 453 21 q 282 -15 344 -15 q 96 61 153 -15 q 60 291 39 137 l 69 354 q 187 643 94 536 q 416 751 279 751 q 575 701 526 751 q 612 566 625 652 m 294 656 q 236 541 262 610 q 197 395 210 472 q 272 392 235 393 q 345 391 309 391 q 401 398 374 391 q 450 418 429 405 q 472 475 464 446 q 486 544 481 505 q 473 651 496 612 q 395 690 450 690 q 344 681 370 690 q 294 656 317 672 m 505 935 q 481 920 490 926 q 467 909 472 913 q 459 900 461 904 q 456 892 457 896 q 455 881 455 886 q 456 871 456 876 q 458 862 457 866 l 404 844 q 393 865 397 854 q 387 884 390 874 q 385 904 384 895 q 400 937 388 921 q 442 972 412 952 q 474 994 461 985 q 495 1012 487 1004 q 507 1028 503 1020 q 512 1046 511 1036 q 505 1072 514 1061 q 471 1082 495 1082 q 447 1080 458 1082 q 427 1076 436 1078 q 408 1070 417 1074 l 385 1008 l 335 1012 l 347 1095 q 387 1114 364 1105 q 431 1127 406 1121 q 489 1133 457 1133 q 574 1109 545 1133 q 597 1044 603 1086 q 567 983 591 1007 q 505 935 543 958 z "},"ễ":{"ha":635,"x_min":39,"x_max":810,"o":"m 612 566 q 518 396 597 458 q 321 334 439 334 q 245 336 280 334 q 189 340 211 338 l 184 300 q 208 112 167 177 q 319 46 248 46 q 408 64 360 46 q 490 107 455 82 l 490 49 q 398 3 453 21 q 282 -15 344 -15 q 96 61 153 -15 q 60 291 39 137 l 69 354 q 187 643 94 536 q 416 751 279 751 q 575 701 526 751 q 612 566 625 652 m 294 656 q 236 541 262 610 q 197 395 210 472 q 272 392 235 393 q 345 391 309 391 q 401 398 374 391 q 450 418 429 405 q 472 475 464 446 q 486 544 481 505 q 473 651 496 612 q 395 690 450 690 q 344 681 370 690 q 294 656 317 672 m 245 1234 q 301 1345 256 1308 q 416 1383 346 1383 q 488 1369 452 1383 q 557 1338 524 1355 q 620 1307 590 1321 q 673 1293 649 1293 q 721 1315 701 1293 q 749 1381 742 1337 l 810 1388 l 805 1356 q 753 1247 795 1287 q 642 1208 711 1208 q 572 1222 609 1208 q 498 1253 534 1236 q 428 1283 461 1270 q 370 1297 395 1297 q 346 1294 358 1297 q 325 1283 334 1291 q 308 1261 315 1275 q 297 1224 300 1246 l 242 1217 l 245 1234 m 644 865 l 578 858 l 477 1036 l 321 858 l 258 865 l 260 886 l 454 1139 l 543 1133 l 646 886 l 644 865 z "},"ế":{"ha":635,"x_min":39,"x_max":840,"o":"m 612 566 q 518 396 597 458 q 321 334 439 334 q 245 336 280 334 q 189 340 211 338 l 184 300 q 208 112 167 177 q 319 46 248 46 q 408 64 360 46 q 490 107 455 82 l 490 49 q 398 3 453 21 q 282 -15 344 -15 q 96 61 153 -15 q 60 291 39 137 l 69 354 q 187 643 94 536 q 416 751 279 751 q 575 701 526 751 q 612 566 625 652 m 294 656 q 236 541 262 610 q 197 395 210 472 q 272 392 235 393 q 345 391 309 391 q 401 398 374 391 q 450 418 429 405 q 472 475 464 446 q 486 544 481 505 q 473 651 496 612 q 395 690 450 690 q 344 681 370 690 q 294 656 317 672 m 644 865 l 578 858 l 477 1036 l 321 858 l 258 865 l 260 886 l 454 1139 l 543 1133 l 646 886 l 644 865 m 625 1066 l 744 1227 l 840 1220 l 833 1175 l 665 1038 l 621 1044 l 625 1066 z "},"ề":{"ha":635,"x_min":39,"x_max":646,"o":"m 612 566 q 518 396 597 458 q 321 334 439 334 q 245 336 280 334 q 189 340 211 338 l 184 300 q 208 112 167 177 q 319 46 248 46 q 408 64 360 46 q 490 107 455 82 l 490 49 q 398 3 453 21 q 282 -15 344 -15 q 96 61 153 -15 q 60 291 39 137 l 69 354 q 187 643 94 536 q 416 751 279 751 q 575 701 526 751 q 612 566 625 652 m 294 656 q 236 541 262 610 q 197 395 210 472 q 272 392 235 393 q 345 391 309 391 q 401 398 374 391 q 450 418 429 405 q 472 475 464 446 q 486 544 481 505 q 473 651 496 612 q 395 690 450 690 q 344 681 370 690 q 294 656 317 672 m 644 865 l 578 858 l 477 1036 l 321 858 l 258 865 l 260 886 l 454 1139 l 543 1133 l 646 886 l 644 865 m 341 1044 l 288 1038 l 172 1175 l 178 1220 l 264 1227 l 345 1066 l 341 1044 z "},"ể":{"ha":635,"x_min":39,"x_max":837,"o":"m 612 566 q 518 396 597 458 q 321 334 439 334 q 245 336 280 334 q 189 340 211 338 l 184 300 q 208 112 167 177 q 319 46 248 46 q 408 64 360 46 q 490 107 455 82 l 490 49 q 398 3 453 21 q 282 -15 344 -15 q 96 61 153 -15 q 60 291 39 137 l 69 354 q 187 643 94 536 q 416 751 279 751 q 575 701 526 751 q 612 566 625 652 m 294 656 q 236 541 262 610 q 197 395 210 472 q 272 392 235 393 q 345 391 309 391 q 401 398 374 391 q 450 418 429 405 q 472 475 464 446 q 486 544 481 505 q 473 651 496 612 q 395 690 450 690 q 344 681 370 690 q 294 656 317 672 m 644 865 l 578 858 l 477 1036 l 321 858 l 258 865 l 260 886 l 454 1139 l 543 1133 l 646 886 l 644 865 m 739 1117 q 715 1102 724 1108 q 701 1091 706 1096 q 693 1082 695 1086 q 690 1074 691 1078 q 689 1063 689 1069 q 690 1054 690 1058 q 692 1044 691 1048 l 637 1026 q 627 1047 631 1036 q 621 1067 624 1057 q 619 1086 618 1077 q 634 1119 622 1103 q 676 1155 646 1135 q 708 1177 695 1167 q 729 1194 721 1186 q 741 1210 737 1202 q 746 1228 745 1218 q 739 1254 748 1243 q 705 1265 729 1265 q 681 1263 692 1265 q 661 1259 670 1261 q 642 1253 651 1256 l 618 1191 l 569 1194 l 581 1278 q 621 1296 598 1288 q 665 1309 640 1303 q 723 1315 691 1315 q 808 1292 779 1315 q 831 1227 837 1269 q 801 1165 825 1190 q 739 1117 777 1141 z "},"ẹ":{"ha":635,"x_min":39,"x_max":625,"o":"m 612 566 q 518 396 597 458 q 321 334 439 334 q 245 336 280 334 q 189 340 211 338 l 184 300 q 208 112 167 177 q 319 46 248 46 q 408 64 360 46 q 490 107 455 82 l 490 49 q 398 3 453 21 q 282 -15 344 -15 q 96 61 153 -15 q 60 291 39 137 l 69 354 q 187 643 94 536 q 416 751 279 751 q 575 701 526 751 q 612 566 625 652 m 294 656 q 236 541 262 610 q 197 395 210 472 q 272 392 235 393 q 345 391 309 391 q 401 398 374 391 q 450 418 429 405 q 472 475 464 446 q 486 544 481 505 q 473 651 496 612 q 395 690 450 690 q 344 681 370 690 q 294 656 317 672 m 195 -216 q 199 -182 195 -198 q 209 -154 203 -166 q 224 -135 216 -142 q 243 -127 233 -127 q 276 -131 260 -127 q 304 -141 292 -135 q 324 -157 317 -148 q 331 -175 331 -165 q 327 -210 331 -193 q 317 -238 323 -226 q 302 -256 311 -250 q 283 -263 293 -263 q 249 -259 265 -263 q 221 -249 233 -256 q 202 -234 209 -243 q 195 -216 195 -226 z "},"ệ":{"ha":635,"x_min":39,"x_max":625,"o":"m 612 566 q 518 396 597 458 q 321 334 439 334 q 245 336 280 334 q 189 340 211 338 l 184 300 q 208 112 167 177 q 319 46 248 46 q 408 64 360 46 q 490 107 455 82 l 490 49 q 398 3 453 21 q 282 -15 344 -15 q 96 61 153 -15 q 60 291 39 137 l 69 354 q 187 643 94 536 q 416 751 279 751 q 575 701 526 751 q 612 566 625 652 m 294 656 q 236 541 262 610 q 197 395 210 472 q 272 392 235 393 q 345 391 309 391 q 401 398 374 391 q 450 418 429 405 q 472 475 464 446 q 486 544 481 505 q 473 651 496 612 q 395 690 450 690 q 344 681 370 690 q 294 656 317 672 m 195 -216 q 199 -182 195 -198 q 209 -154 203 -166 q 224 -135 216 -142 q 243 -127 233 -127 q 276 -131 260 -127 q 304 -141 292 -135 q 324 -157 317 -148 q 331 -175 331 -165 q 327 -210 331 -193 q 317 -238 323 -226 q 302 -256 311 -250 q 283 -263 293 -263 q 249 -259 265 -263 q 221 -249 233 -256 q 202 -234 209 -243 q 195 -216 195 -226 m 618 865 l 552 858 l 451 1036 l 295 858 l 232 865 l 235 886 l 429 1139 l 517 1133 l 621 886 l 618 865 z "},"̦":{"ha":0,"x_min":-315,"x_max":-166,"o":"m -279 -102 l -166 -102 l -170 -131 l -245 -362 l -315 -362 l -279 -102 z "},"ǵ":{"ha":755,"x_min":4,"x_max":731,"o":"m 26 -168 q 187 -215 107 -197 q 321 -233 267 -233 q 424 -121 382 -198 q 479 60 465 -45 l 494 166 q 371 33 437 81 q 235 -15 304 -15 q 81 53 117 -15 q 63 253 44 121 l 81 380 q 199 649 104 547 q 433 751 294 751 q 560 736 491 751 q 690 698 629 721 l 605 87 q 480 -209 578 -108 q 237 -310 383 -310 q 110 -296 174 -310 q 4 -262 47 -281 l 26 -168 m 193 313 q 193 114 173 170 q 275 58 212 58 q 390 110 329 58 q 506 252 451 162 l 564 671 q 500 687 537 681 q 429 694 464 694 q 355 684 391 694 q 292 660 318 675 q 239 543 262 613 q 206 401 216 472 l 193 313 m 436 886 l 608 1133 l 731 1126 l 724 1081 l 483 858 l 433 865 l 436 886 z "},"ḡ":{"ha":755,"x_min":4,"x_max":724,"o":"m 26 -168 q 187 -215 107 -197 q 321 -233 267 -233 q 424 -121 382 -198 q 479 60 465 -45 l 494 166 q 371 33 437 81 q 235 -15 304 -15 q 81 53 117 -15 q 63 253 44 121 l 81 380 q 199 649 104 547 q 433 751 294 751 q 560 736 491 751 q 690 698 629 721 l 605 87 q 480 -209 578 -108 q 237 -310 383 -310 q 110 -296 174 -310 q 4 -262 47 -281 l 26 -168 m 193 313 q 193 114 173 170 q 275 58 212 58 q 390 110 329 58 q 506 252 451 162 l 564 671 q 500 687 537 681 q 429 694 464 694 q 355 684 391 694 q 292 660 318 675 q 239 543 262 613 q 206 401 216 472 l 193 313 m 241 992 l 724 992 l 711 918 l 230 918 l 241 992 z "},"ĝ":{"ha":755,"x_min":4,"x_max":690,"o":"m 26 -168 q 187 -215 107 -197 q 321 -233 267 -233 q 424 -121 382 -198 q 479 60 465 -45 l 494 166 q 371 33 437 81 q 235 -15 304 -15 q 81 53 117 -15 q 63 253 44 121 l 81 380 q 199 649 104 547 q 433 751 294 751 q 560 736 491 751 q 690 698 629 721 l 605 87 q 480 -209 578 -108 q 237 -310 383 -310 q 110 -296 174 -310 q 4 -262 47 -281 l 26 -168 m 193 313 q 193 114 173 170 q 275 58 212 58 q 390 110 329 58 q 506 252 451 162 l 564 671 q 500 687 537 681 q 429 694 464 694 q 355 684 391 694 q 292 660 318 675 q 239 543 262 613 q 206 401 216 472 l 193 313 m 635 865 l 569 858 l 468 1036 l 312 858 l 249 865 l 252 886 l 446 1139 l 534 1133 l 637 886 l 635 865 z "},"ǧ":{"ha":755,"x_min":4,"x_max":694,"o":"m 26 -168 q 187 -215 107 -197 q 321 -233 267 -233 q 424 -121 382 -198 q 479 60 465 -45 l 494 166 q 371 33 437 81 q 235 -15 304 -15 q 81 53 117 -15 q 63 253 44 121 l 81 380 q 199 649 104 547 q 433 751 294 751 q 560 736 491 751 q 690 698 629 721 l 605 87 q 480 -209 578 -108 q 237 -310 383 -310 q 110 -296 174 -310 q 4 -262 47 -281 l 26 -168 m 193 313 q 193 114 173 170 q 275 58 212 58 q 390 110 329 58 q 506 252 451 162 l 564 671 q 500 687 537 681 q 429 694 464 694 q 355 684 391 694 q 292 660 318 675 q 239 543 262 613 q 206 401 216 472 l 193 313 m 309 1126 l 374 1133 l 470 955 l 631 1133 l 694 1126 l 692 1104 l 498 851 l 409 858 l 306 1104 l 309 1126 z "},"ğ":{"ha":755,"x_min":4,"x_max":690,"o":"m 26 -168 q 187 -215 107 -197 q 321 -233 267 -233 q 424 -121 382 -198 q 479 60 465 -45 l 494 166 q 371 33 437 81 q 235 -15 304 -15 q 81 53 117 -15 q 63 253 44 121 l 81 380 q 199 649 104 547 q 433 751 294 751 q 560 736 491 751 q 690 698 629 721 l 605 87 q 480 -209 578 -108 q 237 -310 383 -310 q 110 -296 174 -310 q 4 -262 47 -281 l 26 -168 m 193 313 q 193 114 173 170 q 275 58 212 58 q 390 110 329 58 q 506 252 451 162 l 564 671 q 500 687 537 681 q 429 694 464 694 q 355 684 391 694 q 292 660 318 675 q 239 543 262 613 q 206 401 216 472 l 193 313 m 688 1080 q 663 1007 683 1043 q 612 943 644 971 q 541 896 581 914 q 452 878 500 878 q 369 896 405 878 q 311 943 334 914 q 278 1007 288 971 q 273 1080 268 1043 l 319 1086 q 324 1056 318 1076 q 347 1016 330 1036 q 393 981 364 996 q 465 966 421 966 q 539 981 506 966 q 594 1016 572 996 q 630 1056 617 1036 q 644 1086 642 1076 l 688 1080 z "},"ġ":{"ha":755,"x_min":4,"x_max":690,"o":"m 26 -168 q 187 -215 107 -197 q 321 -233 267 -233 q 424 -121 382 -198 q 479 60 465 -45 l 494 166 q 371 33 437 81 q 235 -15 304 -15 q 81 53 117 -15 q 63 253 44 121 l 81 380 q 199 649 104 547 q 433 751 294 751 q 560 736 491 751 q 690 698 629 721 l 605 87 q 480 -209 578 -108 q 237 -310 383 -310 q 110 -296 174 -310 q 4 -262 47 -281 l 26 -168 m 193 313 q 193 114 173 170 q 275 58 212 58 q 390 110 329 58 q 506 252 451 162 l 564 671 q 500 687 537 681 q 429 694 464 694 q 355 684 391 694 q 292 660 318 675 q 239 543 262 613 q 206 401 216 472 l 193 313 m 412 956 q 416 990 412 974 q 426 1018 420 1006 q 441 1037 433 1030 q 460 1044 450 1044 q 493 1041 477 1044 q 522 1030 509 1037 q 541 1015 534 1024 q 548 997 548 1006 q 544 962 548 979 q 534 934 541 946 q 519 916 528 922 q 500 909 510 909 q 466 912 482 909 q 438 923 450 916 q 419 938 426 929 q 412 956 412 946 z "},"ģ":{"ha":755,"x_min":4,"x_max":690,"o":"m 26 -168 q 187 -215 107 -197 q 321 -233 267 -233 q 424 -121 382 -198 q 479 60 465 -45 l 494 166 q 371 33 437 81 q 235 -15 304 -15 q 81 53 117 -15 q 63 253 44 121 l 81 380 q 199 649 104 547 q 433 751 294 751 q 560 736 491 751 q 690 698 629 721 l 605 87 q 480 -209 578 -108 q 237 -310 383 -310 q 110 -296 174 -310 q 4 -262 47 -281 l 26 -168 m 193 313 q 193 114 173 170 q 275 58 212 58 q 390 110 329 58 q 506 252 451 162 l 564 671 q 500 687 537 681 q 429 694 464 694 q 355 684 391 694 q 292 660 318 675 q 239 543 262 613 q 206 401 216 472 l 193 313 m 466 1118 l 578 1118 l 575 1089 l 500 858 l 430 858 l 466 1118 z "},"̮":{"ha":0,"x_min":-518,"x_max":-98,"o":"m -98 -127 q -123 -200 -103 -164 q -174 -264 -142 -236 q -245 -311 -205 -293 q -334 -329 -286 -329 q -417 -311 -381 -329 q -475 -264 -452 -293 q -508 -200 -498 -236 q -513 -127 -518 -164 l -467 -121 q -462 -152 -468 -132 q -439 -192 -456 -172 q -393 -226 -422 -212 q -321 -241 -365 -241 q -247 -226 -280 -241 q -192 -192 -214 -212 q -156 -152 -169 -172 q -142 -121 -144 -132 l -98 -127 z "},"ḥ":{"ha":857,"x_min":90,"x_max":762,"o":"m 750 0 l 594 -15 l 538 38 l 602 496 q 602 635 615 593 q 538 677 588 677 q 411 627 478 677 q 279 484 343 576 l 210 -15 l 90 0 l 225 973 l 130 987 l 141 1044 l 297 1059 l 352 1006 l 291 568 q 429 701 352 652 q 584 751 507 751 q 710 703 675 751 q 732 555 746 656 l 665 71 l 762 58 l 750 0 m 304 -216 q 308 -182 304 -198 q 318 -154 311 -166 q 333 -135 324 -142 q 351 -127 341 -127 q 385 -131 369 -127 q 413 -141 401 -135 q 432 -157 425 -148 q 439 -175 439 -165 q 436 -210 439 -193 q 426 -238 432 -226 q 410 -256 419 -250 q 392 -263 401 -263 q 357 -259 374 -263 q 329 -249 341 -256 q 311 -234 317 -243 q 304 -216 304 -226 z "},"ḫ":{"ha":857,"x_min":90,"x_max":762,"o":"m 750 0 l 594 -15 l 538 38 l 602 496 q 602 635 615 593 q 538 677 588 677 q 411 627 478 677 q 279 484 343 576 l 210 -15 l 90 0 l 225 973 l 130 987 l 141 1044 l 297 1059 l 352 1006 l 291 568 q 429 701 352 652 q 584 751 507 751 q 710 703 675 751 q 732 555 746 656 l 665 71 l 762 58 l 750 0 m 574 -127 q 549 -200 569 -164 q 498 -264 530 -236 q 427 -311 467 -293 q 338 -329 386 -329 q 255 -311 291 -329 q 197 -264 220 -293 q 164 -200 174 -236 q 159 -127 154 -164 l 205 -121 q 210 -152 204 -132 q 233 -192 216 -172 q 279 -226 250 -212 q 351 -241 307 -241 q 425 -226 392 -241 q 480 -192 458 -212 q 516 -152 503 -172 q 530 -121 528 -132 l 574 -127 z "},"ĥ":{"ha":857,"x_min":58,"x_max":762,"o":"m 750 0 l 594 -15 l 538 38 l 602 496 q 602 635 615 593 q 538 677 588 677 q 411 627 478 677 q 279 484 343 576 l 210 -15 l 90 0 l 225 973 l 130 987 l 141 1044 l 297 1059 l 352 1006 l 291 568 q 429 701 352 652 q 584 751 507 751 q 710 703 675 751 q 732 555 746 656 l 665 71 l 762 58 l 750 0 m 511 1139 l 439 1133 l 307 1267 l 121 1133 l 58 1139 l 62 1161 l 281 1359 l 370 1352 l 515 1161 l 511 1139 z "},"ĩ":{"ha":432,"x_min":-12,"x_max":555,"o":"m 111 736 l 267 751 l 322 698 l 235 71 l 330 58 l 319 0 l 163 -15 l 108 38 l 195 665 l 99 678 l 111 736 m -9 886 q 46 997 1 960 q 161 1035 92 1035 q 234 1021 198 1035 q 302 990 269 1007 q 365 959 336 973 q 418 945 395 945 q 467 967 446 945 q 495 1034 488 989 l 555 1040 l 551 1008 q 498 900 541 939 q 388 860 456 860 q 317 874 355 860 q 243 905 280 888 q 174 936 207 922 q 116 949 140 949 q 92 946 104 949 q 71 935 80 943 q 54 913 61 927 q 43 876 46 899 l -12 869 l -9 886 z "},"ï":{"ha":432,"x_min":58,"x_max":476,"o":"m 111 736 l 267 751 l 322 698 l 235 71 l 330 58 l 319 0 l 163 -15 l 108 38 l 195 665 l 99 678 l 111 736 m 58 930 q 62 962 58 947 q 71 989 65 977 q 85 1007 77 1000 q 103 1014 94 1014 q 135 1010 120 1014 q 162 1000 151 1006 q 180 986 174 994 q 187 968 187 978 q 174 909 187 933 q 142 885 161 885 q 82 898 106 885 q 58 930 58 911 m 347 930 q 351 962 347 947 q 360 989 354 977 q 374 1007 366 1000 q 392 1014 382 1014 q 424 1010 409 1014 q 451 1000 439 1006 q 469 986 463 994 q 476 968 476 978 q 463 909 476 933 q 431 885 450 885 q 371 898 395 885 q 347 930 347 911 z "},"î":{"ha":432,"x_min":51,"x_max":439,"o":"m 111 736 l 267 751 l 322 698 l 235 71 l 330 58 l 319 0 l 163 -15 l 108 38 l 195 665 l 99 678 l 111 736 m 437 865 l 371 858 l 270 1036 l 114 858 l 51 865 l 54 886 l 248 1139 l 336 1133 l 439 886 l 437 865 z "},"ǐ":{"ha":432,"x_min":99,"x_max":496,"o":"m 111 736 l 267 751 l 322 698 l 235 71 l 330 58 l 319 0 l 163 -15 l 108 38 l 195 665 l 99 678 l 111 736 m 111 1126 l 176 1133 l 272 955 l 433 1133 l 496 1126 l 494 1104 l 300 851 l 211 858 l 108 1104 l 111 1126 z "},"ĭ":{"ha":432,"x_min":70,"x_max":490,"o":"m 111 736 l 267 751 l 322 698 l 235 71 l 330 58 l 319 0 l 163 -15 l 108 38 l 195 665 l 99 678 l 111 736 m 490 1080 q 465 1007 485 1043 q 414 943 446 971 q 342 896 383 914 q 254 878 302 878 q 171 896 207 878 q 113 943 136 914 q 80 1007 90 971 q 75 1080 70 1043 l 121 1086 q 126 1056 120 1076 q 149 1016 132 1036 q 195 981 166 996 q 267 966 223 966 q 341 981 308 966 q 396 1016 374 996 q 432 1056 419 1036 q 446 1086 444 1076 l 490 1080 z "},"ỉ":{"ha":432,"x_min":99,"x_max":421,"o":"m 111 736 l 267 751 l 322 698 l 235 71 l 330 58 l 319 0 l 163 -15 l 108 38 l 195 665 l 99 678 l 111 736 m 323 935 q 299 920 309 926 q 285 909 290 913 q 277 900 279 904 q 275 892 275 896 q 274 881 273 886 q 275 871 274 876 q 277 862 275 866 l 222 844 q 212 865 216 854 q 205 884 208 874 q 203 904 202 895 q 218 937 206 921 q 260 972 230 952 q 292 994 279 985 q 313 1012 305 1004 q 325 1028 321 1020 q 330 1046 329 1036 q 323 1072 332 1061 q 290 1082 313 1082 q 266 1080 277 1082 q 245 1076 254 1078 q 227 1070 235 1074 l 203 1008 l 153 1012 l 165 1095 q 205 1114 182 1105 q 250 1127 224 1121 q 307 1133 275 1133 q 392 1109 363 1133 q 415 1044 421 1086 q 386 983 410 1007 q 323 935 361 958 z "},"ị":{"ha":432,"x_min":95,"x_max":357,"o":"m 111 736 l 267 751 l 322 698 l 235 71 l 330 58 l 319 0 l 163 -15 l 108 38 l 195 665 l 99 678 l 111 736 m 221 956 q 235 1018 221 991 q 269 1044 249 1044 q 330 1030 303 1044 q 357 997 357 1017 q 342 934 357 960 q 309 909 328 909 q 247 923 272 909 q 221 956 221 937 m 95 -216 q 99 -182 95 -198 q 109 -154 102 -166 q 124 -135 115 -142 q 142 -127 132 -127 q 176 -131 160 -127 q 204 -141 192 -135 q 223 -157 216 -148 q 231 -175 231 -165 q 227 -210 231 -193 q 217 -238 223 -226 q 201 -256 210 -250 q 183 -263 193 -263 q 149 -259 165 -263 q 120 -249 132 -256 q 102 -234 109 -243 q 95 -216 95 -226 z "},"į":{"ha":432,"x_min":32,"x_max":357,"o":"m 111 736 l 267 751 l 322 698 l 235 71 l 330 58 l 319 0 q 254 -47 286 -22 q 196 -100 222 -73 q 153 -156 170 -127 q 132 -212 135 -184 q 140 -245 129 -235 q 173 -256 152 -256 q 212 -247 193 -256 q 248 -229 232 -239 q 286 -201 267 -216 l 280 -251 q 237 -281 261 -268 q 190 -301 217 -292 q 130 -310 162 -310 q 85 -305 104 -310 q 54 -289 66 -300 q 37 -260 41 -278 q 36 -214 32 -241 q 65 -141 42 -176 q 127 -71 89 -105 q 207 -10 161 -40 l 163 -15 l 108 38 l 195 665 l 99 678 l 111 736 m 221 956 q 235 1018 221 991 q 269 1044 249 1044 q 330 1030 303 1044 q 357 997 357 1017 q 342 934 357 960 q 309 909 328 909 q 247 923 272 909 q 221 956 221 937 z "},"ȷ":{"ha":393,"x_min":-182,"x_max":320,"o":"m 109 736 l 265 751 l 320 698 l 217 -32 q 183 -166 205 -113 q 130 -252 161 -220 q 59 -297 99 -283 q -26 -310 20 -310 q -87 -305 -59 -310 q -137 -294 -116 -300 q -182 -278 -161 -287 l -151 -203 q -90 -220 -122 -213 q -30 -232 -63 -227 q 35 -237 3 -237 q 58 -194 47 -220 q 77 -139 67 -172 q 93 -58 86 -105 l 193 665 l 97 678 l 109 736 z "},"ī":{"ha":432,"x_min":32,"x_max":526,"o":"m 111 736 l 267 751 l 322 698 l 235 71 l 330 58 l 319 0 l 163 -15 l 108 38 l 195 665 l 99 678 l 111 736 m 43 992 l 526 992 l 513 918 l 32 918 l 43 992 z "},"ĵ":{"ha":393,"x_min":-182,"x_max":442,"o":"m 109 736 l 265 751 l 320 698 l 217 -32 q 183 -166 205 -113 q 130 -252 161 -220 q 59 -297 99 -283 q -26 -310 20 -310 q -87 -305 -59 -310 q -137 -294 -116 -300 q -182 -278 -161 -287 l -151 -203 q -90 -220 -122 -213 q -30 -232 -63 -227 q 35 -237 3 -237 q 58 -194 47 -220 q 77 -139 67 -172 q 93 -58 86 -105 l 193 665 l 97 678 l 109 736 m 439 865 l 374 858 l 273 1036 l 117 858 l 54 865 l 56 886 l 250 1139 l 339 1133 l 442 886 l 439 865 z "},"ǰ":{"ha":393,"x_min":-182,"x_max":499,"o":"m 109 736 l 265 751 l 320 698 l 217 -32 q 183 -166 205 -113 q 130 -252 161 -220 q 59 -297 99 -283 q -26 -310 20 -310 q -87 -305 -59 -310 q -137 -294 -116 -300 q -182 -278 -161 -287 l -151 -203 q -90 -220 -122 -213 q -30 -232 -63 -227 q 35 -237 3 -237 q 58 -194 47 -220 q 77 -139 67 -172 q 93 -58 86 -105 l 193 665 l 97 678 l 109 736 m 113 1126 l 179 1133 l 275 955 l 436 1133 l 499 1126 l 496 1104 l 302 851 l 214 858 l 111 1104 l 113 1126 z "},"ķ":{"ha":753,"x_min":90,"x_max":738,"o":"m 706 0 l 562 -15 l 507 38 l 350 353 q 304 331 328 342 q 256 310 280 319 l 210 -15 l 90 0 l 225 973 l 130 987 l 141 1044 l 298 1059 l 353 1006 l 268 398 q 369 452 320 421 q 461 518 418 483 q 544 592 505 553 q 612 670 582 631 l 555 678 l 567 736 l 667 751 l 738 684 q 690 622 718 656 q 625 553 661 589 q 545 483 589 518 q 452 414 502 447 l 622 71 l 718 58 l 706 0 m 279 -102 l 391 -102 l 388 -131 l 313 -362 l 243 -362 l 279 -102 z "},"ĺ":{"ha":420,"x_min":96,"x_max":568,"o":"m 142 1044 l 299 1059 l 354 1006 l 223 71 l 319 58 l 307 0 l 151 -15 l 96 38 l 227 973 l 131 987 l 142 1044 m 210 1162 l 438 1352 l 568 1345 l 562 1301 l 270 1133 l 206 1140 l 210 1162 z "},"ḷ":{"ha":420,"x_min":82,"x_max":354,"o":"m 142 1044 l 299 1059 l 354 1006 l 223 71 l 319 58 l 307 0 l 151 -15 l 96 38 l 227 973 l 131 987 l 142 1044 m 82 -216 q 86 -182 82 -198 q 96 -154 90 -166 q 111 -135 102 -142 q 130 -127 119 -127 q 163 -131 147 -127 q 191 -141 179 -135 q 211 -157 203 -148 q 218 -175 218 -165 q 214 -210 218 -193 q 204 -238 210 -226 q 189 -256 197 -250 q 170 -263 180 -263 q 136 -259 152 -263 q 107 -249 119 -256 q 89 -234 96 -243 q 82 -216 82 -226 z "},"ḻ":{"ha":420,"x_min":-77,"x_max":416,"o":"m 142 1044 l 299 1059 l 354 1006 l 223 71 l 319 58 l 307 0 l 151 -15 l 96 38 l 227 973 l 131 987 l 142 1044 m -65 -132 l 416 -132 l 404 -206 l -77 -206 l -65 -132 z "},"ļ":{"ha":420,"x_min":60,"x_max":354,"o":"m 142 1044 l 299 1059 l 354 1006 l 223 71 l 319 58 l 307 0 l 151 -15 l 96 38 l 227 973 l 131 987 l 142 1044 m 96 -102 l 208 -102 l 205 -131 l 130 -362 l 60 -362 l 96 -102 z "},"ľ":{"ha":471,"x_min":96,"x_max":570,"o":"m 142 1044 l 299 1059 l 354 1006 l 223 71 l 319 58 l 307 0 l 151 -15 l 96 38 l 227 973 l 131 987 l 142 1044 m 457 1044 l 570 1044 l 566 1016 l 491 785 l 421 785 l 457 1044 z "},"ḹ":{"ha":420,"x_min":41,"x_max":576,"o":"m 142 1044 l 299 1059 l 354 1006 l 223 71 l 319 58 l 307 0 l 151 -15 l 96 38 l 227 973 l 131 987 l 142 1044 m 82 -216 q 86 -182 82 -198 q 96 -154 90 -166 q 111 -135 102 -142 q 130 -127 119 -127 q 163 -131 147 -127 q 191 -141 179 -135 q 211 -157 203 -148 q 218 -175 218 -165 q 214 -210 218 -193 q 204 -238 210 -226 q 189 -256 197 -250 q 170 -263 180 -263 q 136 -259 152 -263 q 107 -249 119 -256 q 89 -234 96 -243 q 82 -216 82 -226 m 54 1268 l 576 1268 l 563 1187 l 41 1187 l 54 1268 z "},"ṃ":{"ha":1311,"x_min":98,"x_max":1216,"o":"m 762 0 l 606 -15 l 551 38 l 614 496 q 614 636 628 595 q 550 677 600 677 q 426 629 493 677 q 292 484 358 580 l 222 -15 l 102 0 l 194 665 l 98 678 l 110 736 l 267 751 l 321 698 l 303 569 q 440 700 362 650 q 596 751 517 751 q 723 703 689 751 q 745 568 756 655 q 886 703 809 654 q 1039 751 963 751 q 1166 702 1131 751 q 1187 555 1201 654 l 1120 71 l 1216 58 l 1204 0 l 1048 -15 l 994 38 l 1057 496 q 1057 634 1070 591 q 993 677 1044 677 q 861 623 930 677 q 734 484 791 568 l 677 71 l 773 58 l 762 0 m 530 -216 q 534 -182 530 -198 q 544 -154 538 -166 q 559 -135 551 -142 q 578 -127 568 -127 q 611 -131 595 -127 q 640 -141 627 -135 q 659 -157 652 -148 q 666 -175 666 -165 q 662 -210 666 -193 q 652 -238 659 -226 q 637 -256 646 -250 q 618 -263 628 -263 q 584 -259 600 -263 q 556 -249 568 -256 q 537 -234 544 -243 q 530 -216 530 -226 z "},"ń":{"ha":867,"x_min":98,"x_max":801,"o":"m 762 0 l 606 -15 l 551 38 l 614 496 q 614 636 627 595 q 550 677 600 677 q 423 627 490 677 q 292 484 355 576 l 222 -15 l 102 0 l 194 665 l 98 678 l 110 736 l 267 751 l 321 698 l 303 569 q 445 703 368 655 q 596 751 522 751 q 723 703 688 751 q 744 555 758 656 l 677 71 l 773 58 l 762 0 m 506 886 l 678 1133 l 801 1126 l 794 1081 l 553 858 l 503 865 l 506 886 z "},"ñ":{"ha":867,"x_min":98,"x_max":823,"o":"m 762 0 l 606 -15 l 551 38 l 614 496 q 614 636 627 595 q 550 677 600 677 q 423 627 490 677 q 292 484 355 576 l 222 -15 l 102 0 l 194 665 l 98 678 l 110 736 l 267 751 l 321 698 l 303 569 q 445 703 368 655 q 596 751 522 751 q 723 703 688 751 q 744 555 758 656 l 677 71 l 773 58 l 762 0 m 258 886 q 314 997 269 960 q 429 1035 359 1035 q 502 1021 466 1035 q 570 990 537 1007 q 633 959 604 973 q 686 945 663 945 q 735 967 714 945 q 763 1034 755 989 l 823 1040 l 819 1008 q 766 900 808 939 q 656 860 724 860 q 585 874 623 860 q 511 905 548 888 q 441 936 475 922 q 384 949 408 949 q 360 946 372 949 q 338 935 348 943 q 321 913 329 927 q 311 876 314 899 l 256 869 l 258 886 z "},"ň":{"ha":867,"x_min":98,"x_max":773,"o":"m 762 0 l 606 -15 l 551 38 l 614 496 q 614 636 627 595 q 550 677 600 677 q 423 627 490 677 q 292 484 355 576 l 222 -15 l 102 0 l 194 665 l 98 678 l 110 736 l 267 751 l 321 698 l 303 569 q 445 703 368 655 q 596 751 522 751 q 723 703 688 751 q 744 555 758 656 l 677 71 l 773 58 l 762 0 m 378 1126 l 444 1133 l 540 955 l 701 1133 l 764 1126 l 762 1104 l 568 851 l 479 858 l 376 1104 l 378 1126 z "},"ṅ":{"ha":867,"x_min":98,"x_max":773,"o":"m 762 0 l 606 -15 l 551 38 l 614 496 q 614 636 627 595 q 550 677 600 677 q 423 627 490 677 q 292 484 355 576 l 222 -15 l 102 0 l 194 665 l 98 678 l 110 736 l 267 751 l 321 698 l 303 569 q 445 703 368 655 q 596 751 522 751 q 723 703 688 751 q 744 555 758 656 l 677 71 l 773 58 l 762 0 m 482 956 q 486 990 482 974 q 496 1018 490 1006 q 511 1037 503 1030 q 530 1044 519 1044 q 563 1041 547 1044 q 591 1030 579 1037 q 611 1015 604 1024 q 618 997 618 1006 q 614 962 618 979 q 604 934 610 946 q 589 916 597 922 q 570 909 580 909 q 536 912 552 909 q 508 923 519 916 q 489 938 496 929 q 482 956 482 946 z "},"ṇ":{"ha":867,"x_min":98,"x_max":773,"o":"m 762 0 l 606 -15 l 551 38 l 614 496 q 614 636 627 595 q 550 677 600 677 q 423 627 490 677 q 292 484 355 576 l 222 -15 l 102 0 l 194 665 l 98 678 l 110 736 l 267 751 l 321 698 l 303 569 q 445 703 368 655 q 596 751 522 751 q 723 703 688 751 q 744 555 758 656 l 677 71 l 773 58 l 762 0 m 315 -216 q 318 -182 315 -198 q 329 -154 322 -166 q 343 -135 335 -142 q 362 -127 352 -127 q 396 -131 380 -127 q 424 -141 412 -135 q 443 -157 436 -148 q 450 -175 450 -165 q 447 -210 450 -193 q 436 -238 443 -226 q 421 -256 430 -250 q 403 -263 412 -263 q 368 -259 385 -263 q 340 -249 352 -256 q 321 -234 328 -243 q 315 -216 315 -226 z "},"ṉ":{"ha":867,"x_min":98,"x_max":773,"o":"m 762 0 l 606 -15 l 551 38 l 614 496 q 614 636 627 595 q 550 677 600 677 q 423 627 490 677 q 292 484 355 576 l 222 -15 l 102 0 l 194 665 l 98 678 l 110 736 l 267 751 l 321 698 l 303 569 q 445 703 368 655 q 596 751 522 751 q 723 703 688 751 q 744 555 758 656 l 677 71 l 773 58 l 762 0 m 168 -132 l 649 -132 l 637 -206 l 155 -206 l 168 -132 z "},"ņ":{"ha":867,"x_min":98,"x_max":773,"o":"m 762 0 l 606 -15 l 551 38 l 614 496 q 614 636 627 595 q 550 677 600 677 q 423 627 490 677 q 292 484 355 576 l 222 -15 l 102 0 l 194 665 l 98 678 l 110 736 l 267 751 l 321 698 l 303 569 q 445 703 368 655 q 596 751 522 751 q 723 703 688 751 q 744 555 758 656 l 677 71 l 773 58 l 762 0 m 328 -102 l 441 -102 l 437 -131 l 362 -362 l 292 -362 l 328 -102 z "},"ò":{"ha":739,"x_min":39,"x_max":700,"o":"m 296 -15 q 99 62 159 -15 q 61 291 39 138 l 71 354 q 198 644 98 538 q 444 751 298 751 q 642 673 584 751 q 678 439 700 595 l 669 374 q 541 94 645 202 q 296 -15 437 -15 m 555 429 q 539 623 572 557 q 422 690 506 690 q 354 680 388 690 q 294 656 321 671 q 234 533 260 606 q 196 381 208 460 l 184 300 q 209 112 168 177 q 318 46 249 46 q 380 55 348 46 q 446 80 412 63 q 504 189 477 121 q 544 348 531 256 l 555 429 m 522 865 l 462 858 l 296 1081 l 303 1126 l 422 1133 l 526 886 l 522 865 z "},"ó":{"ha":739,"x_min":39,"x_max":751,"o":"m 296 -15 q 99 62 159 -15 q 61 291 39 138 l 71 354 q 198 644 98 538 q 444 751 298 751 q 642 673 584 751 q 678 439 700 595 l 669 374 q 541 94 645 202 q 296 -15 437 -15 m 555 429 q 539 623 572 557 q 422 690 506 690 q 354 680 388 690 q 294 656 321 671 q 234 533 260 606 q 196 381 208 460 l 184 300 q 209 112 168 177 q 318 46 249 46 q 380 55 348 46 q 446 80 412 63 q 504 189 477 121 q 544 348 531 256 l 555 429 m 456 886 l 629 1133 l 751 1126 l 745 1081 l 503 858 l 453 865 l 456 886 z "},"õ":{"ha":739,"x_min":39,"x_max":774,"o":"m 296 -15 q 99 62 159 -15 q 61 291 39 138 l 71 354 q 198 644 98 538 q 444 751 298 751 q 642 673 584 751 q 678 439 700 595 l 669 374 q 541 94 645 202 q 296 -15 437 -15 m 555 429 q 539 623 572 557 q 422 690 506 690 q 354 680 388 690 q 294 656 321 671 q 234 533 260 606 q 196 381 208 460 l 184 300 q 209 112 168 177 q 318 46 249 46 q 380 55 348 46 q 446 80 412 63 q 504 189 477 121 q 544 348 531 256 l 555 429 m 209 886 q 265 997 220 960 q 380 1035 310 1035 q 452 1021 416 1035 q 521 990 488 1007 q 584 959 554 973 q 637 945 613 945 q 685 967 665 945 q 713 1034 706 989 l 774 1040 l 769 1008 q 717 900 759 939 q 606 860 675 860 q 536 874 573 860 q 462 905 498 888 q 392 936 425 922 q 334 949 359 949 q 310 946 322 949 q 289 935 298 943 q 272 913 279 927 q 261 876 264 899 l 206 869 l 209 886 z "},"ö":{"ha":739,"x_min":39,"x_max":700,"o":"m 296 -15 q 99 62 159 -15 q 61 291 39 138 l 71 354 q 198 644 98 538 q 444 751 298 751 q 642 673 584 751 q 678 439 700 595 l 669 374 q 541 94 645 202 q 296 -15 437 -15 m 555 429 q 539 623 572 557 q 422 690 506 690 q 354 680 388 690 q 294 656 321 671 q 234 533 260 606 q 196 381 208 460 l 184 300 q 209 112 168 177 q 318 46 249 46 q 380 55 348 46 q 446 80 412 63 q 504 189 477 121 q 544 348 531 256 l 555 429 m 277 930 q 280 962 277 947 q 290 989 283 977 q 304 1007 296 1000 q 321 1014 312 1014 q 354 1010 338 1014 q 380 1000 369 1006 q 399 986 392 994 q 406 968 406 978 q 392 909 406 933 q 360 885 379 885 q 301 898 325 885 q 277 930 277 911 m 566 930 q 569 962 566 947 q 578 989 572 977 q 593 1007 585 1000 q 610 1014 601 1014 q 643 1010 627 1014 q 669 1000 658 1006 q 688 986 681 994 q 694 968 694 978 q 681 909 694 933 q 649 885 668 885 q 590 898 614 885 q 566 930 566 911 z "},"ō":{"ha":739,"x_min":39,"x_max":744,"o":"m 296 -15 q 99 62 159 -15 q 61 291 39 138 l 71 354 q 198 644 98 538 q 444 751 298 751 q 642 673 584 751 q 678 439 700 595 l 669 374 q 541 94 645 202 q 296 -15 437 -15 m 555 429 q 539 623 572 557 q 422 690 506 690 q 354 680 388 690 q 294 656 321 671 q 234 533 260 606 q 196 381 208 460 l 184 300 q 209 112 168 177 q 318 46 249 46 q 380 55 348 46 q 446 80 412 63 q 504 189 477 121 q 544 348 531 256 l 555 429 m 262 992 l 744 992 l 732 918 l 250 918 l 262 992 z "},"ô":{"ha":739,"x_min":39,"x_max":700,"o":"m 296 -15 q 99 62 159 -15 q 61 291 39 138 l 71 354 q 198 644 98 538 q 444 751 298 751 q 642 673 584 751 q 678 439 700 595 l 669 374 q 541 94 645 202 q 296 -15 437 -15 m 555 429 q 539 623 572 557 q 422 690 506 690 q 354 680 388 690 q 294 656 321 671 q 234 533 260 606 q 196 381 208 460 l 184 300 q 209 112 168 177 q 318 46 249 46 q 380 55 348 46 q 446 80 412 63 q 504 189 477 121 q 544 348 531 256 l 555 429 m 655 865 l 589 858 l 488 1036 l 332 858 l 269 865 l 272 886 l 466 1139 l 555 1133 l 658 886 l 655 865 z "},"ǒ":{"ha":739,"x_min":39,"x_max":715,"o":"m 296 -15 q 99 62 159 -15 q 61 291 39 138 l 71 354 q 198 644 98 538 q 444 751 298 751 q 642 673 584 751 q 678 439 700 595 l 669 374 q 541 94 645 202 q 296 -15 437 -15 m 555 429 q 539 623 572 557 q 422 690 506 690 q 354 680 388 690 q 294 656 321 671 q 234 533 260 606 q 196 381 208 460 l 184 300 q 209 112 168 177 q 318 46 249 46 q 380 55 348 46 q 446 80 412 63 q 504 189 477 121 q 544 348 531 256 l 555 429 m 329 1126 l 395 1133 l 490 955 l 652 1133 l 715 1126 l 712 1104 l 518 851 l 429 858 l 326 1104 l 329 1126 z "},"ő":{"ha":739,"x_min":39,"x_max":838,"o":"m 296 -15 q 99 62 159 -15 q 61 291 39 138 l 71 354 q 198 644 98 538 q 444 751 298 751 q 642 673 584 751 q 678 439 700 595 l 669 374 q 541 94 645 202 q 296 -15 437 -15 m 555 429 q 539 623 572 557 q 422 690 506 690 q 354 680 388 690 q 294 656 321 671 q 234 533 260 606 q 196 381 208 460 l 184 300 q 209 112 168 177 q 318 46 249 46 q 380 55 348 46 q 446 80 412 63 q 504 189 477 121 q 544 348 531 256 l 555 429 m 286 886 l 458 1133 l 581 1126 l 574 1081 l 333 858 l 283 865 l 286 886 m 543 886 l 715 1133 l 838 1126 l 831 1081 l 589 858 l 539 865 l 543 886 z "},"ŏ":{"ha":739,"x_min":39,"x_max":709,"o":"m 296 -15 q 99 62 159 -15 q 61 291 39 138 l 71 354 q 198 644 98 538 q 444 751 298 751 q 642 673 584 751 q 678 439 700 595 l 669 374 q 541 94 645 202 q 296 -15 437 -15 m 555 429 q 539 623 572 557 q 422 690 506 690 q 354 680 388 690 q 294 656 321 671 q 234 533 260 606 q 196 381 208 460 l 184 300 q 209 112 168 177 q 318 46 249 46 q 380 55 348 46 q 446 80 412 63 q 504 189 477 121 q 544 348 531 256 l 555 429 m 709 1080 q 684 1007 703 1043 q 633 943 664 971 q 561 896 602 914 q 473 878 520 878 q 390 896 425 878 q 331 943 354 914 q 298 1007 308 971 q 294 1080 288 1043 l 340 1086 q 345 1056 338 1076 q 368 1016 351 1036 q 413 981 385 996 q 485 966 441 966 q 559 981 526 966 q 615 1016 592 996 q 650 1056 637 1036 q 664 1086 663 1076 l 709 1080 z "},"ỏ":{"ha":739,"x_min":39,"x_max":700,"o":"m 296 -15 q 99 62 159 -15 q 61 291 39 138 l 71 354 q 198 644 98 538 q 444 751 298 751 q 642 673 584 751 q 678 439 700 595 l 669 374 q 541 94 645 202 q 296 -15 437 -15 m 555 429 q 539 623 572 557 q 422 690 506 690 q 354 680 388 690 q 294 656 321 671 q 234 533 260 606 q 196 381 208 460 l 184 300 q 209 112 168 177 q 318 46 249 46 q 380 55 348 46 q 446 80 412 63 q 504 189 477 121 q 544 348 531 256 l 555 429 m 542 935 q 518 920 528 926 q 504 909 509 913 q 496 900 498 904 q 494 892 494 896 q 493 881 492 886 q 494 871 493 876 q 496 862 494 866 l 441 844 q 431 865 435 854 q 424 884 427 874 q 422 904 421 895 q 437 937 425 921 q 479 972 449 952 q 511 994 498 985 q 532 1012 524 1004 q 544 1028 541 1020 q 549 1046 548 1036 q 542 1072 551 1061 q 509 1082 532 1082 q 485 1080 496 1082 q 465 1076 473 1078 q 446 1070 454 1074 l 422 1008 l 372 1012 l 385 1095 q 424 1114 401 1105 q 469 1127 443 1121 q 526 1133 494 1133 q 611 1109 582 1133 q 634 1044 640 1086 q 605 983 629 1007 q 542 935 581 958 z "},"ỗ":{"ha":739,"x_min":39,"x_max":847,"o":"m 296 -15 q 99 62 159 -15 q 61 291 39 138 l 71 354 q 198 644 98 538 q 444 751 298 751 q 642 673 584 751 q 678 439 700 595 l 669 374 q 541 94 645 202 q 296 -15 437 -15 m 555 429 q 539 623 572 557 q 422 690 506 690 q 354 680 388 690 q 294 656 321 671 q 234 533 260 606 q 196 381 208 460 l 184 300 q 209 112 168 177 q 318 46 249 46 q 380 55 348 46 q 446 80 412 63 q 504 189 477 121 q 544 348 531 256 l 555 429 m 282 1234 q 338 1345 293 1308 q 453 1383 383 1383 q 525 1369 490 1383 q 594 1338 561 1355 q 657 1307 627 1321 q 710 1293 686 1293 q 759 1315 738 1293 q 787 1381 779 1337 l 847 1388 l 842 1356 q 790 1247 832 1287 q 680 1208 748 1208 q 609 1222 646 1208 q 535 1253 572 1236 q 465 1283 498 1270 q 408 1297 432 1297 q 384 1294 395 1297 q 362 1283 372 1291 q 345 1261 353 1275 q 334 1224 338 1246 l 279 1217 l 282 1234 m 681 865 l 615 858 l 514 1036 l 358 858 l 295 865 l 298 886 l 492 1139 l 581 1133 l 684 886 l 681 865 z "},"ố":{"ha":739,"x_min":39,"x_max":877,"o":"m 296 -15 q 99 62 159 -15 q 61 291 39 138 l 71 354 q 198 644 98 538 q 444 751 298 751 q 642 673 584 751 q 678 439 700 595 l 669 374 q 541 94 645 202 q 296 -15 437 -15 m 555 429 q 539 623 572 557 q 422 690 506 690 q 354 680 388 690 q 294 656 321 671 q 234 533 260 606 q 196 381 208 460 l 184 300 q 209 112 168 177 q 318 46 249 46 q 380 55 348 46 q 446 80 412 63 q 504 189 477 121 q 544 348 531 256 l 555 429 m 681 865 l 615 858 l 514 1036 l 358 858 l 295 865 l 298 886 l 492 1139 l 581 1133 l 684 886 l 681 865 m 662 1066 l 781 1227 l 877 1220 l 870 1175 l 702 1038 l 659 1044 l 662 1066 z "},"ồ":{"ha":739,"x_min":39,"x_max":700,"o":"m 296 -15 q 99 62 159 -15 q 61 291 39 138 l 71 354 q 198 644 98 538 q 444 751 298 751 q 642 673 584 751 q 678 439 700 595 l 669 374 q 541 94 645 202 q 296 -15 437 -15 m 555 429 q 539 623 572 557 q 422 690 506 690 q 354 680 388 690 q 294 656 321 671 q 234 533 260 606 q 196 381 208 460 l 184 300 q 209 112 168 177 q 318 46 249 46 q 380 55 348 46 q 446 80 412 63 q 504 189 477 121 q 544 348 531 256 l 555 429 m 681 865 l 615 858 l 514 1036 l 358 858 l 295 865 l 298 886 l 492 1139 l 581 1133 l 684 886 l 681 865 m 378 1044 l 325 1038 l 209 1175 l 216 1220 l 301 1227 l 382 1066 l 378 1044 z "},"ổ":{"ha":739,"x_min":39,"x_max":874,"o":"m 296 -15 q 99 62 159 -15 q 61 291 39 138 l 71 354 q 198 644 98 538 q 444 751 298 751 q 642 673 584 751 q 678 439 700 595 l 669 374 q 541 94 645 202 q 296 -15 437 -15 m 555 429 q 539 623 572 557 q 422 690 506 690 q 354 680 388 690 q 294 656 321 671 q 234 533 260 606 q 196 381 208 460 l 184 300 q 209 112 168 177 q 318 46 249 46 q 380 55 348 46 q 446 80 412 63 q 504 189 477 121 q 544 348 531 256 l 555 429 m 681 865 l 615 858 l 514 1036 l 358 858 l 295 865 l 298 886 l 492 1139 l 581 1133 l 684 886 l 681 865 m 776 1117 q 752 1102 762 1108 q 738 1091 743 1096 q 730 1082 732 1086 q 728 1074 728 1078 q 727 1063 726 1069 q 728 1054 727 1058 q 730 1044 728 1048 l 675 1026 q 665 1047 669 1036 q 658 1067 661 1057 q 656 1086 655 1077 q 671 1119 659 1103 q 713 1155 683 1135 q 745 1177 732 1167 q 766 1194 758 1186 q 778 1210 774 1202 q 783 1228 782 1218 q 776 1254 785 1243 q 743 1265 766 1265 q 719 1263 730 1265 q 699 1259 707 1261 q 680 1253 688 1256 l 656 1191 l 606 1194 l 618 1278 q 658 1296 635 1288 q 703 1309 677 1303 q 760 1315 728 1315 q 845 1292 816 1315 q 868 1227 874 1269 q 839 1165 863 1190 q 776 1117 814 1141 z "},"ọ":{"ha":739,"x_min":39,"x_max":700,"o":"m 296 -15 q 99 62 159 -15 q 61 291 39 138 l 71 354 q 198 644 98 538 q 444 751 298 751 q 642 673 584 751 q 678 439 700 595 l 669 374 q 541 94 645 202 q 296 -15 437 -15 m 555 429 q 539 623 572 557 q 422 690 506 690 q 354 680 388 690 q 294 656 321 671 q 234 533 260 606 q 196 381 208 460 l 184 300 q 209 112 168 177 q 318 46 249 46 q 380 55 348 46 q 446 80 412 63 q 504 189 477 121 q 544 348 531 256 l 555 429 m 196 -216 q 200 -182 196 -198 q 210 -154 203 -166 q 225 -135 216 -142 q 243 -127 233 -127 q 277 -131 261 -127 q 305 -141 293 -135 q 325 -157 317 -148 q 332 -175 332 -165 q 328 -210 332 -193 q 318 -238 324 -226 q 302 -256 311 -250 q 284 -263 294 -263 q 250 -259 266 -263 q 221 -249 233 -256 q 203 -234 210 -243 q 196 -216 196 -226 z "},"ộ":{"ha":739,"x_min":39,"x_max":700,"o":"m 296 -15 q 99 62 159 -15 q 61 291 39 138 l 71 354 q 198 644 98 538 q 444 751 298 751 q 642 673 584 751 q 678 439 700 595 l 669 374 q 541 94 645 202 q 296 -15 437 -15 m 555 429 q 539 623 572 557 q 422 690 506 690 q 354 680 388 690 q 294 656 321 671 q 234 533 260 606 q 196 381 208 460 l 184 300 q 209 112 168 177 q 318 46 249 46 q 380 55 348 46 q 446 80 412 63 q 504 189 477 121 q 544 348 531 256 l 555 429 m 196 -216 q 200 -182 196 -198 q 210 -154 203 -166 q 225 -135 216 -142 q 243 -127 233 -127 q 277 -131 261 -127 q 305 -141 293 -135 q 325 -157 317 -148 q 332 -175 332 -165 q 328 -210 332 -193 q 318 -238 324 -226 q 302 -256 311 -250 q 284 -263 294 -263 q 250 -259 266 -263 q 221 -249 233 -256 q 203 -234 210 -243 q 196 -216 196 -226 m 655 865 l 589 858 l 488 1036 l 332 858 l 269 865 l 272 886 l 466 1139 l 555 1133 l 658 886 l 655 865 z "},"ơ":{"ha":773,"x_min":39,"x_max":878,"o":"m 835 971 q 870 894 862 930 q 873 827 878 857 q 849 754 868 787 q 793 691 830 721 q 697 635 756 662 q 668 622 684 629 q 678 439 694 551 l 669 374 q 541 94 645 202 q 296 -15 437 -15 q 99 62 159 -15 q 61 291 39 138 l 71 354 q 198 644 98 538 q 444 751 298 751 q 635 681 576 751 q 650 688 643 685 q 708 723 686 705 q 741 759 730 740 q 755 802 751 778 q 754 846 758 826 q 743 882 750 867 q 725 912 736 899 l 728 932 l 835 971 m 555 429 q 539 623 572 557 q 422 690 506 690 q 354 680 388 690 q 294 656 321 671 q 234 533 260 606 q 196 381 208 460 l 184 300 q 209 112 168 177 q 318 46 249 46 q 380 55 348 46 q 446 80 412 63 q 504 189 477 121 q 544 348 531 256 l 555 429 z "},"ớ":{"ha":773,"x_min":39,"x_max":878,"o":"m 456 886 l 629 1133 l 751 1126 l 745 1081 l 503 858 l 453 865 l 456 886 m 835 971 q 870 894 862 930 q 873 827 878 857 q 849 754 868 787 q 793 691 830 721 q 697 635 756 662 q 668 622 684 629 q 678 439 694 551 l 669 374 q 541 94 645 202 q 296 -15 437 -15 q 99 62 159 -15 q 61 291 39 138 l 71 354 q 198 644 98 538 q 444 751 298 751 q 635 681 576 751 q 650 688 643 685 q 708 723 686 705 q 741 759 730 740 q 755 802 751 778 q 754 846 758 826 q 743 882 750 867 q 725 912 736 899 l 728 932 l 835 971 m 555 429 q 539 623 572 557 q 422 690 506 690 q 354 680 388 690 q 294 656 321 671 q 234 533 260 606 q 196 381 208 460 l 184 300 q 209 112 168 177 q 318 46 249 46 q 380 55 348 46 q 446 80 412 63 q 504 189 477 121 q 544 348 531 256 l 555 429 z "},"ờ":{"ha":773,"x_min":39,"x_max":878,"o":"m 522 865 l 462 858 l 296 1081 l 303 1126 l 422 1133 l 526 886 l 522 865 m 835 971 q 870 894 862 930 q 873 827 878 857 q 849 754 868 787 q 793 691 830 721 q 697 635 756 662 q 668 622 684 629 q 678 439 694 551 l 669 374 q 541 94 645 202 q 296 -15 437 -15 q 99 62 159 -15 q 61 291 39 138 l 71 354 q 198 644 98 538 q 444 751 298 751 q 635 681 576 751 q 650 688 643 685 q 708 723 686 705 q 741 759 730 740 q 755 802 751 778 q 754 846 758 826 q 743 882 750 867 q 725 912 736 899 l 728 932 l 835 971 m 555 429 q 539 623 572 557 q 422 690 506 690 q 354 680 388 690 q 294 656 321 671 q 234 533 260 606 q 196 381 208 460 l 184 300 q 209 112 168 177 q 318 46 249 46 q 380 55 348 46 q 446 80 412 63 q 504 189 477 121 q 544 348 531 256 l 555 429 z "},"ỡ":{"ha":773,"x_min":39,"x_max":878,"o":"m 170 886 q 226 997 181 960 q 341 1035 271 1035 q 413 1021 378 1035 q 482 990 449 1007 q 545 959 515 973 q 598 945 574 945 q 647 967 626 945 q 675 1034 667 989 l 735 1040 l 730 1008 q 678 900 720 939 q 568 860 636 860 q 497 874 534 860 q 423 905 460 888 q 353 936 387 922 q 296 949 320 949 q 272 946 283 949 q 250 935 260 943 q 233 913 241 927 q 222 876 226 899 l 168 869 l 170 886 m 835 971 q 870 894 862 930 q 873 827 878 857 q 849 754 868 787 q 793 691 830 721 q 697 635 756 662 q 668 622 684 629 q 678 439 694 551 l 669 374 q 541 94 645 202 q 296 -15 437 -15 q 99 62 159 -15 q 61 291 39 138 l 71 354 q 198 644 98 538 q 444 751 298 751 q 635 681 576 751 q 650 688 643 685 q 708 723 686 705 q 741 759 730 740 q 755 802 751 778 q 754 846 758 826 q 743 882 750 867 q 725 912 736 899 l 728 932 l 835 971 m 555 429 q 539 623 572 557 q 422 690 506 690 q 354 680 388 690 q 294 656 321 671 q 234 533 260 606 q 196 381 208 460 l 184 300 q 209 112 168 177 q 318 46 249 46 q 380 55 348 46 q 446 80 412 63 q 504 189 477 121 q 544 348 531 256 l 555 429 z "}}}
